<?xml version="1.0" encoding="UTF-8" standalone="no"?>
<svg
   xmlns:dc="http://purl.org/dc/elements/1.1/"
   xmlns:cc="http://creativecommons.org/ns#"
   xmlns:rdf="http://www.w3.org/1999/02/22-rdf-syntax-ns#"
   xmlns:svg="http://www.w3.org/2000/svg"
   xmlns="http://www.w3.org/2000/svg"
   viewBox="0 0 136 46.666668"
   height="46.666668"
   width="136"
   xml:space="preserve"
   id="svg2"
   version="1.1"><metadata
     id="metadata8"><rdf:RDF><cc:Work
         rdf:about=""><dc:format>image/svg+xml</dc:format><dc:type
           rdf:resource="http://purl.org/dc/dcmitype/StillImage" /></cc:Work></rdf:RDF></metadata><defs
     id="defs6" /><g
     transform="matrix(1.3333333,0,0,-1.3333333,0,46.666667)"
     id="g10"><g
       transform="scale(0.1)"
       id="g12"><path
         id="path14"
         style="fill:#231f20;fill-opacity:1;fill-rule:nonzero;stroke:none"
         d="m 639.879,76.3984 c 3.281,0 5.551,2.2227 5.551,5.4727 V 242.531 h 54.531 c 3.238,0 5.469,2.258 5.469,5.469 v 22.191 c 0,3.239 -2.231,5.457 -5.469,5.457 h -145.27 c -3.281,0 -5.472,-2.218 -5.472,-5.457 V 248 c 0,-3.211 2.191,-5.469 5.472,-5.469 h 54.571 V 81.8711 c 0,-3.25 2.218,-5.4727 5.468,-5.4727 z m 248.711,6.9532 c 3.25,-3.4805 1.25,-6.9532 -2.731,-6.9532 h -31.64 c -4.219,0 -6.489,0.9727 -9.258,4.2227 l -18.91,20.9299 C 813.32,84.6016 795.66,71.8984 766.211,71.8984 c -36.371,0 -65,21.9219 -65,59.5426 0,28.86 15.469,44.329 38.867,57.297 -11.488,13.16 -16.719,27.153 -16.719,39.34 0,30.891 21.68,52.07 54.34,52.07 33.391,0 53.821,-19.687 53.821,-48.828 0,-24.922 -17.93,-38.832 -36.872,-49.34 l 27.93,-30.109 15.703,27.418 c 1.989,3.199 4.219,4.449 8.199,4.449 h 24.18 c 3.949,0 6.219,-2.726 3.75,-6.949 L 846.48,128.941 888.59,83.3516 M 778.199,249.25 c -12.969,0 -20.429,-8.211 -20.429,-19.18 0,-8.48 4.5,-15.941 14.691,-26.879 17.699,10.239 25.199,16.411 25.199,27.387 0,10.231 -6.488,18.672 -19.461,18.672 M 766.988,103.27 c 15.942,0 26.641,7.742 35.391,20.941 l -40.348,43.359 c -15.472,-8.75 -25.472,-17.461 -25.472,-34.879 0,-17.191 13.953,-29.421 30.429,-29.421 M 573.398,82.8398 c 1.25,-3.1992 -0.738,-6.4414 -4.218,-6.4414 h -25.942 c -3.707,0 -5.968,1.7227 -7.218,5.2305 L 521.328,123.969 H 440.82 L 426.129,81.6289 c -1.25,-3.5078 -3.469,-5.2305 -7.219,-5.2305 h -24.422 c -3.238,0 -5.468,3.2422 -4.258,6.4414 l 67.579,187.8512 c 1.211,3.481 3.48,4.957 7.191,4.957 h 33.398 c 3.75,0 6.25,-1.476 7.461,-4.957 L 573.398,82.8398 M 509.84,156.59 481.211,238.82 452.301,156.59 Z M 927.969,76.3984 c -3.239,0 -5.469,2.2227 -5.469,5.4727 V 242.531 h -54.57 c -3.282,0 -5.508,2.258 -5.508,5.469 v 22.191 c 0,3.239 2.226,5.457 5.508,5.457 h 145.27 c 3.25,0 5.47,-2.218 5.47,-5.457 V 248 c 0,-3.211 -2.22,-5.469 -5.47,-5.469 H 958.629 V 81.8711 c 0,-3.25 -2.219,-5.4727 -5.469,-5.4727 h -25.191" /><path
         id="path16"
         style="fill:#36ABE4;fill-opacity:1;fill-rule:nonzero;stroke:none"
         d="m 251.559,319.25 c -24.957,14.961 -53.899,23.469 -85.11,23.469 -31.488,0 -61.289,-8.821 -86.3279,-24.141 -7.5,-4.637 -11.7227,-8.359 -11.7227,-13.078 0,-14.059 32.8126,-29.141 90.9416,-29.141 57.609,0 102.262,16.52 102.262,32.422 0,3.828 -3.321,6.481 -10.043,10.469 m 24.769,-18.48 c 0.703,-1.09 1.051,-2.258 1.051,-3.829 0,-18.511 -56.559,-51.211 -146.641,-51.211 -66.1286,0 -78.5075,24.571 -78.5075,40.2 0,5.539 2.1093,11.25 6.8281,17.07 0.2422,0.352 0.043,0.512 -0.2695,0.23 C 50.1992,295.93 42.3008,287.719 35.3516,278.898 32.0312,274.719 30,271.012 30,268.781 c 0,-32.34 81.129,-55.82 156.988,-55.82 80.782,0 116.84,26.41 116.84,49.57 0,8.278 -3.207,13.117 -11.449,22.5 -5.348,6.129 -10.43,11.09 -15.777,15.981 -0.274,0.187 -0.473,0.027 -0.274,-0.242 M 16.0508,247.719 C 11.1719,238.039 5.73828,221.711 4.17969,213.23 3.48047,209.641 3.75,207.879 5,205.191 c 10.2305,-21.679 61.8398,-56.332 182.34,-56.332 73.441,0 130.551,18.039 139.808,50.969 1.723,6.102 1.801,12.5 -0.386,21.141 -2.422,9.652 -7.032,20.859 -10.903,28.75 -0.121,0.269 -0.347,0.23 -0.347,-0.078 1.476,-43.2 -119.063,-71.063 -179.852,-71.063 -65.8592,0 -120.7811,26.25 -120.7811,59.383 0,3.199 0.6328,6.367 1.4922,9.648 0.0781,0.352 -0.1992,0.391 -0.3203,0.11 M 132.969,109.68 C 47.7695,109.68 7.66016,149.328 0.351562,176.398 0.269531,176.789 0,176.711 0,176.359 c 0,-9.14 0.898438,-20.859 2.5,-28.711 0.73828,-3.75 3.82812,-9.726 8.3594,-14.5 20.6211,-21.476 72.0703,-51.5972 161.1286,-51.5972 121.293,0 149.063,40.3902 154.692,53.6682 4.101,9.543 6.172,26.722 6.172,41.14 0,3.512 -0.082,6.289 -0.192,9.02 0,0.473 -0.281,0.473 -0.359,0.043 -6.09,-32.5 -109.723,-75.742 -199.332,-75.742 m 44.73,-73.2386 c 40.973,0 85.973,11.168 112.891,33.2774 7.379,6.0117 14.41,14.0624 20.699,24.8007 3.59,6.2105 7.152,13.5585 10,20.7815 0.121,0.347 -0.078,0.551 -0.348,0.16 -25,-36.8399 -97.5,-59.8126 -172.351,-59.8126 -52.9298,0 -109.84,16.8828 -132.1095,49.2226 -0.2305,0.277 -0.4297,0.16 -0.3086,-0.191 C 36.9492,60.5781 99.8789,36.4414 177.699,36.4414 M 64.3789,44.9492 C 92.5781,23.1211 128.012,9.98828 166.449,9.98828 c 42.031,0 80.352,15.63282 109.602,41.25002 0.359,0.3125 0.199,0.5117 -0.153,0.3125 -13.128,-8.75 -50.546,-27.8906 -109.449,-27.8906 -51.219,0 -83.5974,11.4101 -101.8396,21.6015 -0.3477,0.1992 -0.5078,-0.0703 -0.2305,-0.3125" /></g></g></svg>