<svg xmlns="http://www.w3.org/2000/svg" viewBox="0 0 300 77.91">
  <title>Asset 12</title>
  <g id="Layer_2" data-name="Layer 2">
    <g id="Layer_1-2" data-name="Layer 1">
      <g>
        <g>
          <path d="M68.79,5.61a6,6,0,0,0-4.47,1.72V0H61.68V21.54h2.64V12.6a4.29,4.29,0,0,1,4.24-4.47c2.41,0,3.9,1.6,3.9,4.24v9.17h2.64v-9.4c0-3.9-2.52-6.53-6.3-6.53Z" style="fill: #00619d"/>
          <path d="M79.1,16.61c0-1.72,1.49-2.64,4-2.64a20.81,20.81,0,0,1,4.24.46v1.15c0,2.18-2.06,3.78-4.7,3.78-1.83-.11-3.55-1-3.55-2.75ZM83.34,5.73A13.3,13.3,0,0,0,78,7l-.57.23,1,2.41.69-.34a9.53,9.53,0,0,1,4.12-1c1.83,0,3.9.57,4,3.44a17.56,17.56,0,0,0-4-.46c-4.24,0-6.87,2.06-6.87,5.27h0c0,3.32,3.21,5.16,6.19,5.16a7.12,7.12,0,0,0,4.81-1.72v1.37H90V11.8C89.87,8,87.46,5.73,83.34,5.73Z" style="fill: #00619d"/>
          <path d="M94.11,8.36V6H91.47V21.54h2.64V15c0-4.47,2.75-6.53,5.5-6.53h.8V5.61h-.57a8,8,0,0,0-5.73,2.75Z" style="fill: #00619d"/>
          <path d="M108,19.13c-1.49,0-2.18-.69-2.18-2.06V8.59h5V5.73h-5V1.37h-2.64V5.73h-1.83V8.59h1.83V17.3c0,2.86,1.83,4.58,4.7,4.58a7.28,7.28,0,0,0,2.64-.57l.34-.23V18.33l-.92.46a6.36,6.36,0,0,1-1.95.34Z" style="fill: #00619d"/>
          <path d="M118.05,8.13c2.75,0,4,2.06,4.35,4.24h-8.82c.46-2.41,2.18-4.24,4.47-4.24Zm0-2.52c-4.12,0-7.45,3.55-7.45,8.13h0c0,4.58,3.32,8.13,7.68,8.13A8.48,8.48,0,0,0,124.7,19l.46-.46-1.95-1.72-.46.46a5.87,5.87,0,0,1-4.47,2.06A4.86,4.86,0,0,1,113.47,15h11.69V13.86h0c.11-4.93-2.86-8.25-7.1-8.25Z" style="fill: #00619d"/>
          <path d="M135.13,5.73a7.15,7.15,0,0,0-5.73,2.64V6h-2.64V21.54h2.64V15c0-4.47,2.75-6.53,5.5-6.53h.8V5.73Z" style="fill: #00619d"/>
          <path d="M58.36,17.53a6.91,6.91,0,0,1-4.58,1.72c-3.78,0-6.87-3.55-6.87-8.13s3-8,6.87-8a6.43,6.43,0,0,1,4.35,1.6l.46.34,1.95-1.95L60,2.64A9.24,9.24,0,0,0,53.78.46c-5.5,0-9.62,4.7-9.62,10.77S48.28,22,53.66,22a8.62,8.62,0,0,0,6.42-2.52l.46-.46L58.7,17.19l-.34.34Z" style="fill: #00619d"/>
        </g>
        <polygon points="279.83 33.46 279.83 64.05 300 48.81 279.83 33.46" style="fill: #00619d"/>
        <path d="M49.42,73.21a4.65,4.65,0,0,1-4.7,4.7H40V43.42c.57-9.17,3.9-16.5,17.76-17,6.07.11,10.43,2.52,12.95,5.5,2.75,3.55,4,8,4,13.75s-1.37,10.54-4.12,14.09A12.82,12.82,0,0,1,60,65.08a17.54,17.54,0,0,1-10.54-3.21ZM65.23,46.06c0-3.55-.69-11.23-8-11.23-7,0-7.79,7.45-7.79,11.23,0,9.62,5.5,10.77,8,10.77C64.09,56.83,65.23,49.73,65.23,46.06Z" style="fill: #919195"/>
        <path d="M5,61c3.09,2.64,7.79,4,14.09,4,6.07,0,10.77-1.26,14.09-3.9s4.93-6.65,4.93-11.57a13.11,13.11,0,0,0-1.49-6.3A12.27,12.27,0,0,0,32,38.73a16.36,16.36,0,0,0-3.55-1.37c-1.72-.57-10.08-2.86-10.88-3-4.7-1.15-7.68-2.75-7.68-5.5.23-5.39,5.27-5.73,8-5.73A11,11,0,0,1,24.67,25a6.19,6.19,0,0,1,2.64,5.27h9.4a15.27,15.27,0,0,0-4.93-11.11c-3-2.52-7.33-3.9-12.95-3.9-6,0-10.54,1.26-13.63,3.67S.5,25,.5,29.56c0,5.73,2.75,9.17,5.27,10.77a32.78,32.78,0,0,0,9.4,3.21l3.78.8c6.42,1.6,10.2,3.55,10.08,6.76-.11,1.95-.69,3.44-2.18,4.35a12,12,0,0,1-6.42,1.49A13.18,13.18,0,0,1,12.87,55c-1.72-1.15-2.75-3-3.21-5.73H0C-.3,54.31,1.53,58.32,5,61" style="fill: #919195"/>
        <path d="M93.76,34.6c6-.11,6.87,4.93,7,7.45H86.66S86.55,34.72,93.76,34.6Zm.34,22.11c-2.41-.11-6.87-.57-7.33-8.59h23.83V45.26c-.11-6-1.6-10.43-4.35-13.86-3-3.32-7.33-4.93-12.83-4.93-5.27,0-9.28,1.72-12.26,5s-4.24,7.91-4.24,13.75c0,6.19,1.49,10.88,4.35,14.21s7,5,12.26,5A17.19,17.19,0,0,0,104.3,61.3a15.15,15.15,0,0,0,5.84-8.82H101.9C100.64,56.14,97.54,56.94,94.11,56.71Z" style="fill: #919195"/>
        <path d="M254.06,64h-9.51V40.56c0-2.75-1.15-6.42-6.53-6.42s-6.42,4.12-6.42,6.42V64h-9.74V42.51c0-6.3,1.83-10.08,4.93-12.6s6.87-3.32,10.88-3.44a26.94,26.94,0,0,1,6.19.69,12.49,12.49,0,0,1,5.5,2.75,11.85,11.85,0,0,1,4.93-2.52,25.84,25.84,0,0,1,5.84-.92c11.8-.11,16.61,5.39,17,7.1V64.16h-5.5a4.61,4.61,0,0,1-4.7-4.7V40.67c0-2.64-.92-6.42-6.53-6.42s-6.53,4.12-6.53,6.42V64Z" style="fill: #919195"/>
        <path d="M137,52.7H146s-2.41,12-16.16,12-17.07-11-17.07-18.22S114,27,129.28,26.58c14.09-.23,16.38,12,16.38,12H136s-.92-4.12-6.65-4-7.22,5.5-7.22,10.66,1.26,11.57,7.68,11.57C135.93,56.94,136.5,53.62,137,52.7Z" style="fill: #919195"/>
        <path d="M187.26,27.38h9.62V50.76s-.34,6.3,6.3,6.3A5.94,5.94,0,0,0,209.6,51V31.85s.34-4.58,4.47-4.58h5V49c-.11,1.15,1.26,15.58-15.93,15.58s-15.93-14.55-15.93-15.47Z" style="fill: #919195"/>
        <path d="M157.7,37.24h5.61V27.61H157.7V21.43a4.41,4.41,0,0,0-4.58-4.7h-4.93V57.17c0,4.24,1.6,6.76,5.16,6.76h4.35Z" style="fill: #919195"/>
        <path d="M173.51,63.93V45c0-2.75.69-4.81,1.95-6.07s3.21-1.95,6-1.95h3.21V27.27a34.7,34.7,0,0,0-8.59.92,17.69,17.69,0,0,0-6.07,3A15.08,15.08,0,0,0,165.6,37a22.87,22.87,0,0,0-1.6,9.05V63.82h9.51Z" style="fill: #919195"/>
        <g>
          <path d="M268.15,18.45h-1.72v-.92h4.35v.92h-1.72v4.47h-.92Z" style="fill: #00619d"/>
          <path d="M271.81,17.53h1l1.6,2.52,1.6-2.52h1v5.39h-.92V19l-1.72,2.52h0L272.73,19v3.9h-.92Z" style="fill: #00619d"/>
        </g>
        <g>
          <path d="M173.05,70.35H174l2.64,6h-1.15l-.57-1.49H172l-.57,1.49h-1ZM174.54,74l-1-2.41-1,2.41Z" style="fill: #00619d"/>
          <path d="M177.4,73.79V70.35h1v3.44c0,1.15.57,1.72,1.49,1.72a1.42,1.42,0,0,0,1.49-1.6V70.46h1V73.9a2.33,2.33,0,0,1-2.52,2.64A2.42,2.42,0,0,1,177.4,73.79Z" style="fill: #00619d"/>
          <path d="M185.42,71.38h-1.95v-.92h4.81v.92h-1.95v5h-1v-5Z" style="fill: #00619d"/>
          <path d="M189.43,70.35h1v2.52h2.86V70.35h1v6h-1V73.79h-2.86v2.52h-1Z" style="fill: #00619d"/>
          <path d="M195.62,73.44h0a3.09,3.09,0,0,1,6.19,0h0a3,3,0,0,1-3.09,3.09A3.24,3.24,0,0,1,195.62,73.44Zm5.16,0h0a2.08,2.08,0,0,0-2.06-2.18,2.05,2.05,0,0,0-2.06,2.06h0a2,2,0,0,0,2.06,2.06A1.84,1.84,0,0,0,200.78,73.44Z" style="fill: #00619d"/>
          <path d="M203.18,70.35h2.64a2.37,2.37,0,0,1,1.72.57,1.72,1.72,0,0,1,.46,1.26h0A1.77,1.77,0,0,1,206.62,74l1.6,2.29H207l-1.49-2.06h-1.26v2.06h-1v-6Zm2.64,3c.8,0,1.26-.34,1.26-1h0c0-.69-.46-1-1.26-1h-1.49v1.95h1.49Z" style="fill: #00619d"/>
          <path d="M209.37,70.35h1v6h-1Z" style="fill: #00619d"/>
          <path d="M211.89,75.62l3.55-4.24H212v-.92h4.81v.8l-3.55,4.24h3.55v.92h-4.93Z" style="fill: #00619d"/>
          <path d="M218.08,70.35h4.47v.92h-3.32v1.6h3v.92h-3v1.6h3.44v.92h-4.47v-6Z" style="fill: #00619d"/>
          <path d="M223.81,70.35H226a3,3,0,0,1,3.21,3h0a3,3,0,0,1-3.21,3h-2.18Zm1,1v4H226A1.93,1.93,0,0,0,228,73.33h0A2,2,0,0,0,226,71.27h-1.15Z" style="fill: #00619d"/>
          <path d="M233,70.35h2.64a2.37,2.37,0,0,1,1.72.57,1.72,1.72,0,0,1,.46,1.26h0A1.77,1.77,0,0,1,236.41,74l1.6,2.29h-1.26l-1.49-2.06H234v2.06h-1v-6Zm2.64,3c.8,0,1.26-.34,1.26-1h0c0-.69-.46-1-1.26-1h-1.49v1.95h1.49Z" style="fill: #00619d"/>
          <path d="M239.16,70.35h4.47v.92h-3.32v1.6h3v.92h-3v1.6h3.44v.92h-4.47v-6Z" style="fill: #00619d"/>
          <path d="M244.55,75.51l.69-.8a3,3,0,0,0,1.83.8c.69,0,1-.34,1-.8h0c0-.46-.23-.69-1.37-.92s-1.95-.69-1.95-1.83h0c0-1,.8-1.72,2.06-1.72A2.85,2.85,0,0,1,249,71l-.57.8a2.31,2.31,0,0,0-1.6-.57c-.57,0-.92.34-.92.69h0c0,.46.23.69,1.37.92s1.95.8,1.95,1.72h0c0,1.15-.92,1.83-2.18,1.83A3.45,3.45,0,0,1,244.55,75.51Z" style="fill: #00619d"/>
          <path d="M250.39,70.35h4.47v.92h-3.32v1.6h3v.92h-3v1.6H255v.92H250.5v-6Z" style="fill: #00619d"/>
          <path d="M256.12,70.35h1v5h3.09v.92H256v-6Z" style="fill: #00619d"/>
          <path d="M261.39,70.35h1v5h3.09v.92h-4.24v-6Z" style="fill: #00619d"/>
          <path d="M266.66,70.35h4.47v.92H267.8v1.6h3v.92h-3v1.6h3.44v.92h-4.47v-6Z" style="fill: #00619d"/>
          <path d="M272.39,70.35H275a2.37,2.37,0,0,1,1.72.57,1.72,1.72,0,0,1,.46,1.26h0A1.77,1.77,0,0,1,275.82,74l1.6,2.29h-1.26l-1.49-2.06h-1.26v2.06h-1v-6Zm2.64,3c.8,0,1.26-.34,1.26-1h0c0-.69-.46-1-1.26-1h-1.49v1.95H275Z" style="fill: #00619d"/>
        </g>
      </g>
    </g>
  </g>
</svg>
