<?xml version="1.0" encoding="UTF-8" standalone="no"?>
<!-- Created with Inkscape (http://www.inkscape.org/) -->

<svg
   xmlns:dc="http://purl.org/dc/elements/1.1/"
   xmlns:cc="http://creativecommons.org/ns#"
   xmlns:rdf="http://www.w3.org/1999/02/22-rdf-syntax-ns#"
   xmlns:svg="http://www.w3.org/2000/svg"
   xmlns="http://www.w3.org/2000/svg"
   xmlns:sodipodi="http://sodipodi.sourceforge.net/DTD/sodipodi-0.dtd"
   xmlns:inkscape="http://www.inkscape.org/namespaces/inkscape"
   width="272"
   height="67"
   id="svg3591"
   version="1.1"
   inkscape:version="0.48.4 r9939"
   sodipodi:docname="New document 3">
  <defs
     id="defs3593" />
  <sodipodi:namedview
     id="base"
     pagecolor="#ffffff"
     bordercolor="#666666"
     borderopacity="1.0"
     inkscape:pageopacity="0.0"
     inkscape:pageshadow="2"
     inkscape:zoom="1"
     inkscape:cx="165.91711"
     inkscape:cy="63.824418"
     inkscape:document-units="px"
     inkscape:current-layer="layer1"
     showgrid="false"
     fit-margin-top="0"
     fit-margin-left="0"
     fit-margin-right="0"
     fit-margin-bottom="0"
     inkscape:window-width="1024"
     inkscape:window-height="714"
     inkscape:window-x="-4"
     inkscape:window-y="-4"
     inkscape:window-maximized="1" />
  <metadata
     id="metadata3596">
    <rdf:RDF>
      <cc:Work
         rdf:about="">
        <dc:format>image/svg+xml</dc:format>
        <dc:type
           rdf:resource="http://purl.org/dc/dcmitype/StillImage" />
        <dc:title></dc:title>
      </cc:Work>
    </rdf:RDF>
  </metadata>
  <g
     inkscape:label="Layer 1"
     inkscape:groupmode="layer"
     id="layer1"
     transform="translate(-209.08289,-489.18659)">
    <g
       transform="matrix(1.0085283,0,0,-1.0085283,128.93813,1263.0618)"
       id="g3530">
      <g
         transform="translate(200.3669,745.6243)"
         id="g20">
        <path
           inkscape:connector-curvature="0"
           id="path22"
           style="fill:#04517d;fill-opacity:1;fill-rule:nonzero;stroke:none"
           d="m 0,0 c -3.937,0 -7.265,-1.316 -9.835,-3.806 l 0,16.055 -5.874,0 0,-47.098 5.874,0 0,19.508 c 0,5.628 3.956,9.712 9.406,9.712 5.315,0 8.488,-3.448 8.488,-9.223 l 0,-19.997 5.872,0 0,20.548 C 13.931,-5.748 8.333,0 0,0" />
      </g>
      <g
         transform="translate(222.8537,721.5842)"
         id="g24">
        <path
           inkscape:connector-curvature="0"
           id="path26"
           style="fill:#04517d;fill-opacity:1;fill-rule:nonzero;stroke:none"
           d="m 0,0 c 0,3.664 3.312,5.854 8.856,5.854 3.772,0 6.795,-0.551 9.161,-1.109 l 0,-2.417 c 0,-4.666 -4.466,-8.182 -10.387,-8.182 -3.792,0 -7.63,1.97 -7.63,5.731 L 0,0 z m 9.285,23.794 c -4.934,0 -8.678,-1.429 -11.693,-2.83 l -1.255,-0.58 2.236,-5.341 1.38,0.707 c 3.145,1.606 6.052,2.354 9.147,2.354 3.936,0 8.597,-1.352 8.833,-7.63 -2.346,0.531 -5.12,0.947 -8.895,0.947 -9.171,0 -15.095,-4.557 -15.095,-11.607 l 0,-0.121 c 0,-7.298 6.957,-11.237 13.505,-11.237 4.869,0 8.253,1.806 10.507,3.733 l 0,-2.999 5.813,0 0,20.916 c 0,8.572 -5.414,13.688 -14.483,13.688" />
      </g>
      <g
         transform="translate(255.8921,739.5764)"
         id="g28">
        <path
           inkscape:connector-curvature="0"
           id="path30"
           style="fill:#04517d;fill-opacity:1;fill-rule:nonzero;stroke:none"
           d="m 0,0 0,5.313 -5.874,0 0,-34.115 5.874,0 0,14.239 c 0,9.799 6.077,14.184 12.099,14.184 l 1.744,0 0,6.172 -1.379,0 C 7.725,5.793 3.176,3.799 0,0" />
      </g>
      <g
         transform="translate(286.287,715.9132)"
         id="g32">
        <path
           inkscape:connector-curvature="0"
           id="path34"
           style="fill:#04517d;fill-opacity:1;fill-rule:nonzero;stroke:none"
           d="m 0,0 c -3.328,0 -4.811,1.427 -4.811,4.63 l 0,18.655 10.964,0 0,6.172 -10.964,0 0,9.504 -5.874,0 0,-9.504 -3.962,0 0,-6.172 3.962,0 0,-18.962 c 0,-6.177 3.906,-10.013 10.197,-10.013 2.08,0 3.834,0.382 5.685,1.236 l 0.833,0.386 0,5.953 L 4.008,0.978 C 2.419,0.265 1.332,0 0,0" />
      </g>
      <g
         transform="translate(308.1967,739.9945)"
         id="g36">
        <path
           inkscape:connector-curvature="0"
           id="path38"
           style="fill:#04517d;fill-opacity:1;fill-rule:nonzero;stroke:none"
           d="m 0,0 c 6.016,0 8.84,-4.538 9.595,-9.255 l -19.433,0 C -8.815,-3.819 -4.887,0 0,0 m 0.122,5.629 c -9.117,0 -16.258,-7.789 -16.258,-17.731 l 0,-0.12 c 0,-10.11 7.199,-17.732 16.749,-17.732 7.171,0 11.24,3.389 13.976,6.34 l 1.003,1.079 -4.235,3.735 -0.951,-1.02 c -2.832,-3.033 -5.903,-4.444 -9.67,-4.444 -4.494,0 -9.509,2.971 -10.627,9.442 l 25.647,0 0.065,1.259 0.071,1.278 0,0.12 c 0,10.478 -6.484,17.794 -15.77,17.794" />
      </g>
      <g
         transform="translate(345.5395,745.3784)"
         id="g40">
        <path
           inkscape:connector-curvature="0"
           id="path42"
           style="fill:#04517d;fill-opacity:1;fill-rule:nonzero;stroke:none"
           d="m 0,0 c -4.769,0.189 -9.289,-2.004 -12.466,-5.802 l 0,5.312 -5.874,0 0,-34.113 5.874,0 0,14.238 c 0,9.799 6.079,14.184 12.104,14.184 l 1.74,0 0,6.126 L 0,0 z" />
      </g>
      <g
         transform="translate(177.4718,719.6595)"
         id="g44">
        <path
           inkscape:connector-curvature="0"
           id="path46"
           style="fill:#04517d;fill-opacity:1;fill-rule:nonzero;stroke:none"
           d="m 0,0 c -3.114,-2.589 -6.184,-3.742 -9.955,-3.742 -8.405,0 -14.989,7.792 -14.989,17.739 0,10.042 6.444,17.613 14.989,17.613 3.611,0 6.562,-1.067 9.57,-3.462 l 1.004,-0.798 4.335,4.336 -1.196,1.008 c -2.459,2.071 -6.551,4.826 -13.654,4.826 -12.005,0 -21.061,-10.167 -21.061,-23.649 0,-13.411 8.981,-23.522 20.888,-23.522 7.253,0 11.486,3.08 14.039,5.397 L 5.087,-3.24 1.007,0.839 0,0 z" />
      </g>
      <g
         transform="translate(102.3881,735.6392)"
         id="g48">
        <path
           inkscape:connector-curvature="0"
           id="path50"
           style="fill:#6ec72e;fill-opacity:1;fill-rule:nonzero;stroke:none"
           d="m 0,0 c 2.386,0.499 4.67,1.266 6.927,1.973 2.464,0.772 4.906,1.391 7.302,1.741 l 1.624,5.073 C 14.845,8.832 13.824,8.817 12.793,8.728 7.552,8.283 2.483,5.377 -3.195,4.486 -4.081,4.346 -4.967,4.262 -5.859,4.224 -10.71,4.048 -15.612,5.452 -19.932,8.41 c -0.246,0.171 -0.58,0.266 -0.803,0.114 -0.22,-0.145 -0.329,-0.395 0.031,-0.902 C -15.676,0.494 -7.6,-1.598 0,0" />
      </g>
      <g
         transform="translate(127.2316,742.3198)"
         id="g52">
        <path
           inkscape:connector-curvature="0"
           id="path54"
           style="fill:#6ec72e;fill-opacity:1;fill-rule:nonzero;stroke:none"
           d="m 0,0 -1.152,-3.314 c 2.109,-0.597 4.695,-2.007 6.544,-3.123 1.048,-0.68 2.007,-1.4 2.007,-1.4 0.156,-0.111 0.292,-0.058 0.353,0.073 C 7.8,-7.667 7.803,-7.529 7.739,-7.393 6.573,-5.045 3.933,-1.79 0,0" />
      </g>
      <g
         transform="translate(137.4032,726.8167)"
         id="g56">
        <path
           inkscape:connector-curvature="0"
           id="path58"
           style="fill:#6ec72e;fill-opacity:1;fill-rule:nonzero;stroke:none"
           d="m 0,0 c -1.246,2.372 -4.159,5.718 -8.505,7.309 -1.322,0.483 -2.699,0.878 -4.113,1.163 L -14.016,4.45 c 1.631,0 3.233,-0.156 4.797,-0.511 2.158,-0.488 4.931,-1.924 6.883,-3.044 1.042,-0.641 1.999,-1.324 1.999,-1.324 0.155,-0.098 0.292,-0.053 0.349,0.075 C 0.062,-0.262 0.064,-0.131 0,0" />
      </g>
      <g
         transform="translate(105.0303,727.3528)"
         id="g60">
        <path
           inkscape:connector-curvature="0"
           id="path62"
           style="fill:#6ec72e;fill-opacity:1;fill-rule:nonzero;stroke:none"
           d="M 0,0 C 2.37,0.488 4.634,1.226 6.874,1.907 7.418,2.072 7.962,2.232 8.506,2.38 l 1.8,5.617 C 5.926,7.1 1.586,4.993 -3.19,4.256 -4.07,4.117 -4.951,4.034 -5.837,3.997 -10.655,3.806 -15.53,5.118 -19.832,7.912 -20.079,8.076 -20.409,8.163 -20.631,8.02 -20.85,7.878 -20.958,7.644 -20.598,7.161 -15.573,0.405 -7.543,-1.548 0,0" />
      </g>
      <g
         transform="translate(129.0529,764.8401)"
         id="g64">
        <path
           inkscape:connector-curvature="0"
           id="path66"
           style="fill:#04517d;fill-opacity:1;fill-rule:evenodd;stroke:none"
           d="m 0,0 -25.667,-5.639 c -3.582,-0.786 -7.351,-4.308 -8.376,-7.829 l -2.662,-9.138 c 0.008,-0.002 0.018,-0.002 0.025,-0.003 0.008,-0.002 0.016,-0.002 0.024,-0.003 0.009,-0.002 0.017,-0.002 0.025,-0.004 0.008,-0.001 0.017,-0.001 0.025,-0.003 0.007,-0.001 0.015,-0.001 0.025,-0.004 0.006,-0.002 0.015,-0.002 0.023,-0.004 0.009,-0.001 0.016,-0.001 0.025,-0.003 0.008,0 0.017,-0.001 0.023,-0.003 0.01,-0.001 0.018,-0.003 0.025,-0.004 0.008,0 0.017,-0.002 0.025,-0.004 0.01,0 0.016,-0.001 0.024,-0.001 l 0,-0.002 c 0.009,0 0.017,-0.001 0.025,-0.001 0.007,-0.003 0.015,-0.003 0.023,-0.005 0.009,-0.001 0.017,-0.001 0.025,-0.001 l 0,-0.002 c 0.008,-0.002 0.017,-0.002 0.025,-0.005 0.008,0 0.017,-10e-4 0.025,-0.003 0.008,0 0.015,-10e-4 0.023,-10e-4 l 0,-0.002 0.014,0 c 0.005,0 0.008,-10e-4 0.013,-10e-4 l -0.002,0 c 0.01,-0.002 0.017,-0.004 0.025,-0.005 l -10e-4,0 c 0.009,-0.002 0.018,-0.002 0.026,-0.003 0.008,-0.002 0.016,-0.002 0.023,-0.003 0.008,0 0.018,0 0.025,-0.002 l 0,-0.002 c 0.008,-0.001 0.018,-0.001 0.024,-0.003 0.009,-0.001 0.017,-0.001 0.025,-0.003 0.008,-0.001 0.015,-0.001 0.025,-0.003 0.008,-0.003 0.015,-0.003 0.023,-0.003 l 0,-0.002 c 0.009,-0.001 0.017,-0.001 0.025,-0.001 l 0,-0.002 c 0.008,-0.001 0.017,-0.001 0.023,-0.001 0.01,-0.003 0.018,-0.003 0.025,-0.003 l 0,-0.003 c 0.008,0 0.018,0 0.025,-0.002 0.008,-0.002 0.016,-0.002 0.024,-0.003 0.009,0 0.017,-0.002 0.025,-0.003 l 0,-0.002 c 0.009,0 0.017,0 0.025,-0.001 0.007,-0.002 0.017,-0.004 0.025,-0.004 0.007,-10e-4 0.015,-10e-4 0.025,-0.003 l -0.002,0 c 0.008,-0.003 0.017,-0.003 0.025,-0.004 0.008,-0.002 0.016,-0.002 0.025,-0.003 l -0.002,0 c 0.01,-0.002 0.017,-0.002 0.025,-0.004 l -10e-4,0 c 0.009,-0.001 0.017,-0.001 0.025,-0.003 l 0,-10e-4 0.025,-0.002 0,-10e-4 c 0.007,0 0.015,0 0.025,-0.002 0.007,-10e-4 0.015,-0.003 0.023,-0.003 l 0,-0.002 c 0.009,-0.001 0.017,-0.001 0.025,-0.003 0.008,-0.001 0.017,-0.001 0.023,-0.003 0.008,-0.001 0.017,-0.001 0.027,-0.005 0.006,0 0.014,-0.001 0.023,-0.003 0.008,0 0.016,-0.001 0.024,-0.001 l 0,-0.002 c 0.009,0 0.017,-0.001 0.025,-0.001 l 0,-0.002 c 0.007,-0.001 0.017,-0.003 0.024,-0.003 0.008,-0.002 0.016,-0.003 0.025,-0.003 0.007,-0.002 0.016,-0.002 0.024,-0.002 l 0,-0.001 c 0.012,0 0.023,-0.005 0.037,-0.005 0.006,0 0.013,-0.001 0.021,-0.003 l 0,0.002 c 0.006,-0.002 0.012,-0.002 0.02,-0.002 0.006,0 0.012,0 0.02,-0.002 l 0,0.002 c 0.006,-0.002 0.014,-0.002 0.019,-0.003 l 0,10e-4 c 0.008,-10e-4 0.014,-10e-4 0.02,-10e-4 0.008,0 0.014,-0.003 0.02,-0.003 0.008,0 0.014,-0.002 0.022,-0.002 l 0,0.002 c 0.006,-0.002 0.013,-0.003 0.02,-0.003 l 0,10e-4 c 0.007,-10e-4 0.013,-10e-4 0.019,-10e-4 l 0.002,0 c 0.004,0 0.012,-0.002 0.018,-0.002 0.007,0 0.014,-10e-4 0.021,-10e-4 0.007,0 0.014,-0.002 0.02,-0.002 l 0,0.002 c 0.008,-0.002 0.014,-0.002 0.02,-0.004 l 0,0.002 c 0.008,-0.002 0.013,-0.003 0.02,-0.003 l 0,10e-4 c 0.007,-10e-4 0.015,-10e-4 0.021,-0.003 l 10e-4,0.002 c 0.005,-0.002 0.013,-0.002 0.017,-0.003 l 0.002,10e-4 c 0.006,-10e-4 0.014,-0.003 0.019,-0.003 l 0,0.002 c 0.008,-0.002 0.014,-0.002 0.022,-0.002 0.006,0 0.012,0 0.018,-10e-4 l 0.002,10e-4 c 0.006,0 0.012,-10e-4 0.02,-10e-4 0.006,0 0.013,-0.002 0.02,-0.002 0.007,0 0.013,0 0.019,-0.003 l 0,0.003 c 0.008,0 0.014,-0.003 0.022,-0.005 l 0,0.002 c 0.006,-0.002 0.011,-0.002 0.019,-0.003 l 0,0.001 0.02,-0.001 10e-4,0 c 0.005,0 0.013,-0.002 0.019,-0.002 0.008,0 0.014,-0.001 0.02,-0.001 l 0.002,0.001 c 0.006,-0.001 0.014,-0.001 0.019,-0.001 0.008,0 0.012,-0.002 0.02,-0.002 0.008,0 0.012,-0.001 0.02,-0.001 0.007,0 0.014,-0.002 0.021,-0.004 l 10e-4,0.002 c 0.005,-0.002 0.011,-0.002 0.019,-0.003 l 0,0.001 c 0.005,0 0.008,0 0.011,-0.001 l 0.008,0 c 0.006,-0.002 0.01,-0.002 0.017,-0.002 l 0.003,0 10e-4,0 c 0.008,0 0.013,-0.001 0.021,-0.001 0.014,0 0.025,-0.002 0.039,-0.003 l 10e-4,0.001 c 0.006,0 0.013,-0.001 0.019,-0.001 0.008,0 0.015,-0.003 0.022,-0.003 l 0,0.001 c 0.006,-0.001 0.012,-0.003 0.018,-0.003 l 0.002,0.002 c 0.012,-0.002 0.027,-0.004 0.041,-0.004 0.018,0 0.039,-0.003 0.059,-0.004 l 0,0.001 c 0.014,0 0.028,-0.003 0.04,-0.003 0.021,-0.001 0.041,-0.004 0.061,-0.004 0.008,0 0.013,-0.002 0.02,-0.002 l 2.026,6.804 c 0.778,2.618 3.627,5.085 6.331,5.484 l 14.602,2.733 c 1.991,0.292 3.342,-0.609 3.585,-2.144 0.048,-0.6 -0.015,-1.235 -0.215,-1.862 l -12.29,-38.382 c -0.079,-0.253 -0.176,-0.494 -0.277,-0.731 -0.005,-0.013 -0.011,-0.024 -0.016,-0.036 -1.066,-2.026 -3.41,-2.749 -5.56,-1.577 l -10.241,5.722 c -2.406,1.309 -3.736,4.525 -2.958,7.141 l 0.574,1.929 c -0.122,0.06 -0.24,0.128 -0.362,0.192 -0.416,0.219 -0.826,0.448 -1.227,0.696 -0.125,0.075 -0.251,0.146 -0.376,0.224 l -1.216,-4.179 c -1.025,-3.521 0.67,-8.004 3.77,-9.966 l 16.151,-10.223 c 3.101,-1.96 6.619,-0.731 7.825,2.733 L 4.321,-4.867 C 5.525,-1.405 3.582,0.786 0,0" />
      </g>
    </g>
  </g>
</svg>
