<?xml version="1.0" encoding="UTF-8" standalone="no"?>
<!-- Created with Inkscape (http://www.inkscape.org/) by Marsupilami -->
<svg
   xmlns:svg="http://www.w3.org/2000/svg"
   xmlns="http://www.w3.org/2000/svg"
   version="1.0"
   width="1024"
   height="380"
   viewBox="0 0 182.05499 67.537498"
   id="svg9858">
  <defs
     id="defs9860" />
  <g
     transform="translate(-283.9725,-498.59343)"
     id="layer1">
    <path
       d="M 39.59375,4.59375 C 34.235,4.5937499 29.90625,8.95375 29.90625,14.3125 C 29.906251,19.67125 34.235,24 39.59375,24 C 44.95375,24 49.3125,19.67125 49.3125,14.3125 C 49.312498,8.9537502 44.95375,4.59375 39.59375,4.59375 z M 39.59375,7.125 C 43.5625,7.1250002 46.78125,10.345 46.78125,14.3125 C 46.781251,18.2825 43.5625,21.5 39.59375,21.5 C 35.625,21.500001 32.40625,18.2825 32.40625,14.3125 C 32.406252,10.345 35.625,7.125 39.59375,7.125 z M 0,51.53125 L 0,67.53125 L 168.3125,67.53125 L 168.3125,51.53125 L 0,51.53125 z"
       transform="translate(283.9725,498.59343)"
       id="path5328"
       style="fill:#0071bc;fill-opacity:1;fill-rule:nonzero;stroke:none" />
    <path
       d="M 148.5625,0 L 148.5625,5.0625 L 145,5.0625 L 145,7.46875 L 148.5625,7.46875 L 148.5625,18.75 C 148.5625,22.2425 150.19624,24.000001 153.5,24 C 155.29625,24 157.14124,23.57125 159,22.71875 L 158.5,20.5625 C 157.02,21.23875 155.545,21.59375 154.03125,21.59375 C 153.18,21.59375 152.49625,21.276249 152,20.65625 C 151.50125,20.03375 151.25,19.1575 151.25,18.03125 L 151.25,7.46875 L 157.53125,7.46875 L 157.53125,5.0625 L 151.25,5.0625 L 151.25,0 L 148.5625,0 z M 15.15625,4.625 C 12.31625,4.625 9.9962497,5.5137498 8.25,7.28125 C 6.505,9.05125 5.65625,11.37875 5.65625,14.3125 C 5.65625,17.2475 6.5162503,19.60625 8.25,21.375 C 9.9825,23.145 12.3075,24.031251 15.21875,24.03125 C 17.1475,24.03125 18.92125,23.672501 20.53125,22.9375 L 20.03125,20.71875 C 18.37375,21.32375 16.78125,21.625 15.21875,21.625 C 13.2425,21.625 11.6375,20.933751 10.40625,19.53125 C 9.175,18.12875 8.5624998,16.37125 8.5625,14.3125 C 8.5625,12.065 9.15375,10.2825 10.34375,8.96875 C 11.5325,7.655 13.1525,7.0000002 15.1875,7 C 16.53625,7 18.0375,7.2962501 19.71875,7.875 L 20.4375,5.59375 C 18.7575,4.94375 17.015,4.6250002 15.15625,4.625 z M 75.78125,4.625 L 70.28125,5.4375 C 69.249996,4.9050002 68.0925,4.65625 66.8125,4.65625 C 65.037498,4.6562501 63.55875,5.225 62.375,6.34375 C 61.192499,7.4624999 60.59375,8.885 60.59375,10.625 C 60.593751,11.68875 60.87375,12.69875 61.40625,13.65625 C 61.938749,14.615 62.69375,15.3975 63.6875,16 C 61.533752,17.12625 60.46875,18.32375 60.46875,19.625 C 60.468749,20.76 61.3,21.71875 62.96875,22.5 C 60.957499,23.51875 59.9375,24.77125 59.9375,26.25 C 59.937501,27.612501 60.60375,28.73625 61.90625,29.59375 C 63.2075,30.4525 64.88875,30.875 66.9375,30.875 C 69.4325,30.875001 71.59875,30.2425 73.46875,29 C 75.337497,27.75625 76.28125,26.095 76.28125,24 C 76.281246,22.675001 75.885,21.66 75.0625,20.9375 C 74.241247,20.21625 73.07375,19.84375 71.59375,19.84375 L 65.375,20.03125 C 64.68625,20.03125 64.1475,19.89125 63.75,19.65625 C 63.355001,19.41875 63.15625,19.15625 63.15625,18.8125 C 63.156251,18.172501 64.0225,17.43375 65.75,16.59375 C 66.093753,16.61875 66.4325,16.625 66.8125,16.625 C 68.611248,16.625 70.1075,16.035 71.28125,14.875 C 72.451251,13.715 73.03125,12.305 73.03125,10.625 C 73.031253,9.3575 72.78375,8.2475 72.25,7.3125 L 75.78125,7.3125 L 75.78125,4.625 z M 96.875,4.625 C 94.482499,4.6250002 92.53875,5.50375 91.03125,7.25 C 89.522497,8.9949999 88.75,11.31375 88.75,14.25 C 88.750002,17.2425 89.60125,19.64375 91.28125,21.40625 C 92.961248,23.16875 95.19125,24.03125 97.9375,24.03125 C 100.115,24.031251 101.99375,23.6725 103.625,22.9375 L 103.15625,20.71875 C 101.37,21.323751 99.65125,21.625 97.96875,21.625 C 96.206253,21.625 94.71375,20.955 93.5,19.59375 C 92.2875,18.233751 91.6875,16.50125 91.6875,14.40625 L 104.375,14.40625 L 104.375,13.53125 C 104.375,10.8325 103.65125,8.68375 102.21875,7.0625 C 100.78625,5.4399999 99.00625,4.625 96.875,4.625 z M 126.84375,4.625 C 124.6425,4.625 122.54875,5.6762499 120.5625,7.78125 L 120.5625,5.0625 L 117.78125,5.0625 L 117.78125,23.5625 L 120.5625,23.5625 L 120.5625,10.15625 C 122.50125,8.05 124.305,7.0000002 126,7 C 127.125,7 127.9425,7.3862498 128.46875,8.125 C 128.99625,8.865 129.28124,10.0425 129.28125,11.6875 L 129.28125,23.5625 L 132.03125,23.5625 L 132.03125,10.90625 C 132.03125,6.7175 130.31,4.6250002 126.84375,4.625 z M 66.8125,6.84375 C 67.866248,6.8437502 68.7175,7.16875 69.34375,7.84375 C 69.972501,8.5187499 70.28125,9.46125 70.28125,10.65625 C 70.281246,11.7925 69.95875,12.70375 69.3125,13.40625 C 68.668746,14.11125 67.83125,14.46875 66.8125,14.46875 C 65.829998,14.46875 65.0125,14.1225 64.34375,13.40625 C 63.674998,12.69125 63.34375,11.76875 63.34375,10.65625 C 63.34375,9.5200001 63.675,8.60875 64.34375,7.90625 C 65.012498,7.2024999 65.83,6.84375 66.8125,6.84375 z M 96.96875,7 C 98.080001,7.0000002 99.10125,7.51125 100,8.5 C 100.90125,9.4887504 101.34375,10.71375 101.34375,12.15625 L 91.84375,12.15625 C 91.95125,10.63125 92.49625,9.38375 93.4375,8.4375 C 94.378749,7.4912501 95.53625,7 96.96875,7 z M 70.78125,22.65625 C 72.60375,22.65625 73.5,23.27 73.5,24.5 C 73.500001,25.696251 72.8775,26.68875 71.59375,27.5 C 70.308747,28.31125 68.75875,28.71875 66.9375,28.71875 C 65.62375,28.718751 64.555,28.45125 63.75,27.9375 C 62.944999,27.422501 62.53125,26.815 62.53125,26.09375 C 62.531252,25.632499 62.6775,25.18125 62.96875,24.75 C 63.25625,24.3175 63.69875,23.895 64.25,23.46875 C 64.800002,23.0425 65.2075,22.84375 65.46875,22.84375 C 66.001248,22.84375 66.72,22.7975 67.65625,22.75 C 69.134999,22.678749 70.1775,22.65625 70.78125,22.65625 z M 85.6875,28.9375 C 84.86875,28.9375 84.275001,29.2175 83.875,29.78125 C 83.475,30.345 83.281249,31.127498 83.28125,32.125 C 83.28125,33.15625 83.461247,33.92375 83.875,34.46875 C 84.28875,35.0125 84.895,35.281249 85.6875,35.28125 C 86.32375,35.28125 86.893747,35.115 87.375,34.78125 L 87.15625,34.21875 C 86.65875,34.50875 86.16125,34.656252 85.6875,34.65625 C 84.5725,34.65625 84.03125,33.827498 84.03125,32.125 C 84.03125,31.23875 84.162502,30.56625 84.4375,30.15625 C 84.71375,29.74625 85.12375,29.5625 85.6875,29.5625 C 86.175,29.5625 86.6225,29.675 87.03125,29.90625 L 87.28125,29.34375 C 87.10375,29.22 86.852497,29.1075 86.5625,29.03125 C 86.2725,28.955 85.985,28.9375 85.6875,28.9375 z M 92.6875,28.9375 C 91.999997,28.9375 91.4525,29.20625 91.09375,29.75 C 90.734997,30.296251 90.5625,31.09125 90.5625,32.125 C 90.562496,33.158748 90.73375,33.92375 91.09375,34.46875 C 91.453752,35.011252 92.00375,35.28125 92.6875,35.28125 C 93.377497,35.281249 93.89,35.0125 94.25,34.46875 C 94.608752,33.92375 94.78125,33.15625 94.78125,32.125 C 94.781253,31.088748 94.61,30.29375 94.25,29.75 C 93.888747,29.2075 93.37375,28.9375 92.6875,28.9375 z M 136.78125,28.9375 C 135.9625,28.9375 135.36875,29.2175 134.96875,29.78125 C 134.56875,30.345 134.375,31.127498 134.375,32.125 C 134.375,33.15625 134.55625,33.92375 134.96875,34.46875 C 135.3825,35.0125 135.98875,35.281249 136.78125,35.28125 C 137.41625,35.28125 137.9875,35.115 138.46875,34.78125 L 138.25,34.21875 C 137.75375,34.50875 137.255,34.656252 136.78125,34.65625 C 135.66625,34.65625 135.125,33.827498 135.125,32.125 C 135.125,31.23875 135.25625,30.56625 135.53125,30.15625 C 135.8075,29.74625 136.2175,29.5625 136.78125,29.5625 C 137.2675,29.5625 137.71625,29.675 138.125,29.90625 L 138.375,29.34375 C 138.1975,29.22 137.9775,29.1075 137.6875,29.03125 C 137.39625,28.955 137.07875,28.9375 136.78125,28.9375 z M 165.65625,28.9375 C 164.97125,28.9375 164.4525,29.20625 164.09375,29.75 C 163.73501,30.296251 163.5625,31.09125 163.5625,32.125 C 163.5625,33.158748 163.7325,33.92375 164.09375,34.46875 C 164.455,35.011252 164.9725,35.28125 165.65625,35.28125 C 166.3475,35.281249 166.89125,35.0125 167.25,34.46875 C 167.60875,33.92375 167.78125,33.15625 167.78125,32.125 C 167.78125,31.088748 167.61125,30.29375 167.25,29.75 C 166.88876,29.2075 166.345,28.9375 165.65625,28.9375 z M 180.125,28.9375 C 179.74226,28.990527 179.43,29.130938 179.15625,29.34375 C 178.79125,29.6275 178.59375,30.025 178.59375,30.53125 C 178.59375,30.7225 178.61625,30.901251 178.6875,31.0625 C 178.75875,31.22625 178.87375,31.37 179,31.5 C 179.12875,31.63 179.24624,31.736249 179.375,31.8125 C 179.505,31.885 179.81,32.01625 180.25,32.21875 C 180.67875,32.41375 180.96625,32.62375 181.125,32.8125 C 181.28375,33.0025 181.34375,33.228749 181.34375,33.5 C 181.34375,33.86875 181.24374,34.165001 181,34.375 C 180.755,34.585 180.40625,34.6875 180,34.6875 C 179.6525,34.6875 179.24875,34.58625 178.78125,34.375 L 178.65625,34.96875 C 179.0525,35.1775 179.505,35.281249 180.03125,35.28125 C 180.57625,35.28125 181.03625,35.140001 181.4375,34.8125 C 181.83875,34.48375 182.06251,34.002499 182.0625,33.40625 C 182.0625,33.165 181.99625,32.94375 181.90625,32.75 C 181.81375,32.5575 181.71249,32.391249 181.5625,32.25 C 181.41125,32.10875 181.23875,32.017501 181.09375,31.9375 C 180.9475,31.85625 180.67124,31.7075 180.21875,31.5 C 179.6075,31.21875 179.28125,30.869999 179.28125,30.5 C 179.28125,30.18625 179.42125,29.95 179.65625,29.78125 C 179.88875,29.6125 180.19125,29.531249 180.5625,29.53125 C 180.88625,29.53125 181.23,29.593749 181.59375,29.71875 L 181.75,29.125 C 181.34625,29 180.94,28.9375 180.53125,28.9375 C 180.39187,28.9375 180.25258,28.919824 180.125,28.9375 z M 98.0625,29.03125 L 98.0625,35.1875 L 98.75,35.1875 L 98.75,29.90625 L 99.6875,32.4375 L 100.34375,32.4375 L 101.28125,29.90625 L 101.28125,35.1875 L 101.96875,35.1875 L 101.96875,29.03125 L 101.03125,29.03125 L 100,31.84375 L 99,29.03125 L 98.0625,29.03125 z M 105.375,29.03125 L 105.375,35.1875 L 106.0625,35.1875 L 106.0625,29.90625 L 106.96875,32.4375 L 107.65625,32.4375 L 108.5625,29.90625 L 108.5625,35.1875 L 109.25,35.1875 L 109.25,29.03125 L 108.34375,29.03125 L 107.3125,31.84375 L 106.28125,29.03125 L 105.375,29.03125 z M 112.8125,29.03125 L 112.8125,33.25 C 112.8125,34.60375 113.40875,35.281249 114.59375,35.28125 C 115.18375,35.28125 115.6175,35.139998 115.90625,34.8125 C 116.19375,34.485 116.34375,33.961251 116.34375,33.25 L 116.34375,29.03125 L 115.625,29.03125 L 115.625,33.1875 C 115.625,33.71 115.54125,34.08 115.375,34.3125 C 115.20875,34.54375 114.95125,34.656252 114.59375,34.65625 C 113.885,34.65625 113.53125,34.167502 113.53125,33.1875 L 113.53125,29.03125 L 112.8125,29.03125 z M 120.03125,29.03125 L 120.03125,35.1875 L 120.75,35.1875 L 120.75,30.34375 L 122.9375,35.1875 L 123.71875,35.1875 L 123.71875,29.03125 L 123.03125,29.03125 L 123.03125,33.84375 L 120.8125,29.03125 L 120.03125,29.03125 z M 127.75,29.03125 L 127.75,29.65625 L 128.8125,29.65625 L 128.8125,34.5625 L 127.75,34.5625 L 127.75,35.1875 L 130.53125,35.1875 L 130.53125,34.5625 L 129.53125,34.5625 L 129.53125,29.65625 L 130.53125,29.65625 L 130.53125,29.03125 L 127.75,29.03125 z M 143.375,29.03125 L 141.375,35.1875 L 142.09375,35.1875 L 142.78125,33.03125 L 144.8125,33.03125 L 145.46875,35.1875 L 146.21875,35.1875 L 144.21875,29.03125 L 143.375,29.03125 z M 148.84375,29.03125 L 148.84375,29.625 L 150.75,29.625 L 150.75,35.1875 L 151.4375,35.1875 L 151.4375,29.625 L 153.34375,29.625 L 153.34375,29.03125 L 148.84375,29.03125 z M 156.96875,29.03125 L 156.96875,29.65625 L 158.03125,29.65625 L 158.03125,34.5625 L 156.96875,34.5625 L 156.96875,35.1875 L 159.75,35.1875 L 159.75,34.5625 L 158.71875,34.5625 L 158.71875,29.65625 L 159.75,29.65625 L 159.75,29.03125 L 156.96875,29.03125 z M 171.125,29.03125 L 171.125,35.1875 L 171.84375,35.1875 L 171.84375,30.34375 L 174.03125,35.1875 L 174.84375,35.1875 L 174.84375,29.03125 L 174.125,29.03125 L 174.125,33.84375 L 171.9375,29.03125 L 171.125,29.03125 z M 92.6875,29.5625 C 93.589997,29.5625 94.03125,30.41875 94.03125,32.125 C 94.031251,33.827498 93.59,34.65625 92.6875,34.65625 C 92.242497,34.656252 91.885,34.4375 91.65625,34 C 91.428749,33.56625 91.3125,32.95625 91.3125,32.125 C 91.312498,31.302498 91.42875,30.66125 91.65625,30.21875 C 91.888748,29.777499 92.245,29.5625 92.6875,29.5625 z M 165.65625,29.5625 C 166.56375,29.5625 167.03125,30.41875 167.03125,32.125 C 167.03125,33.827498 166.56375,34.65625 165.65625,34.65625 C 165.215,34.656252 164.88375,34.4375 164.65625,34 C 164.42749,33.56625 164.3125,32.95625 164.3125,32.125 C 164.31249,31.302498 164.42625,30.66125 164.65625,30.21875 C 164.88751,29.777499 165.2175,29.5625 165.65625,29.5625 z M 143.78125,29.875 L 144.59375,32.40625 L 143,32.40625 L 143.78125,29.875 z"
       transform="translate(283.9725,498.59343)"
       id="path5330"
       style="fill:#231f20;fill-opacity:1;fill-rule:nonzero;stroke:none" />
    <path
       d="M 11.09375,55.03125 C 8.51375,55.03125 6.7812498,56.90625 6.78125,59.5 C 6.78125,62.09125 8.51375,63.937501 11.09375,63.9375 C 13.675,63.9375 15.40625,62.09125 15.40625,59.5 C 15.40625,56.90625 13.675,55.031249 11.09375,55.03125 z M 38.8125,55.25 L 38.8125,56.90625 L 41.1875,56.90625 L 41.1875,55.25 L 38.8125,55.25 z M 67.59375,55.25 L 67.59375,63.75 L 69.9375,63.75 L 69.9375,55.25 L 67.59375,55.25 z M 83.15625,55.25 L 83.15625,63.75 L 85.75,63.75 L 85.75,55.25 L 83.15625,55.25 z M 30.375,55.6875 L 30.375,57.5625 L 29.3125,57.5625 L 29.3125,59.03125 L 30.375,59.03125 L 30.375,61.96875 C 30.375,63.6575 31.468749,63.8125 32.46875,63.8125 C 32.9675,63.8125 33.491249,63.75 33.96875,63.75 L 33.96875,61.96875 C 33.78875,61.9925 33.617502,61.999998 33.4375,62 C 32.8425,62 32.71875,61.7275 32.71875,61.15625 L 32.71875,59.03125 L 33.96875,59.03125 L 33.96875,57.5625 L 32.71875,57.5625 L 32.71875,55.6875 L 30.375,55.6875 z M 102.875,55.6875 L 102.875,57.5625 L 101.8125,57.5625 L 101.8125,59.03125 L 102.875,59.03125 L 102.875,61.96875 C 102.875,63.6575 103.96875,63.8125 104.96875,63.8125 C 105.46875,63.8125 106.02375,63.75 106.5,63.75 L 106.5,61.96875 C 106.32125,61.9925 106.14875,61.999998 105.96875,62 C 105.375,62 105.21875,61.7275 105.21875,61.15625 L 105.21875,59.03125 L 106.5,59.03125 L 106.5,57.5625 L 105.21875,57.5625 L 105.21875,55.6875 L 102.875,55.6875 z M 154.96875,55.6875 L 154.96875,57.5625 L 153.90625,57.5625 L 153.90625,59.03125 L 154.96875,59.03125 L 154.96875,61.96875 C 154.96875,63.6575 156.0625,63.8125 157.0625,63.8125 C 157.56,63.8125 158.08499,63.75 158.5625,63.75 L 158.5625,61.96875 C 158.3825,61.9925 158.20875,61.999998 158.03125,62 C 157.435,62 157.3125,61.7275 157.3125,61.15625 L 157.3125,59.03125 L 158.5625,59.03125 L 158.5625,57.5625 L 157.3125,57.5625 L 157.3125,55.6875 L 154.96875,55.6875 z M 11.09375,57.15625 C 11.76,57.15625 12.78125,57.60875 12.78125,59.5 C 12.78125,61.39 11.76,61.812502 11.09375,61.8125 C 10.42875,61.8125 9.4062502,61.39 9.40625,59.5 C 9.40625,57.60875 10.42875,57.156249 11.09375,57.15625 z M 23.65625,57.40625 C 22.5025,57.40625 22.1425,57.8575 21.84375,58.25 L 21.84375,57.5625 L 19.5625,57.5625 L 19.5625,65.75 L 21.90625,65.75 L 21.90625,63.0625 L 21.9375,63.0625 C 22.29375,63.58625 22.925001,63.906248 23.625,63.90625 C 25.695,63.90625 26.25,62.138748 26.25,60.6875 C 26.25,59.14125 25.40375,57.40625 23.65625,57.40625 z M 48.46875,57.40625 C 46.61375,57.40625 45.125001,58.704999 45.125,60.65625 C 45.125,62.60625 46.613748,63.906248 48.46875,63.90625 C 50.13375,63.90625 51.461249,62.959998 51.6875,61.28125 L 49.4375,61.28125 C 49.39,61.77 49.011252,62.187498 48.5,62.1875 C 47.595,62.1875 47.468752,61.404999 47.46875,60.65625 C 47.46875,59.90625 47.595002,59.125001 48.5,59.125 C 48.74875,59.125 48.951252,59.1825 49.09375,59.3125 C 49.24875,59.445 49.351251,59.657499 49.375,59.90625 L 51.59375,59.90625 C 51.45125,58.20625 50.086248,57.40625 48.46875,57.40625 z M 59.5625,57.40625 C 58.0975,57.40625 56.444999,57.702498 56.375,59.4375 L 58.5625,59.4375 C 58.57375,59.17625 58.711252,58.812498 59.4375,58.8125 C 59.8175,58.8125 60.218749,58.957501 60.21875,59.375 C 60.21875,59.7675 59.882499,59.845002 59.5625,59.90625 C 58.36125,60.1325 56.09375,60.078751 56.09375,62.03125 C 56.09375,63.32625 57.091249,63.906248 58.28125,63.90625 C 59.0425,63.90625 59.750001,63.727501 60.25,63.15625 L 60.28125,63.15625 C 60.26875,63.3225 60.313749,63.58125 60.375,63.75 L 62.75,63.75 C 62.48875,63.35625 62.468749,62.808752 62.46875,62.34375 L 62.46875,59.8125 C 62.46875,58.62375 62.511248,57.40625 59.5625,57.40625 z M 95.1875,57.40625 C 94.2475,57.40625 93.629997,57.723752 93.1875,58.34375 L 93.15625,58.34375 L 93.15625,57.5625 L 90.875,57.5625 L 90.875,63.75 L 93.25,63.75 L 93.25,60.46875 C 93.25,59.4825 93.783747,59.281249 94.1875,59.28125 C 94.8775,59.28125 94.937499,59.787501 94.9375,60.5 L 94.9375,63.75 L 97.3125,63.75 L 97.3125,59.5 C 97.3125,58.08625 96.295002,57.40625 95.1875,57.40625 z M 114.0625,57.40625 C 112.11125,57.40625 110.78125,58.858752 110.78125,60.65625 C 110.78125,62.71375 112.27375,63.906248 114.25,63.90625 C 115.65375,63.90625 116.96125,63.27125 117.4375,61.9375 L 115.21875,61.9375 C 115.02875,62.23625 114.63,62.375002 114.25,62.375 C 113.5125,62.375 113.09,61.89 113.03125,61.1875 L 117.5625,61.1875 C 117.5625,58.785 116.5125,57.40625 114.0625,57.40625 z M 126.375,57.40625 C 125.5175,57.40625 125.00625,57.824998 124.625,58.5625 L 124.625,57.5625 L 122.34375,57.5625 L 122.34375,63.75 L 124.71875,63.75 L 124.71875,61.3125 C 124.71875,59.99125 125.1975,59.437498 126.125,59.4375 C 126.60125,59.4375 126.82375,59.511251 127.0625,59.59375 L 127.0625,57.5 C 126.83625,57.44125 126.61375,57.40625 126.375,57.40625 z M 135.96875,57.40625 C 135.02875,57.40625 134.37875,57.723752 133.9375,58.34375 L 133.9375,57.5625 L 131.65625,57.5625 L 131.65625,63.75 L 134,63.75 L 134,60.46875 C 134,59.4825 134.53375,59.281249 134.9375,59.28125 C 135.6275,59.28125 135.71875,59.787501 135.71875,60.5 L 135.71875,63.75 L 138.0625,63.75 L 138.0625,59.5 C 138.0625,58.08625 137.07376,57.40625 135.96875,57.40625 z M 146.15625,57.40625 C 144.205,57.40625 142.90624,58.858752 142.90625,60.65625 C 142.90625,62.71375 144.4025,63.906248 146.375,63.90625 C 147.78,63.90625 149.08625,63.27125 149.5625,61.9375 L 147.34375,61.9375 C 147.155,62.23625 146.75625,62.375002 146.375,62.375 C 145.63625,62.375 145.215,61.89 145.15625,61.1875 L 149.6875,61.1875 C 149.6875,58.785 148.6075,57.40625 146.15625,57.40625 z M 38.8125,57.5625 L 38.8125,63.75 L 41.1875,63.75 L 41.1875,57.5625 L 38.8125,57.5625 z M 114.25,58.90625 C 114.8575,58.90625 115.28125,59.398748 115.28125,59.96875 L 113.0625,59.96875 C 113.1675,59.30375 113.54875,58.906252 114.25,58.90625 z M 146.375,58.90625 C 146.98,58.90625 147.40625,59.398748 147.40625,59.96875 L 145.1875,59.96875 C 145.29375,59.30375 145.67125,58.906252 146.375,58.90625 z M 22.875,59.125 C 23.71875,59.125 23.906249,59.918749 23.90625,60.65625 C 23.90625,61.38125 23.718751,62.187498 22.875,62.1875 C 22.03125,62.1875 21.843751,61.381249 21.84375,60.65625 C 21.84375,59.91875 22.031251,59.125001 22.875,59.125 z M 60.21875,60.96875 L 60.21875,61.53125 C 60.185,62.175 59.755,62.5 59.21875,62.5 C 58.78875,62.5 58.5,62.223751 58.5,61.9375 C 58.5,61.5225 58.75875,61.368752 59.28125,61.25 C 59.60375,61.17875 59.933749,61.110001 60.21875,60.96875 z"
       transform="translate(283.9725,498.59343)"
       id="path5370"
       style="fill:#ffffff;fill-opacity:1;fill-rule:nonzero;stroke:none" />
  </g>
</svg>
