<svg xmlns="http://www.w3.org/2000/svg" xmlns:xlink="http://www.w3.org/1999/xlink" viewBox="0 0 300 170.3">
  <defs>
    <linearGradient id="linear-gradient" x1="-921.77" y1="286.52" x2="-924.86" y2="286.14" gradientTransform="matrix(24.37, 0, 0, -34.92, 22541.28, 10062.92)" gradientUnits="userSpaceOnUse">
      <stop offset="0" stop-color="#457bbf"/>
      <stop offset="0.27" stop-color="#427ec1"/>
      <stop offset="0.51" stop-color="#3687c8"/>
      <stop offset="0.73" stop-color="#2195d1"/>
      <stop offset="0.95" stop-color="#06a8d5"/>
      <stop offset="0.99" stop-color="#00add8"/>
    </linearGradient>
    <linearGradient id="linear-gradient-2" x1="-885.89" y1="262.25" x2="-887.45" y2="260.58" gradientTransform="matrix(12.94, 0, 0, -12.62, 11528.69, 3328.08)" gradientUnits="userSpaceOnUse">
      <stop offset="0" stop-color="#bbc6d7"/>
      <stop offset="0.04" stop-color="#aec5d7"/>
      <stop offset="0.22" stop-color="#7abed7"/>
      <stop offset="0.4" stop-color="#4fb9d7"/>
      <stop offset="0.57" stop-color="#2cb3d7"/>
      <stop offset="0.73" stop-color="#0db0d8"/>
      <stop offset="0.88" stop-color="#02aed8"/>
      <stop offset="1" stop-color="#00add8"/>
    </linearGradient>
    <linearGradient id="linear-gradient-3" x1="-933.79" y1="287.22" x2="-936.29" y2="286.3" gradientTransform="matrix(35.99, 0, 0, -35.83, 33785, 10338.96)" xlink:href="#linear-gradient"/>
    <linearGradient id="linear-gradient-4" x1="-918.43" y1="254.07" x2="-918.68" y2="257.94" gradientTransform="matrix(23.09, 0, 0, -11.2, 21346.78, 2899.51)" gradientUnits="userSpaceOnUse">
      <stop offset="0" stop-color="#457bbf"/>
      <stop offset="0.05" stop-color="#3f7fc2"/>
      <stop offset="0.45" stop-color="#1a99d2"/>
      <stop offset="0.78" stop-color="#06a8d5"/>
      <stop offset="1" stop-color="#00add8"/>
    </linearGradient>
    <linearGradient id="linear-gradient-5" x1="-934.75" y1="274.75" x2="-931.93" y2="274.75" gradientTransform="matrix(34.02, 0, 0, -20.27, 31884.37, 5653.96)" gradientUnits="userSpaceOnUse">
      <stop offset="0" stop-color="#457bbf"/>
      <stop offset="0.18" stop-color="#437abd"/>
      <stop offset="0.37" stop-color="#3974ba"/>
      <stop offset="0.55" stop-color="#2c6ba7"/>
      <stop offset="0.73" stop-color="#1f5c8a"/>
      <stop offset="0.91" stop-color="#0b4966"/>
      <stop offset="1" stop-color="#003e52"/>
    </linearGradient>
    <linearGradient id="linear-gradient-6" x1="-922.85" y1="256.62" x2="-920.06" y2="256.62" gradientTransform="matrix(23.12, 0, 0, -12.23, 21338.82, 3232.26)" xlink:href="#linear-gradient-5"/>
    <linearGradient id="linear-gradient-7" x1="-934.78" y1="291.5" x2="-934.49" y2="290.02" gradientTransform="matrix(37.9, 0, 0, -49.23, 35663.05, 14382.01)" gradientUnits="userSpaceOnUse">
      <stop offset="0" stop-color="#00619d"/>
      <stop offset="0.07" stop-color="#3981b1"/>
      <stop offset="0.16" stop-color="#7daac7"/>
      <stop offset="0.24" stop-color="#b1c8da"/>
      <stop offset="0.29" stop-color="#d2dae5"/>
      <stop offset="0.33" stop-color="#dde1e9"/>
      <stop offset="0.4" stop-color="#ced9e4"/>
      <stop offset="0.53" stop-color="#a8c2d7"/>
      <stop offset="0.72" stop-color="#6b9ec1"/>
      <stop offset="0.94" stop-color="#166ea5"/>
      <stop offset="1" stop-color="#00619d"/>
    </linearGradient>
    <linearGradient id="linear-gradient-8" x1="-887.48" y1="-369.36" x2="-887.47" y2="-346" gradientTransform="matrix(14.71, 0, 0, -0.85, 13315.96, -192.71)" xlink:href="#linear-gradient-7"/>
    <linearGradient id="linear-gradient-9" x1="-934.59" y1="291.38" x2="-934.3" y2="289.92" gradientTransform="matrix(37.31, 0, 0, -48.78, 35087.13, 14244.29)" xlink:href="#linear-gradient-7"/>
    <linearGradient id="linear-gradient-10" x1="-903.99" y1="287.49" x2="-903.99" y2="290.18" gradientTransform="matrix(18.85, 0, 0, -41.26, 17308.73, 11972.48)" xlink:href="#linear-gradient-7"/>
    <linearGradient id="linear-gradient-11" x1="-934.49" y1="289.2" x2="-934.49" y2="291.9" gradientTransform="matrix(37.04, 0, 0, -48.38, 34828.26, 14126.37)" xlink:href="#linear-gradient-7"/>
    <linearGradient id="linear-gradient-12" x1="-906.07" y1="269.73" x2="-903.38" y2="269.73" gradientTransform="matrix(18.52, 0, 0, -17.59, 16972.64, 4855.19)" xlink:href="#linear-gradient-7"/>
    <linearGradient id="linear-gradient-13" x1="-926.61" y1="287.52" x2="-923.96" y2="286.59" gradientTransform="matrix(25.75, 0, 0, -36.48, 23871.11, 10536.14)" xlink:href="#linear-gradient-7"/>
    <linearGradient id="linear-gradient-14" x1="-891.32" y1="264.26" x2="-889.25" y2="262.34" gradientTransform="matrix(13.53, 0, 0, -13.86, 12099.16, 3713.86)" xlink:href="#linear-gradient-7"/>
    <linearGradient id="linear-gradient-15" x1="-937.06" y1="288.29" x2="-935.16" y2="286.38" gradientTransform="matrix(37.37, 0, 0, -37.27, 35114.82, 10772.75)" xlink:href="#linear-gradient-7"/>
    <linearGradient id="linear-gradient-16" x1="-891.29" y1="264.97" x2="-889.41" y2="263.06" gradientTransform="matrix(14.19, 0, 0, -14.12, 12761.56, 3792.73)" xlink:href="#linear-gradient-7"/>
    <linearGradient id="linear-gradient-17" x1="-904.09" y1="289.31" x2="-901.38" y2="289.31" gradientTransform="matrix(17.6, 0, 0, -43.87, 16074.42, 12768.51)" xlink:href="#linear-gradient-7"/>
    <linearGradient id="linear-gradient-18" x1="-906.83" y1="269.33" x2="-906.83" y2="266.64" gradientTransform="matrix(19.44, 0, 0, -14.97, 17867.12, 4032.81)" xlink:href="#linear-gradient-7"/>
    <linearGradient id="linear-gradient-19" x1="-935.09" y1="289.54" x2="-935.09" y2="292.24" gradientTransform="matrix(38.16, 0, 0, -49.89, 35910.64, 14579.52)" xlink:href="#linear-gradient-7"/>
    <linearGradient id="linear-gradient-20" x1="-935.61" y1="284.94" x2="-935.61" y2="289.76" gradientTransform="matrix(38.82, 0, 0, -36.16, 36543.22, 10438.3)" xlink:href="#linear-gradient"/>
    <linearGradient id="linear-gradient-21" x1="-937.9" y1="280.48" x2="-932.91" y2="280.48" gradientTransform="matrix(37.9, 0, 0, -25.63, 35656.23, 7269.04)" xlink:href="#linear-gradient-5"/>
  </defs>
  <title>Asset 18</title>
  <g id="Layer_2" data-name="Layer 2">
    <g id="Layer_1-2" data-name="Layer 1">
      <g id="Page-1">
        <g id="cox">
          <g id="Page-1-2" data-name="Page-1">
            <g id="Cox-2" data-name="Cox">
              <g id="Authorized-retailer">
                <path d="M53.19,163.22l2.8-7.71h0l2.75,7.71Zm1.64-9.7L48.39,170h2.25l1.85-5h7l1.81,5h2.43l-6.46-16.53ZM74.92,170v-12H73v6.76a4.85,4.85,0,0,1-.22,1.49,3.39,3.39,0,0,1-.66,1.19,2.93,2.93,0,0,1-1.1.79,4,4,0,0,1-1.56.28,2.41,2.41,0,0,1-1.78-.65,2.38,2.38,0,0,1-.65-1.76v-8.1H65v7.87a7.4,7.4,0,0,0,.2,1.77,3.35,3.35,0,0,0,.68,1.38,3.14,3.14,0,0,0,1.27.89,5.37,5.37,0,0,0,2,.31,4.78,4.78,0,0,0,2.29-.52,4,4,0,0,0,1.6-1.63h0V170Zm5.69-12v-3.59h-2v3.59h-2v1.74h2v7.61a4.55,4.55,0,0,0,.16,1.34,1.63,1.63,0,0,0,.5.79,1.92,1.92,0,0,0,.88.38,7.06,7.06,0,0,0,1.31.1H83v-1.74h-.9a6.56,6.56,0,0,1-.75,0,1,1,0,0,1-.45-.15.57.57,0,0,1-.22-.32,2.15,2.15,0,0,1-.06-.56v-7.43H83v-1.74Zm4.56-4.56V170h2v-6.76a4.85,4.85,0,0,1,.22-1.49A3.39,3.39,0,0,1,88,160.6a2.93,2.93,0,0,1,1.1-.79,4,4,0,0,1,1.56-.28,2.41,2.41,0,0,1,1.78.65,2.38,2.38,0,0,1,.65,1.76V170h2v-7.87a7.4,7.4,0,0,0-.2-1.77A3.35,3.35,0,0,0,94.2,159a3.23,3.23,0,0,0-1.27-.9,5.19,5.19,0,0,0-2-.32,5.49,5.49,0,0,0-1.1.12,4.86,4.86,0,0,0-1.09.36,3.68,3.68,0,0,0-.94.62,2.62,2.62,0,0,0-.65.94h0v-6.32Zm14.3,10.55a6,6,0,0,1,.29-1.93,4.17,4.17,0,0,1,.8-1.42,3.4,3.4,0,0,1,1.19-.88,3.63,3.63,0,0,1,2.89,0,3.4,3.4,0,0,1,1.19.88,4.17,4.17,0,0,1,.8,1.42,6.6,6.6,0,0,1,0,3.87,4,4,0,0,1-.8,1.41,3.46,3.46,0,0,1-1.19.87,3.63,3.63,0,0,1-2.89,0,3.46,3.46,0,0,1-1.19-.87,4,4,0,0,1-.8-1.41,6,6,0,0,1-.29-1.93Zm-2.08,0a7.86,7.86,0,0,0,.37,2.45,5.6,5.6,0,0,0,1.11,2,5.11,5.11,0,0,0,1.83,1.32,6.85,6.85,0,0,0,5,0,5.13,5.13,0,0,0,1.82-1.32,5.6,5.6,0,0,0,1.11-2,7.86,7.86,0,0,0,.37-2.45,8,8,0,0,0-.37-2.46,5.58,5.58,0,0,0-1.11-2,5.26,5.26,0,0,0-1.82-1.33,6.7,6.7,0,0,0-5,0,5.23,5.23,0,0,0-1.83,1.33,5.58,5.58,0,0,0-1.11,2,8,8,0,0,0-.37,2.46Zm13.86-6v12h2v-5.32a8.18,8.18,0,0,1,.23-2,3.93,3.93,0,0,1,.74-1.52,3.17,3.17,0,0,1,1.34-.95,5.56,5.56,0,0,1,2-.32V157.8a4.42,4.42,0,0,0-2.64.65,5.33,5.33,0,0,0-1.76,2.15h0v-2.52Zm9.86-2.15v-2.41h-2v2.41Zm-2,2.15v12h2v-12Zm4.05,10.46V170h10.09v-1.74h-7.64l7.31-8.89v-1.34h-9.3v1.74h6.76Zm20.39-5.62h-6.87a4.1,4.1,0,0,1,.3-1.31,3.49,3.49,0,0,1,.69-1.08,3.18,3.18,0,0,1,1.05-.73,3.43,3.43,0,0,1,1.38-.27,3.37,3.37,0,0,1,1.35.27,3.41,3.41,0,0,1,1.06.72,3.37,3.37,0,0,1,.72,1.08,4,4,0,0,1,.31,1.32Zm1.9,3.33h-1.94a2.8,2.8,0,0,1-1.05,1.76,3.41,3.41,0,0,1-2,.58,4.08,4.08,0,0,1-1.69-.32,3.31,3.31,0,0,1-1.18-.87,3.38,3.38,0,0,1-.67-1.25,4.75,4.75,0,0,1-.19-1.49h9a9.53,9.53,0,0,0-.2-2.29,6.63,6.63,0,0,0-.88-2.22,5.24,5.24,0,0,0-1.69-1.68,4.91,4.91,0,0,0-2.65-.66,5.44,5.44,0,0,0-2.26.46,5.3,5.3,0,0,0-1.78,1.3,6,6,0,0,0-1.17,2,7.2,7.2,0,0,0-.42,2.5,9.59,9.59,0,0,0,.41,2.52,5.51,5.51,0,0,0,1.08,2,4.9,4.9,0,0,0,1.77,1.3,6.15,6.15,0,0,0,2.49.46,5.43,5.43,0,0,0,3.38-1,4.78,4.78,0,0,0,1.74-3Zm3.66-2.08a7.87,7.87,0,0,1,.19-1.71,4.53,4.53,0,0,1,.6-1.48,3.13,3.13,0,0,1,1.11-1,3.38,3.38,0,0,1,1.69-.39,3.65,3.65,0,0,1,1.74.38,3.37,3.37,0,0,1,1.17,1,4.21,4.21,0,0,1,.66,1.45,7,7,0,0,1,0,3.34,4.31,4.31,0,0,1-.64,1.45,3.25,3.25,0,0,1-2.82,1.42,3.51,3.51,0,0,1-1.65-.37,3.29,3.29,0,0,1-1.16-1,4.4,4.4,0,0,1-.67-1.42,6.12,6.12,0,0,1-.22-1.63ZM158.4,170V153.52h-2v6.16h0a3.17,3.17,0,0,0-.8-.89,4.54,4.54,0,0,0-1-.58,5.05,5.05,0,0,0-1.06-.31,5.83,5.83,0,0,0-1-.09,5.45,5.45,0,0,0-2.4.5,4.92,4.92,0,0,0-1.71,1.34,5.67,5.67,0,0,0-1,2,8.44,8.44,0,0,0-.34,2.41,8.18,8.18,0,0,0,.35,2.41,6,6,0,0,0,1,2,5,5,0,0,0,1.71,1.37,5.4,5.4,0,0,0,2.42.51,5.83,5.83,0,0,0,2.29-.44,2.9,2.9,0,0,0,1.53-1.43h0V170Zm9.4-12v12h2v-5.32a8.18,8.18,0,0,1,.23-2,3.93,3.93,0,0,1,.74-1.52,3.17,3.17,0,0,1,1.34-.95,5.56,5.56,0,0,1,2-.32V157.8a4.42,4.42,0,0,0-2.64.65,5.33,5.33,0,0,0-1.76,2.15h0v-2.52Zm15.67,4.84h-6.87a4.1,4.1,0,0,1,.3-1.31,3.49,3.49,0,0,1,.69-1.08,3.18,3.18,0,0,1,1.05-.73,3.43,3.43,0,0,1,1.38-.27,3.37,3.37,0,0,1,1.35.27,3.41,3.41,0,0,1,1.06.72,3.37,3.37,0,0,1,.72,1.08,4,4,0,0,1,.31,1.32Zm1.9,3.33h-1.94a2.8,2.8,0,0,1-1.05,1.76,3.4,3.4,0,0,1-2,.58,4.07,4.07,0,0,1-1.69-.32,3.31,3.31,0,0,1-1.18-.87,3.38,3.38,0,0,1-.67-1.25,4.75,4.75,0,0,1-.19-1.49h9a9.53,9.53,0,0,0-.2-2.29,6.63,6.63,0,0,0-.88-2.22,5.24,5.24,0,0,0-1.69-1.68,4.91,4.91,0,0,0-2.65-.66,5.44,5.44,0,0,0-2.26.46,5.3,5.3,0,0,0-1.78,1.3,6,6,0,0,0-1.17,2,7.2,7.2,0,0,0-.42,2.5,9.59,9.59,0,0,0,.41,2.52,5.51,5.51,0,0,0,1.08,2,4.9,4.9,0,0,0,1.77,1.3,6.15,6.15,0,0,0,2.49.46,5.43,5.43,0,0,0,3.38-1,4.78,4.78,0,0,0,1.74-3Zm5-8.17v-3.59h-2v3.59h-2v1.74h2v7.61a4.55,4.55,0,0,0,.16,1.34,1.63,1.63,0,0,0,.5.79,1.92,1.92,0,0,0,.88.38,7.06,7.06,0,0,0,1.31.1h1.5v-1.74h-.9a6.56,6.56,0,0,1-.75,0,1,1,0,0,1-.45-.15.57.57,0,0,1-.22-.32,2.15,2.15,0,0,1-.06-.56v-7.43h2.38v-1.74ZM205.48,170v-1.53a2,2,0,0,1-.6.12q-.46,0-.54-.32a4.6,4.6,0,0,1-.08-1v-6.16a3.22,3.22,0,0,0-.39-1.69,2.77,2.77,0,0,0-1-1,4.2,4.2,0,0,0-1.45-.47,11.2,11.2,0,0,0-1.61-.12,8.42,8.42,0,0,0-1.9.21,4.66,4.66,0,0,0-1.6.68,3.51,3.51,0,0,0-1.11,1.24,4.25,4.25,0,0,0-.46,1.87h2a2,2,0,0,1,.9-1.79,4.16,4.16,0,0,1,2.08-.47,6.47,6.47,0,0,1,.94.07,2.54,2.54,0,0,1,.86.28,1.67,1.67,0,0,1,.62.6,2,2,0,0,1,.24,1,1.07,1.07,0,0,1-.32.84,2.14,2.14,0,0,1-.88.44,8.57,8.57,0,0,1-1.28.23q-.73.08-1.54.24t-1.49.35a4.19,4.19,0,0,0-1.3.61,3,3,0,0,0-.91,1.05,3.51,3.51,0,0,0-.35,1.67,3.47,3.47,0,0,0,.31,1.54,2.83,2.83,0,0,0,.86,1,3.44,3.44,0,0,0,1.26.58,6.48,6.48,0,0,0,1.53.17,6.23,6.23,0,0,0,2.33-.43,4.71,4.71,0,0,0,1.89-1.4,1.86,1.86,0,0,0,.45,1.4,1.69,1.69,0,0,0,1.22.43,2.78,2.78,0,0,0,1.41-.3Zm-3.19-6.13v2a2.22,2.22,0,0,1-.21.89,2.65,2.65,0,0,1-.65.88,3.51,3.51,0,0,1-1.13.67,4.66,4.66,0,0,1-1.67.27,4.1,4.1,0,0,1-.87-.09,2.13,2.13,0,0,1-.74-.3,1.64,1.64,0,0,1-.51-.54,1.6,1.6,0,0,1-.2-.82,1.85,1.85,0,0,1,.34-1.17,2.19,2.19,0,0,1,.87-.66,4.89,4.89,0,0,1,1.2-.34l1.33-.19q.66-.08,1.26-.21a2.45,2.45,0,0,0,1-.41Zm7.11-7.94v-2.41h-2v2.41Zm-2,2.15v12h2v-12Zm5.14-4.56V170h2V153.52Zm13.33,9.4H219a4.1,4.1,0,0,1,.3-1.31,3.49,3.49,0,0,1,.69-1.08,3.18,3.18,0,0,1,1.05-.73,3.43,3.43,0,0,1,1.38-.27,3.37,3.37,0,0,1,1.35.27,3.41,3.41,0,0,1,1.06.72,3.37,3.37,0,0,1,.72,1.08,4,4,0,0,1,.31,1.32Zm1.9,3.33h-1.94a2.8,2.8,0,0,1-1.05,1.76,3.4,3.4,0,0,1-2,.58,4.08,4.08,0,0,1-1.69-.32,3.31,3.31,0,0,1-1.18-.87,3.38,3.38,0,0,1-.67-1.25,4.75,4.75,0,0,1-.19-1.49h9a9.53,9.53,0,0,0-.2-2.29,6.63,6.63,0,0,0-.88-2.22,5.24,5.24,0,0,0-1.69-1.68,4.91,4.91,0,0,0-2.65-.66,5.44,5.44,0,0,0-2.26.46,5.3,5.3,0,0,0-1.78,1.3,6,6,0,0,0-1.17,2,7.2,7.2,0,0,0-.42,2.5,9.59,9.59,0,0,0,.41,2.52,5.51,5.51,0,0,0,1.08,2,4.9,4.9,0,0,0,1.77,1.3,6.15,6.15,0,0,0,2.49.46,5.43,5.43,0,0,0,3.38-1,4.78,4.78,0,0,0,1.74-3Zm2.15-8.17v12h2v-5.32a8.18,8.18,0,0,1,.23-2,3.93,3.93,0,0,1,.74-1.52,3.17,3.17,0,0,1,1.34-.95,5.56,5.56,0,0,1,2-.32V157.8a4.42,4.42,0,0,0-2.64.65,5.33,5.33,0,0,0-1.76,2.15h0v-2.52Z" style="fill: #bcbcbc"/>
              </g>
              <g id="Logo">
                <path id="Shape" d="M33.29,64.17A18.78,18.78,0,0,1,52.24,45.48a24.6,24.6,0,0,1,15.23,5.29h0v0c0-6.52-.18-29.09-.18-31.56h-.35a71.87,71.87,0,0,0-17.18-2.29,47.52,47.52,0,0,0-48,48c0,25.92,20.54,46.19,46.58,46.19a101.06,101.06,0,0,0,18.77-1.94v-.35c0-3.53.18-24.51.18-30.68a.17.17,0,0,0-.18.18,23.54,23.54,0,0,1-14.7,4.58C42,82.86,33.29,74.4,33.29,64.17Z" style="fill: url(#linear-gradient)"/>
                <path id="Shape-2" data-name="Shape" d="M51.53,45.48h.71a24.6,24.6,0,0,1,15.23,5.29h0v0c0-6.52-.18-29.09-.18-31.56h-.35a71.87,71.87,0,0,0-17.18-2.29,50.25,50.25,0,0,0-17.18,3c8.68,4.76,18.24,13,18.95,25.56Z" style="fill: url(#linear-gradient-2)"/>
                <path id="Shape-3" data-name="Shape" d="M130.17,112.3A48.31,48.31,0,1,0,81.64,64a48.49,48.49,0,0,0,48.52,48.31Zm0-67.35A19,19,0,1,1,111,64a19.23,19.23,0,0,1,19.13-19Z" style="fill: url(#linear-gradient-3)"/>
                <path id="Shape-4" data-name="Shape" d="M154.78,22.39a48.59,48.59,0,0,0-47.28-1.06c35.77-6.52,32.41,14.81,44.1,21,20.72,11.28,26.21-6.35,3.19-19.92Z" style="fill: url(#linear-gradient-4)"/>
                <path id="Shape-5" data-name="Shape" d="M130.17,112.3a48.59,48.59,0,0,0,43.39-26.8c-12.75,4.41-26.92-1.76-33.47-5.29A18.64,18.64,0,0,1,130.17,83a19.17,19.17,0,0,1-18.42-13.93C98.29,71.58,88,64,82.17,57.65A38.15,38.15,0,0,0,81.82,64a48.45,48.45,0,0,0,48.35,48.31Z" style="fill: url(#linear-gradient-5)"/>
                <path id="Shape-6" data-name="Shape" d="M48.7,111.07a101.06,101.06,0,0,0,18.77-1.94v-.35c0-3.53.18-24.51.18-30.68a.17.17,0,0,0-.18.18,22,22,0,0,1-9,4.05C37.19,92,17.71,87.44,5.31,82,12,99.26,28.69,111.07,48.7,111.07Z" style="fill: url(#linear-gradient-6)"/>
                <path id="Shape-7" data-name="Shape" d="M188.08,114.77c17.89-23.27,56.67-74,74.56-97.32-25.86,26.27-56,65.41-74.56,97.32Z" style="fill: #fff"/>
                <path id="Shape-8" data-name="Shape" d="M188.08,115.12c17.89-23.27,56.85-74.4,74.56-97.67-25.86,26.27-56,65.76-74.56,97.67Z" style="fill: #fff"/>
                <path id="Shape-9" data-name="Shape" d="M130.17,13.93a50.25,50.25,0,1,0,50.47,50.24,50.45,50.45,0,0,0-50.47-50.24Zm0,67.17a16.92,16.92,0,1,1,17-16.92,16.86,16.86,0,0,1-17,16.92Z" style="fill: none"/>
                <path id="Shape-10" data-name="Shape" d="M69.42,17.63A71.79,71.79,0,0,0,50.12,15,49.66,49.66,0,0,0,0,65.05c0,27.15,21.25,48.31,48.52,48.31,5,0,14.34-.71,20.72-2.47l.18-37c-5,4.94-9.74,7.23-16.82,7.23-9.39,0-17.53-7.23-17.53-16.75a16.82,16.82,0,0,1,17-16.75c7.08,0,12.4,3,17.36,7.58V17.63Z" style="fill: none"/>
                <path id="Shape-11" data-name="Shape" d="M67.47,19h0c0,2.47.18,25,.18,31.56l1.95,4.23-.18-37.38h0L67.47,19Z" style="fill: #457bbf"/>
                <path id="Shape-12" data-name="Shape" d="M130.17,45a19,19,0,1,0,19.13,19,19,19,0,0,0-19.13-19Z" style="fill: none"/>
                <path id="Shape-13" data-name="Shape" d="M52.24,45.48a24.6,24.6,0,0,1,15.23,5.29c0-6.35-.18-29.09-.18-31.73a73.32,73.32,0,0,0-17.36-2.29,47.52,47.52,0,0,0-48,48c0,25.92,20.54,46.19,46.58,46.19A101.06,101.06,0,0,0,67.3,109c0-2.47.18-24.51.18-31A23.12,23.12,0,0,1,52.6,82.68c-10.8,0-19.48-8.46-19.48-18.69s8.68-18.51,19.13-18.51Z" style="fill: none"/>
                <path id="Shape-14" data-name="Shape" d="M52.24,45.48a24.6,24.6,0,0,1,15.23,5.29c0-6.35-.18-29.09-.18-31.73a73.32,73.32,0,0,0-17.36-2.29,47.52,47.52,0,0,0-48,48c0,25.92,20.54,46.19,46.58,46.19A101.06,101.06,0,0,0,67.3,109c0-2.47.18-24.51.18-31A23.12,23.12,0,0,1,52.6,82.68c-10.8,0-19.48-8.46-19.48-18.69s8.68-18.51,19.13-18.51Z" style="fill: none"/>
                <path id="Shape-15" data-name="Shape" d="M67.47,78.1c0,6.35-.18,27.15-.18,30.68l2.13,1.59L69.6,74c0-.18-2.13,4.05-2.13,4.05Z" style="fill: #091f40"/>
                <path id="Shape-16" data-name="Shape" d="M130.17,45a19,19,0,1,0,19.13,19,19,19,0,0,0-19.13-19Z" style="fill: none"/>
                <path id="Shape-17" data-name="Shape" d="M130.17,15.87a48.31,48.31,0,1,0,48.52,48.31,48.49,48.49,0,0,0-48.52-48.31Zm0,67.17a19,19,0,1,1,19.13-19,19,19,0,0,1-19.13,19Z" style="fill: none"/>
                <path id="Shape-18" data-name="Shape" d="M130.17,45a19,19,0,1,0,19.13,19,19,19,0,0,0-19.13-19Z" style="fill: none"/>
                <path id="Shape-19" data-name="Shape" d="M203.31,114.77c18.6-31.91,48.7-71.22,74.56-97.32.35-.35,9.39-9.87,15.76-17.28C259.8,28,210.21,92.73,191.44,132.93c4.25-6.35,9.39-14.1,12.93-19.75a12.37,12.37,0,0,1-1.06,1.59Z" style="fill: url(#linear-gradient-7)"/>
                <path id="Shape-20" data-name="Shape" d="M278.93,111.42,275,109.3l.18.18H240.32l-1.06,2.12,39.67-.18Z" style="fill: url(#linear-gradient-8)"/>
                <path id="Shape-21" data-name="Shape" d="M188.08,114.77c18.6-31.91,48.7-71,74.56-97.32l-.35.35L276.62,1.59C242.8,30.15,194.63,93.44,176,133.1l12.57-19.22a1,1,0,0,1-.53.88Z" style="fill: url(#linear-gradient-9)"/>
                <path id="Shape-22" data-name="Shape" d="M67.47,78.1c0,6.35-.18,27.15-.18,30.85l2.13,1.59.18-36.85c0,.18-2.13,4.41-2.13,4.41Z" style="fill: #457bbf"/>
                <path id="Shape-23" data-name="Shape" d="M293.62.18h0c-5,5.64-10.8,12-16.29,18L242.8,63.29a7,7,0,0,1,.89,1.23C247,69.29,259.8,87.44,268.3,99.43c3.36,4.58,5.84,8.29,6.91,9.87l3.9,2.12-33.83-48L293.62.18Z" style="fill: url(#linear-gradient-10)"/>
                <path id="Shape-24" data-name="Shape" d="M247.58,17.45c-12.93,16.75-37.19,48.48-56.14,73.34-.71,1.06-1.59,1.94-2.3,3l-15.58,20.45-12.22,19.39L261.22,3.17S247,18,247.58,17.45Z" style="fill: url(#linear-gradient-11)"/>
                <path id="Shape-25" data-name="Shape" d="M224.56,87.27h-.18c-1.59,2.12-12.22,16-21.07,27.5.35-.53.53-1.06.89-1.59-3.72,5.64-8.85,13.75-12.75,19.75a5.27,5.27,0,0,0-.71,1.76l34-44.25,14.88,21.16,1.06-2.12c-1.42-1.41-14.34-19.92-16.12-22.21Z" style="fill: url(#linear-gradient-12)"/>
                <path id="Shape-26" data-name="Shape" d="M67.3,108.78h0v.35a101.06,101.06,0,0,1-18.77,1.94c-26,0-46.58-20.27-46.58-46.19,0-27,21.07-48,48-48a64,64,0,0,1,17.18,2.29h.35l1.95-1.59-.53-.18a76.76,76.76,0,0,0-18.95-2.64A49.62,49.62,0,0,0,0,64.88C0,92,21.25,113.18,48.52,113.18c5,0,14.34-.71,20.72-2.47h0L67.3,109v-.18Z" style="fill: url(#linear-gradient-13)"/>
                <path id="Shape-27" data-name="Shape" d="M35.24,64.17a16.82,16.82,0,0,1,17-16.75c7.08,0,12.4,3,17.36,7.58,0,0-1.06-2.47-2.13-4.41h0a23.92,23.92,0,0,0-15.23-5.29A18.89,18.89,0,0,0,33.29,64c0,10.4,8.68,18.69,19.48,18.69a23.54,23.54,0,0,0,14.7-4.58l.18-.18,2.13-4.23v-.18c-5,4.94-9.74,7.23-16.82,7.23-9.56.18-17.71-7.23-17.71-16.57Z" style="fill: url(#linear-gradient-14)"/>
                <path id="Shape-28" data-name="Shape" d="M130.34,13.75A50.24,50.24,0,1,0,180.64,64a50.45,50.45,0,0,0-50.3-50.24Zm-.18,98.55A48.31,48.31,0,1,1,178.69,64a48.49,48.49,0,0,1-48.52,48.31Z" style="fill: url(#linear-gradient-15)"/>
                <path id="Shape-29" data-name="Shape" d="M130.17,45a19,19,0,1,0,19.13,19,19,19,0,0,0-19.13-19Zm.18,36.14a16.93,16.93,0,1,1,17.18-16.92A17.12,17.12,0,0,1,130.34,81.1Z" style="fill: url(#linear-gradient-16)"/>
                <path id="Shape-30" data-name="Shape" d="M207.91,63.47S180.28,24,176.39,18.33l-3.9-1.94,32.94,47.07c-18.95,24.86-36,51.3-45,71.22l.89-1.23s12.57-19.75,11.69-18.69a493.64,493.64,0,0,1,34-50.24l.89-1.06Z" style="fill: url(#linear-gradient-17)"/>
                <path id="Shape-31" data-name="Shape" d="M176.39,18.33h34.53L212,16.4H172.49l4.07,2.29a.54.54,0,0,1-.18-.35Z" style="fill: #457bbf"/>
                <path id="Shape-32" data-name="Shape" d="M226.68,37.2l-14.7-21-1.06,1.94C213,21.33,226,39.49,226.51,40.37h0l1.59-1.94C234.83,30.68,241,24,247.23,17.63,248.29,16.4,261,3,261,3l2.3-3c-11,9.34-23.73,22.39-36.66,37.2Z" style="fill: url(#linear-gradient-18)"/>
                <path id="Shape-33" data-name="Shape" d="M276.8,1.76,262.46,18C244.75,41.08,207,90.44,189,113.89L176.39,133.1c-.18.53-.53,1.06-.71,1.59L278.57.18a15.94,15.94,0,0,0-1.77,1.59Z" style="fill: url(#linear-gradient-19)"/>
                <path id="Shape-34" data-name="Shape" d="M289.55,106a4.78,4.78,0,1,1,4.78,4.76,4.75,4.75,0,0,1-4.78-4.76Zm-.89,0a5.67,5.67,0,1,0,5.67-5.64,5.58,5.58,0,0,0-5.67,5.64Zm8.85,3-1.77-2.64a1.75,1.75,0,0,0,1.24-1.76c0-1.59-1.24-1.94-2.48-1.94h-2.83V109h1.59v-2.47h.89l1.42,2.47Zm-4.07-3.53v-1.59h1.24c.35,0,.89.18.89.71a1,1,0,0,1-.89.88Z" style="fill: #457bbf"/>
                <path id="Shape-35" data-name="Shape" d="M188.08,114.77c17.89-23.27,56.67-74,74.56-97.32-25.86,26.27-56,65.41-74.56,97.32Zm-15.05,0c17.89-23.27,56.85-74.4,74.56-97.49-6.2,6.17-12.75,13.4-19.48,21.16l-1.77,1.94s-14.52-20.63-15.58-22.21H176.39c3.9,5.47,31.7,45.13,31.7,45.13l-.89,1.23A507.68,507.68,0,0,0,173,114.77ZM277.69,17.45c-25.86,26.09-56,65.41-74.56,97.32,9.56-12.52,21.25-27.68,21.25-27.68s14.7,21,15.76,22.57H275c-3.9-5.47-32.59-46.19-32.59-46.19s21.07-27.33,35.24-46Z" style="fill: url(#linear-gradient-20)"/>
                <path id="Shape-36" data-name="Shape" d="M220.66,66.64a502.14,502.14,0,0,0-32.59,48.13c8.5-11.11,21.78-28.56,35.42-46.19a16.05,16.05,0,0,0-2.83-1.94ZM173,114.77c9.56-12.69,25.5-33.32,40.91-53.42-6.73-5.29-12.75-10.58-18.24-15.69,6.55,9.52,12.4,17.63,12.4,17.63l-.89,1.23A507.68,507.68,0,0,0,173,114.77Zm88.37-24.86a175.82,175.82,0,0,1-30.64-16.4c-10.27,14.1-19.83,28.38-27.45,41.25,9.56-12.52,21.25-27.68,21.25-27.68s14.7,21,15.76,22.57h34.89c-1.59-2.47-7.44-10.75-13.81-19.75Z" style="fill: url(#linear-gradient-21)"/>
              </g>
              <path id="Line" d="M.89,137.74H298.41" style="fill: none;stroke: #c7c7c6"/>
            </g>
          </g>
        </g>
      </g>
    </g>
  </g>
</svg>
