<?xml version="1.0" encoding="iso-8859-1"?><!-- Generator: Adobe Illustrator 16.0.0, SVG Export Plug-In . SVG Version: 6.00 Build 0) --><!DOCTYPE svg PUBLIC "-//W3C//DTD SVG 1.1//EN" "http://www.w3.org/Graphics/SVG/1.1/DTD/svg11.dtd"><svg version="1.1" id="Layer_1" xmlns="http://www.w3.org/2000/svg" xmlns:xlink="http://www.w3.org/1999/xlink" x="0px" y="0px" width="49.824px" height="17.696px" viewBox="0 0 49.824 17.696" style="enable-background:new 0 0 49.824 17.696;" xml:space="preserve"><g><path d="M8.762,17.306c-0.243,0.239-0.594,0.39-1.014,0.39c-1.019,0-1.439-0.622-1.439-1.264c0-0.742,0.485-1.245,1.439-1.245	c0.397,0,0.715,0.081,1.014,0.293v0.654l-0.019-0.01c-0.145-0.238-0.449-0.416-0.888-0.416c-0.771,0-0.874,0.478-0.874,0.771	c0,0.474,0.355,0.771,0.859,0.771c0.43,0,0.752-0.232,0.921-0.474V17.306"/><path d="M10.687,17.696c-1.121,0-1.504-0.664-1.504-1.335c0-0.722,0.374-1.173,1.504-1.173s1.505,0.452,1.505,1.173	C12.192,17.032,11.809,17.696,10.687,17.696z M10.687,15.69c-0.621,0-0.832,0.323-0.832,0.7c0,0.403,0.164,0.88,0.832,0.88	c0.668,0,0.832-0.477,0.832-0.88C11.519,16.013,11.309,15.69,10.687,15.69"/><polyline points="12.725,15.246 13.856,15.246 14.445,16.941 14.454,16.941 15.062,15.246 16.178,15.246 16.178,17.637	15.505,17.637 15.505,15.832 15.496,15.832 14.781,17.637 14.113,17.637 13.407,15.832 13.398,15.832 13.398,17.637 12.725,17.637	12.725,15.246	"/><polyline points="16.88,15.246 18.011,15.246 18.6,16.941 18.609,16.941 19.216,15.246 20.333,15.246 20.333,17.637 19.66,17.637	19.66,15.832 19.651,15.832 18.936,17.637 18.268,17.637 17.562,15.832 17.553,15.832 17.553,17.637 16.88,17.637 16.88,15.246	"/><path d="M23.726,15.246v1.483c0,0.632-0.462,0.967-1.355,0.967c-0.892,0-1.355-0.335-1.355-0.967v-1.483h0.701v1.351	c0,0.374,0.023,0.654,0.654,0.654s0.654-0.28,0.654-0.654v-1.351H23.726"/><polyline points="27.096,17.637 26.208,17.637 25.078,15.816 25.068,15.816 25.068,17.637 24.395,17.637 24.395,15.246	25.442,15.246 26.414,16.854 26.423,16.854 26.423,15.246 27.096,15.246 27.096,17.637	"/><rect x="27.732" y="15.246" width="0.701" height="2.392"/><path d="M31.348,17.306c-0.243,0.239-0.593,0.39-1.014,0.39c-1.019,0-1.439-0.622-1.439-1.264c0-0.742,0.486-1.245,1.439-1.245	c0.397,0,0.715,0.081,1.014,0.293v0.654l-0.019-0.01c-0.145-0.238-0.448-0.416-0.888-0.416c-0.771,0-0.874,0.478-0.874,0.771	c0,0.474,0.355,0.771,0.86,0.771c0.43,0,0.752-0.232,0.92-0.474V17.306"/><path d="M34.652,17.637h-0.725l-0.238-0.59h-1.084l-0.243,0.59h-0.724l0.967-2.392h1.104L34.652,17.637z M32.727,16.603h0.827	l-0.406-1.028h-0.009L32.727,16.603"/><rect x="37.602" y="15.246" width="0.701" height="2.392"/><path d="M40.288,17.696c-1.122,0-1.504-0.664-1.504-1.335c0-0.722,0.374-1.173,1.504-1.173c1.13,0,1.504,0.452,1.504,1.173	C41.792,17.032,41.41,17.696,40.288,17.696z M40.288,15.69c-0.622,0-0.832,0.323-0.832,0.7c0,0.403,0.164,0.88,0.832,0.88	s0.832-0.477,0.832-0.88C41.12,16.013,40.91,15.69,40.288,15.69"/><polyline points="45.013,17.637 44.125,17.637 42.994,15.816 42.985,15.816 42.985,17.637 42.312,17.637 42.312,15.246	43.359,15.246 44.331,16.854 44.339,16.854 44.339,15.246 45.013,15.246 45.013,17.637	"/><path d="M47.649,16.042c-0.188-0.245-0.491-0.371-0.888-0.371c-0.276,0-0.565,0.061-0.565,0.277c0,0.368,1.579,0.213,1.579,0.974	c0,0.487-0.477,0.774-1.159,0.774c-0.346,0-0.706-0.074-0.991-0.277v-0.561c0.178,0.268,0.551,0.413,0.939,0.413	c0.355,0,0.565-0.081,0.565-0.268c0-0.477-1.607-0.164-1.607-1.086c0-0.432,0.519-0.729,1.159-0.729	c0.575,0,0.874,0.19,0.967,0.277V16.042"/><polyline points="35.445,15.696 34.483,15.696 34.483,15.192 37.163,15.192 37.163,15.696 36.201,15.696 36.201,17.685	35.445,17.685 35.445,15.696	"/><path d="M26.485,1.324C13.624-0.924,2.667-0.241,2.014,2.85C1.785,3.932,2.851,5.166,4.882,6.408	c-1.5-1.077-2.27-2.136-2.096-3.082c0.562-3.062,10.79-3.777,22.842-1.595c12.054,2.182,21.37,6.433,20.807,9.495	c-0.212,1.16-1.812,1.983-4.373,2.439c3.788-0.358,6.23-1.267,6.528-2.676C49.244,7.899,39.347,3.571,26.485,1.324"/><path d="M26.56,6.487h-1.528v1.978c0,0-1.515,0-1.532,0c-0.116,0-0.208,0.095-0.208,0.212s0.093,0.21,0.208,0.21h1.532v4.741h1.528	V8.888h2.207v4.741h1.529V8.465H26.56V6.487L26.56,6.487"/><path d="M19.701,9.12V8.465h-2.874c-0.114,0-0.208,0.094-0.208,0.21s0.093,0.212,0.208,0.212h1.334v4.741h1.54v-3.172	c0-1.244,0.686-1.47,1.034-1.492c0.717-0.044,1.043,0.435,1.043,1.248v3.416h1.493v-3.04c0-1.557-0.966-2.246-1.96-2.238	c-0.385,0.003-0.695,0.059-0.991,0.209C20.156,8.644,19.842,8.854,19.701,9.12L19.701,9.12"/><path d="M14.243,8.307c-1.49,0-2.698,1.22-2.698,2.725s1.208,2.726,2.698,2.726c1.489,0,2.697-1.221,2.697-2.726	S15.732,8.307,14.243,8.307L14.243,8.307z M15.293,11.015c-0.001,0.521-0.016,1.037-0.026,1.215	c-0.01,0.183-0.031,0.304-0.062,0.423c-0.104,0.389-0.442,0.701-0.962,0.701c-0.52,0-0.858-0.312-0.962-0.701	c-0.032-0.119-0.053-0.24-0.062-0.423c-0.01-0.179-0.03-0.694-0.028-1.215s0.019-1.037,0.028-1.215	c0.01-0.183,0.031-0.304,0.062-0.423c0.104-0.389,0.442-0.701,0.962-0.701c0.52,0,0.857,0.312,0.962,0.701	c0.031,0.119,0.052,0.24,0.062,0.423C15.277,9.978,15.294,10.494,15.293,11.015L15.293,11.015"/><path d="M32.994,11.031c-0.001,0.515,0.011,0.938,0.027,1.142c0.058,0.743,0.55,1.156,1.172,1.148	c0.751-0.01,1.544-0.506,1.927-1.432c0.049-0.12,0.183-0.177,0.306-0.128c0.124,0.049,0.165,0.184,0.113,0.303	c-0.464,1.075-1.372,1.686-2.497,1.686c-1.473,0-2.688-1.218-2.688-2.718c0-1.5,1.204-2.717,2.688-2.717	c0.772,0,1.441,0.284,1.938,0.81c0.457,0.486,0.562,1.098,0.562,1.906H32.994L32.994,11.031z M35.095,10.623	c-0.004-0.37-0.016-0.639-0.024-0.822s-0.03-0.303-0.062-0.422c-0.104-0.389-0.442-0.702-0.962-0.702	c-0.52,0-0.858,0.313-0.962,0.702c-0.032,0.119-0.055,0.239-0.062,0.422c-0.009,0.209-0.019,0.452-0.024,0.822H35.095	L35.095,10.623"/><path d="M7.898,5.197c-0.181,0.027-0.5,0.318-0.5,0.689c0,0.379,0.284,0.727,0.77,0.727c0.408,0,0.747-0.371,0.747-0.789	c0-0.556-0.507-1.092-1.436-1.092c-2.002,0-3.001,2.248-3.327,3.733H2.01c-0.117,0-0.212,0.094-0.212,0.211S1.893,8.888,2.01,8.888	h2.038c-0.872,3.704-1.208,6.152-1.932,7.041C1.916,16.174,1.682,16.3,1.403,16.3c-0.146,0-0.273-0.026-0.36-0.096	c0.205-0.066,0.464-0.341,0.464-0.65c0-0.41-0.305-0.759-0.753-0.759C0.367,14.795,0,15.143,0,15.593	c0,0.593,0.658,1.074,1.326,1.074c1.868,0,2.996-2.043,4.305-7.779h1.807v4.741h1.536V8.888h1.184	c-0.105,0.093-0.188,0.28-0.188,0.505c0,0.376,0.367,0.704,0.739,0.704c0.455,0,0.761-0.347,0.761-0.781	c0-0.346-0.193-0.606-0.509-0.742c-0.179-0.077-0.404-0.109-0.649-0.109H5.725c0.31-1.338,0.595-3.357,1.787-3.357	C7.655,5.107,7.748,5.131,7.898,5.197L7.898,5.197"/><path d="M40.465,8.888c-0.121,0.081-0.2,0.28-0.2,0.505c0,0.376,0.366,0.704,0.738,0.704c0.454,0,0.761-0.347,0.761-0.781	c0-0.346-0.193-0.606-0.51-0.742c-0.178-0.077-0.403-0.109-0.648-0.109h-2.354h-1.083c-0.117,0-0.212,0.094-0.212,0.211	c0,0.117,0.095,0.211,0.212,0.211c0.026,0,0.563,0,0.563,0v4.741h1.537V8.888H40.465L40.465,8.888"/><path d="M28.746,5.817c0-0.435,0.352-0.787,0.787-0.787s0.787,0.353,0.787,0.787s-0.353,0.787-0.787,0.787	S28.746,6.251,28.746,5.817L28.746,5.817"/><path d="M48.276,15.775c0,0.087,0.026,0.155,0.082,0.206s0.131,0.077,0.229,0.077c0.083,0,0.157-0.019,0.22-0.058	c0.063-0.038,0.095-0.102,0.095-0.191c0-0.071-0.025-0.126-0.075-0.164c-0.028-0.021-0.069-0.039-0.122-0.051l-0.109-0.026	c-0.074-0.018-0.121-0.032-0.142-0.043c-0.032-0.019-0.048-0.047-0.048-0.086c0-0.036,0.014-0.067,0.041-0.095	c0.027-0.027,0.071-0.04,0.133-0.04c0.076,0,0.131,0.021,0.163,0.062c0.017,0.023,0.028,0.056,0.033,0.099h0.102	c0-0.089-0.028-0.155-0.086-0.195s-0.127-0.061-0.209-0.061c-0.089,0-0.158,0.023-0.207,0.069	c-0.049,0.047-0.073,0.106-0.073,0.179c0,0.067,0.025,0.117,0.074,0.151c0.029,0.02,0.078,0.037,0.147,0.053l0.105,0.024	c0.058,0.014,0.1,0.029,0.127,0.047c0.026,0.019,0.04,0.05,0.04,0.094c0,0.059-0.031,0.099-0.094,0.122	c-0.032,0.012-0.068,0.018-0.108,0.018c-0.088,0-0.149-0.027-0.184-0.08c-0.019-0.029-0.029-0.066-0.031-0.111H48.276z"/><path d="M49.052,16.034h0.105V15.56c0-0.019,0-0.048-0.001-0.089c-0.001-0.04-0.001-0.07-0.001-0.09v-0.024l0.23,0.677h0.107	l0.23-0.677c0,0.043,0,0.084-0.001,0.122c-0.001,0.038-0.001,0.065-0.001,0.081v0.474h0.105v-0.803h-0.156l-0.229,0.679	l-0.23-0.679h-0.157V16.034z"/></g></svg>