<svg xmlns="http://www.w3.org/2000/svg" viewBox="0 0 300 111.5">
  <title>Asset 19</title>
  <g id="Layer_2" data-name="Layer 2">
    <g id="Layer_1-2" data-name="Layer 1">
      <g>
        <g>
          <g>
            <g>
              <path d="M41.65,28.77V39H11.72v15.5H40v9.92H11.72V90.34H0V28.77Z" style="fill: #d9292c"/>
              <path d="M73.2,58.61a12.46,12.46,0,0,0-4.42-.9c-6.58,0-11.9,6.58-11.9,16V90.34H45.7V48.42H56.79v6.85H57c2.52-5,6.13-7.84,11.54-7.84a11.65,11.65,0,0,1,4.69,1Z" style="fill: #d9292c"/>
              <path d="M291.07,58.61a12.46,12.46,0,0,0-4.42-.9c-6.58,0-11.9,6.58-11.9,16V90.34H263.57V48.42h11.09v6.85h.18c2.52-5,6.13-7.84,11.54-7.84a11.65,11.65,0,0,1,4.69,1Z" style="fill: #d9292c"/>
              <path d="M120,69.43c0,11-8.74,21.91-23.17,21.91-14.06,0-22.9-10.28-22.9-21.82,0-13.16,11-22.09,22.45-22.09C111.87,47.43,120,58.7,120,69.43Zm-34.08-.09c0,7.48,5.59,12.08,11.27,12.08,6.49,0,10.82-6.13,10.82-11.9,0-6.13-4.51-12.17-10.73-12.17C90.77,57.35,85.91,62.48,85.91,69.34Z" style="fill: #d9292c"/>
              <path d="M162.8,90.34H151.62V66c0-4.33-1.26-7.75-6.13-7.75-6.76,0-10.73,7-10.73,15.06v17H123.58V48.42h11.17V55c1.8-2.71,5.14-7.57,13.25-7.57,10.1,0,14.78,6.94,14.78,15.6Z" style="fill: #d9292c"/>
              <path d="M211.47,48.42V90.34H200.3V48.42Z" style="fill: #d9292c"/>
              <path d="M258.08,70.87h-31a14.37,14.37,0,0,0,2.62,5.41,13.45,13.45,0,0,0,10.19,4.78c6.13,0,11.72-3.16,16.59-6.94V85.56c-3.7,2-10.64,5.77-18.39,5.77-13.34,0-22.63-10.19-22.63-21.82a22,22,0,0,1,21.82-22.09c12.62,0,20.82,9,20.82,21.73ZM246,63.21a8.67,8.67,0,0,0-8.47-7.39,10.07,10.07,0,0,0-9.47,7.39Z" style="fill: #d9292c"/>
            </g>
            <path d="M182.59,35.89V48.51h11.72V56.9H182.95V75.2c0,4.69,2.52,5.86,5.41,5.86a15.23,15.23,0,0,0,5.95-1.44v9.92A39.12,39.12,0,0,1,184.12,91c-7.57,0-12.35-3.88-12.35-12V56.9h-6.94V48.51h6.95V35.84h10.81" style="fill: #d9292c"/>
          </g>
          <g>
            <circle cx="187.08" cy="23.57" r="5.33" style="fill: #d9292c"/>
            <circle cx="168.42" cy="13.33" r="4.49" style="fill: #d9292c"/>
            <circle cx="150.05" cy="6.87" r="4.21" style="fill: #d9292c"/>
            <circle cx="130.69" cy="3.65" r="3.65" style="fill: #d9292c"/>
            <circle cx="111.05" cy="3.64" r="3.08" style="fill: #d9292c"/>
            <circle cx="91.83" cy="6.17" r="2.73" style="fill: #d9292c"/>
            <circle cx="73.45" cy="13.19" r="1.89" style="fill: #d9292c"/>
            <circle cx="58.3" cy="23.79" r="1.18" style="fill: #d9292c"/>
            <circle cx="49.09" cy="35.57" r="0.89" style="fill: #d9292c"/>
            <path d="M211.27,37.84a6,6,0,1,1-6.2-6C207.11,31.8,211.27,33.52,211.27,37.84Z" style="fill: #d9292c"/>
          </g>
        </g>
        <g>
          <path d="M28.85,111.17h-2L32.43,98.3h1.64l5.53,12.87h-2L36.25,108H30.14Zm1.93-4.74H35.6l-2.4-6Z" style="fill: #5a5b5c"/>
          <path d="M40.92,106.41V98.3h1.8v8c0,1.76.8,3.58,3.2,3.58s3.2-1.82,3.2-3.58v-8h1.8v8.11a4.76,4.76,0,0,1-5,5.09A4.76,4.76,0,0,1,40.92,106.41Z" style="fill: #5a5b5c"/>
          <path d="M58.82,111.17H57V99.89H52.9V98.3H63v1.58H58.82Z" style="fill: #5a5b5c"/>
          <path d="M65.39,98.3h1.8v5.38h6.51V98.3h1.82v12.87H73.69v-5.89H67.18v5.89h-1.8Z" style="fill: #5a5b5c"/>
          <path d="M84.78,111.5a6.76,6.76,0,1,1,6.83-6.78A6.56,6.56,0,0,1,84.78,111.5Zm0-11.94a5.17,5.17,0,1,0,4.89,5.16A4.86,4.86,0,0,0,84.78,99.56Z" style="fill: #5a5b5c"/>
          <path d="M95.86,111.17h-1.8V98.3h4.13c2.49,0,4.58.94,4.58,3.56a3.39,3.39,0,0,1-3.13,3.4l3.6,5.91h-2.18l-3.27-5.72H95.86Zm0-7.23h2.07c1.69,0,3-.53,3-2.07s-1.33-2-2.89-2h-2.2Z" style="fill: #5a5b5c"/>
          <path d="M108.11,111.17h-1.8V98.3h1.8Z" style="fill: #5a5b5c"/>
          <path d="M120.82,99.89l-7.27,9.69h7.38v1.6h-9.56v-1.58l7.25-9.71h-7.11V98.3h9.31Z" style="fill: #5a5b5c"/>
          <path d="M125.62,109.57h6.72v1.6h-8.52V98.3h8.25v1.58h-6.45v3.85h6.07v1.55h-6.07Z" style="fill: #5a5b5c"/>
          <path d="M135.47,98.3h4.42c3.29,0,6.94,1.87,6.94,6.43,0,4.4-3.65,6.43-6.94,6.43h-4.42Zm1.8,11.29h2.25c3.11,0,5.38-1.78,5.38-4.85s-2.27-4.87-5.38-4.87h-2.25Z" style="fill: #5a5b5c"/>
          <path d="M160.6,100.69a3.08,3.08,0,0,0-2.51-1.2,2.26,2.26,0,0,0-2.51,2.09c0,1.4,1.18,1.78,2.64,2.25,1.73.55,3.78,1.2,3.78,3.76s-2.16,3.91-4.45,3.91a5.41,5.41,0,0,1-4.24-1.87l1.4-1.18a3.51,3.51,0,0,0,2.87,1.51,2.34,2.34,0,0,0,2.58-2.2c0-1.56-1.42-2-3.05-2.49s-3.34-1.25-3.34-3.62c0-2.56,2.29-3.67,4.42-3.67a5,5,0,0,1,3.69,1.47Z" style="fill: #5a5b5c"/>
          <path d="M165.07,111.17h-2l5.58-12.87h1.64l5.53,12.87h-2L172.47,108h-6.11Zm1.93-4.74h4.82l-2.4-6Z" style="fill: #5a5b5c"/>
          <path d="M179.63,109.57h5.74v1.6h-7.54V98.3h1.8Z" style="fill: #5a5b5c"/>
          <path d="M189.65,109.57h6.73v1.6h-8.52V98.3h8.25v1.58h-6.45v3.85h6.07v1.55h-6.07Z" style="fill: #5a5b5c"/>
          <path d="M205.53,100.69a3.08,3.08,0,0,0-2.51-1.2,2.26,2.26,0,0,0-2.51,2.09c0,1.4,1.18,1.78,2.64,2.25,1.73.55,3.78,1.2,3.78,3.76s-2.16,3.91-4.45,3.91a5.41,5.41,0,0,1-4.24-1.87l1.4-1.18a3.51,3.51,0,0,0,2.87,1.51,2.34,2.34,0,0,0,2.58-2.2c0-1.56-1.42-2-3.05-2.49s-3.34-1.25-3.34-3.62c0-2.56,2.29-3.67,4.42-3.67a5,5,0,0,1,3.69,1.47Z" style="fill: #5a5b5c"/>
          <path d="M214.58,111.17h-2l5.58-12.87h1.64l5.53,12.87h-2L222,108h-6.11Zm1.93-4.74h4.82l-2.4-6Z" style="fill: #5a5b5c"/>
          <path d="M235.63,101a4.71,4.71,0,0,0-3.49-1.4,5.17,5.17,0,0,0,.05,10.32,6.49,6.49,0,0,0,3-.64v-3.58h-2.85v-1.53H237v6.23a10,10,0,0,1-4.83,1.13,6.76,6.76,0,1,1,0-13.52,6.8,6.8,0,0,1,4.76,1.67Z" style="fill: #5a5b5c"/>
          <path d="M242.23,109.57H249v1.6h-8.52V98.3h8.25v1.58h-6.45v3.85h6.07v1.55h-6.07Z" style="fill: #5a5b5c"/>
          <path d="M260.78,108.59h0V98.3h1.8v12.87h-2.27l-6.8-10.51h0v10.51h-1.8V98.3h2.34Z" style="fill: #5a5b5c"/>
          <path d="M270.61,111.17h-1.8V99.89h-4.13V98.3h10.05v1.58h-4.13Z" style="fill: #5a5b5c"/>
        </g>
        <path d="M295.46,49.63h-1.06v2.84h-.68V49.63h-1.08V49h2.82ZM300,52.47h-.69V49.91h0l-1,2.56h-.46l-1-2.56h0v2.56h-.68V49h1l.94,2.44L299,49h1Z" style="fill: #d9292c"/>
      </g>
    </g>
  </g>
</svg>
