<?xml version="1.0" encoding="iso-8859-1"?>
<!-- Generator: Adobe Illustrator 16.0.0, SVG Export Plug-In . SVG Version: 6.00 Build 0)  -->
<!DOCTYPE svg PUBLIC "-//W3C//DTD SVG 1.1//EN" "http://www.w3.org/Graphics/SVG/1.1/DTD/svg11.dtd">
<svg version="1.1" id="Layer_1" xmlns="http://www.w3.org/2000/svg" xmlns:xlink="http://www.w3.org/1999/xlink" x="0px" y="0px"
	 width="192.756px" height="192.756px" viewBox="0 0 192.756 192.756"
	 xml:space="preserve">
<g>
	<polygon style="fill-rule:evenodd;clip-rule:evenodd;fill:#FFFFFF;" points="0,0 192.756,0 192.756,192.756 0,192.756 0,0 	"/>
	<path style="fill-rule:evenodd;clip-rule:evenodd;" d="M3.079,77.441c0,0,0.326-0.162,1.71,0c1.385,0.163,3.258,0.163,3.828,0.163
		c0.489,0,4.479-0.244,4.968-0.244c0.57,0,0.407,0.326,0.407,0.489s0,0.57-0.407,0.652c-0.326,0-2.037-0.163-2.851,0.733
		c0,0-0.407,0.651-0.407,2.118c0,1.466,0,17.836,0,17.836s-0.733,5.051,4.236,4.562h3.502c0,0,2.199,0,2.769-0.57
		c0.652-0.49,1.711-1.549,2.606-3.748c0,0,0.245-0.65,0.733-0.488c0.488,0.164,0.488,0.326,0.407,0.734
		c-0.082,0.406-1.385,5.537-1.792,5.537s-11.729-0.244-12.706-0.244c-1.059,0-7.004,0.244-7.004,0.244s-0.245-0.244-0.245-0.488
		s0.245-0.57,0.57-0.652c0.326,0,2.525,0.082,2.851-0.732c0.326-0.814,0.489-0.162,0.489-2.035c0-1.793,0-20.119,0-20.119
		s0-2.443-1.385-2.606c-1.303-0.163-2.362-0.244-2.362-0.244S2.834,77.686,3.079,77.441L3.079,77.441z"/>
	<path style="fill-rule:evenodd;clip-rule:evenodd;" d="M27.106,89.577c0,0,2.036-0.896,2.443-1.059
		c0.489-0.163,1.792-1.059,1.955-1.059s0.57,0,0.489,0.326c0,0.326-0.244,3.095-0.244,4.398c0,1.222,0,9.53,0,9.53
		s0,0.977,0.244,1.385c0.245,0.408,0.082,0.896,2.118,0.977c0,0,0.326,0.082,0.326,0.57c-0.082,0.49-0.245,0.652-0.733,0.57
		c-0.407-0.08-2.525-0.162-3.176-0.162c-0.733,0-3.991,0.244-4.154,0.162c-0.163-0.08-0.326-0.162-0.326-0.57
		c0-0.406,0.163-0.57,0.57-0.57c0.326,0,0.896,0,1.384-0.324c0.408-0.326,0.652-0.244,0.652-1.061c0.081-0.895,0-10.913,0-10.913
		s-0.163-0.815-0.733-1.14c-0.652-0.326-0.896-0.489-0.896-0.652C27.025,89.74,27.106,89.577,27.106,89.577L27.106,89.577z"/>
	<path style="fill-rule:evenodd;clip-rule:evenodd;" d="M32.238,79.559c0-1.222-1.059-2.199-2.281-2.199
		c-1.222,0-2.199,0.978-2.199,2.199s0.977,2.28,2.199,2.28C31.179,81.839,32.238,80.781,32.238,79.559L32.238,79.559z"/>
	<path style="fill-rule:evenodd;clip-rule:evenodd;" d="M51.704,104.482c-0.978-0.652-3.014-0.732-3.828-0.732
		c-0.733,0-3.665,0.162-4.805,0.162c-1.222,0-1.792-0.244-2.281-0.488c-0.407-0.244-0.651-0.896-0.651-1.141
		c-0.082-0.244,0.081-0.814,0.081-0.814c0.326-0.814,1.792-1.629,1.792-1.629s0.57,0.162,2.199,0.162s3.095-0.57,3.991-1.221
		c0.896-0.57,2.28-2.117,2.606-4.317c0.408-2.199-0.163-3.258-0.163-3.258h3.177c0,0,0.407-0.326,0.407-0.896
		s-0.245-0.814-0.245-0.814h-4.153c0,0-0.245-0.082-0.57-0.163c-0.326-0.082-0.652-0.326-1.955-0.815
		c-1.222-0.488-3.014-0.57-3.258-0.57c-0.977,0.082-1.222,0.082-2.606,0.489c-1.303,0.326-2.362,1.466-3.339,2.606
		c-0.896,1.14-0.896,2.769-0.896,3.176c0,0.326,0,0.814,0.244,1.71c0.163,0.896,0.978,1.955,1.547,2.525
		c0.652,0.57,1.303,1.059,1.303,1.059s0,0.082-0.407,0.652c-0.407,0.65-2.362,2.035-2.362,2.035
		c-0.082,0.082-0.407,0.164-0.489,0.979c0,0.977,1.222,2.035,1.547,2.279c0.326,0.246,1.466,0.652,1.629,0.734
		c0.245,0.162,0,0.406-0.081,0.488c-0.082,0.162-2.199,2.199-2.932,2.85c-0.652,0.734-0.815,1.629-0.733,1.875
		c0,0.162-0.082,1.953,1.628,3.338c1.629,1.385,4.073,1.549,5.375,1.549c1.304,0,2.688,0.162,6.272-1.629
		c3.583-1.793,4.154-5.051,4.154-6.68C53.903,106.273,52.681,105.135,51.704,104.482L51.704,104.482z M44.129,89.17
		c0,0,3.666,0,3.666,4.643c0,4.725-2.444,4.887-3.258,4.887c-0.733,0-3.666-0.162-3.91-4.643
		C40.382,89.577,43.966,89.17,44.129,89.17L44.129,89.17z M51.296,109.939c0,0.65-0.244,2.688-2.199,3.584
		c-2.036,0.896-2.606,0.896-3.747,0.896c-1.222,0-2.932,0.244-4.887-1.793c-0.814-1.141-0.652-1.629-0.652-2.199
		c0,0-0.244-1.711,0.896-2.688c1.141-1.059,1.955-1.303,4.562-1.303c0.977,0,3.665-0.082,4.886,0.977
		C51.459,108.473,51.296,109.287,51.296,109.939L51.296,109.939z"/>
	<path style="fill-rule:evenodd;clip-rule:evenodd;" d="M60.337,75.161c0,0,0.57,0,0.57,0.245c0,0.244,0,14.742,0,14.742
		s2.688-2.199,5.701-2.199c3.014,0,4.236,1.466,4.643,2.362c0.488,0.896,0.651,1.873,0.651,2.199c0.081,0.326,0,9.204,0,9.204
		s0.081,1.467,0.407,1.793c0.244,0.244,0.733,0.488,1.548,0.568c0.896,0.082,0.977,0.082,0.977,0.326c0,0.164,0,0.57-0.082,0.652
		c-0.163,0.162-0.407,0.162-0.651,0.162s-2.851-0.162-3.421-0.162c-0.652,0-3.584,0.162-3.91,0.162c-0.407,0-0.652-0.162-0.652-0.57
		c0-0.324,0.245-0.65,0.733-0.65c0.488,0,1.385-0.082,1.629-0.57s0.326-1.223,0.326-2.443c0-1.223,0-6.679,0-6.679
		s0.163-2.525-1.384-3.584c-0.733-0.489-1.466-0.814-2.525-0.814c-1.059,0.082-2.199,0.326-2.851,0.896
		c-0.651,0.489-1.14,1.222-1.14,1.222v9.53c0,0,0,1.385,0,1.465c0.082,0.164,0.245,0.814,1.303,0.896
		c1.059,0.162,1.222,0.244,1.222,0.408c0,0.162,0.082,0.895-0.326,0.895c-0.489,0-3.095-0.162-3.828-0.162
		c-0.814,0-3.583,0.244-4.072,0.162c-0.489-0.162-0.408-0.326-0.408-0.57c0-0.324,0.163-0.57,0.652-0.57
		c0.489-0.08,1.547-0.08,1.792-0.568c0.244-0.49,0.407-0.57,0.407-1.955c0-1.467,0-21.259,0-21.259s0-0.977-0.326-1.385
		c-0.244-0.326-0.244-0.489-0.652-0.733c-0.407-0.163-0.814-0.489-0.896-0.57c0-0.081-0.163-0.488,0.082-0.651
		c0.244-0.163,0.896-0.326,2.117-0.814C59.278,75.649,60.174,75.324,60.337,75.161L60.337,75.161z"/>
	<path style="fill-rule:evenodd;clip-rule:evenodd;" d="M81.351,85.831c0,0,0.245-0.326,0.408-0.244
		c0.081,0.081,0.488,0,0.488,0.407s0,2.117,0,2.117S82.166,88.6,82.654,88.6c0.489,0,4.969,0,4.969,0s0.407,0,0.407,0.896
		c0,0.896-0.407,0.814-0.407,0.814h-4.969c0,0-0.407,0-0.407,0.814c0,0.733,0,9.448,0,9.448s0.245,1.629,0.652,2.117
		c0.407,0.408,0.733,1.061,2.118,1.061c1.303-0.082,1.629-0.244,1.955-0.49c0.326-0.162,0.57-0.406,0.733-0.324
		c0.082,0.08,0.407,0.65,0.082,0.977c-0.326,0.326-1.222,0.896-1.711,1.141c-0.488,0.244-1.71,0.57-2.443,0.57
		c-0.733,0-2.606-0.164-3.176-0.734c-0.489-0.568-0.978-1.059-1.141-2.279c-0.163-1.141-0.163-1.629-0.163-1.629V90.961
		c0,0,0-0.651-0.57-0.651s-1.385,0-1.385,0s-0.326,0.082-0.326-0.407s0.245-0.489,0.407-0.57c0.245-0.082,1.629-0.489,2.199-0.978
		c0.57-0.489,1.303-1.385,1.547-1.955C81.351,85.749,81.351,85.831,81.351,85.831L81.351,85.831z"/>
	<path style="fill-rule:evenodd;clip-rule:evenodd;" d="M105.867,78.745c-2.037-1.792-6.68-1.792-6.68-1.792h-9.122v28.262h3.665
		V92.021h4.48c0,0,0.977-0.082,2.525-0.244c1.629-0.245,3.258-1.059,4.805-2.118c1.629-1.141,2.688-3.177,2.77-5.539
		C108.311,81.677,107.822,80.455,105.867,78.745L105.867,78.745z M102.771,88.437c-0.732,0.733-2.281,1.792-4.643,1.955h-4.398
		V78.989h5.457c0,0,3.258-0.163,4.725,2.281c0.814,1.14,0.57,2.932,0.57,2.932S104.727,86.727,102.771,88.437L102.771,88.437z"/>
	<path style="fill-rule:evenodd;clip-rule:evenodd;" d="M120.936,103.912c-0.814,0.082-0.814-0.977-0.814-0.977V92.917
		c0,0,0-0.326-0.164-1.303c-0.162-0.977-0.57-2.036-1.547-3.013c-0.979-0.978-2.443-1.629-3.828-1.629s-0.488,0-2.361,0.163
		c-1.875,0.244-4.154,1.873-4.154,1.873l0.244,2.362h0.488c0,0,0.082-0.163,0.408-0.733c0.244-0.489,1.059-1.222,1.953-1.711
		c0.814-0.407,1.793-0.407,2.77-0.244c0.979,0.163,1.549,0.652,2.199,1.303c0.652,0.652,0.896,2.443,0.896,2.443v2.443
		c-0.326,0-1.629,0.245-2.281,0.326c-0.65,0.082-3.094,0.733-4.316,1.141c-1.303,0.406-2.199,1.141-2.85,1.709
		c-0.734,0.57-1.223,1.631-1.223,2.445c0,0.732-0.162,0.977,0.488,2.279c0.652,1.385,1.793,2.037,2.119,2.281
		c0.406,0.244,1.303,0.488,2.932,0.488s2.85-0.896,3.502-1.303c0.652-0.408,1.791-1.467,1.791-1.467s0,0.164,0,0.326
		c0,0.244,0.244,0.814,0.57,1.223c0.326,0.406,0.814,0.732,2.281,0.732s2.117-0.57,2.117-0.57v-0.896
		C122.156,103.586,121.83,103.75,120.936,103.912L120.936,103.912z M117.025,101.387c0,0-0.652,1.141-1.793,1.793
		c-1.221,0.65-1.627,0.977-3.42,0.65c-1.223-0.406-1.629-1.059-1.629-1.059s-0.732-0.732-0.732-2.361s0.895-2.363,1.303-2.688
		c0.488-0.326,1.629-0.979,3.176-1.304c1.467-0.326,3.096-0.57,3.096-0.57V101.387L117.025,101.387z"/>
	<path style="fill-rule:evenodd;clip-rule:evenodd;" d="M124.438,83.55l3.014-1.222v5.131h3.908v1.71h-3.908v11.566
		c0,0,0.162,1.709,0.814,2.523c0.65,0.814,0.977,0.979,1.955,0.896c0.977,0,1.709-0.326,1.709-0.326v0.979
		c0,0-1.955,0.814-3.094,0.732c-1.061-0.082-2.363-0.162-3.096-1.059c-0.814-0.896-1.141-1.629-1.223-2.443
		c-0.08-0.896-0.08-1.303-0.08-1.303V89.17h-2.199v-1.71h2.279L124.438,83.55L124.438,83.55z"/>
	<path style="fill-rule:evenodd;clip-rule:evenodd;" d="M134.863,77.197h2.932v13.276c0,0,1.629-3.502,6.189-3.502
		c4.561,0.082,5.621,3.584,5.783,5.05c0.162,1.385,0.082,0.978,0.082,0.978v12.217h-3.014V93.649c0,0,0.244-4.805-4.154-4.724
		c-4.398,0.082-4.969,3.991-4.969,4.806c0.082,0.814,0,11.484,0,11.484h-2.932L134.863,77.197L134.863,77.197z"/>
	<polygon style="fill-rule:evenodd;clip-rule:evenodd;" points="128.102,112.221 129.486,112.221 129.486,111.65 126.148,111.65 
		126.148,112.221 127.531,112.221 127.531,117.188 128.102,117.188 128.102,112.221 	"/>
	<polygon style="fill-rule:evenodd;clip-rule:evenodd;" points="130.871,117.188 133.803,117.188 133.803,116.617 131.523,116.617 
		131.523,114.42 133.723,114.42 133.723,113.85 131.523,113.85 131.523,112.221 133.803,112.221 133.803,111.65 130.871,111.65 
		130.871,117.188 	"/>
	<path style="fill-rule:evenodd;clip-rule:evenodd;" d="M139.83,112.057c-0.488-0.326-0.977-0.488-1.629-0.488
		c-1.547,0-2.85,1.303-2.85,2.852c0,1.629,1.303,2.85,2.85,2.85c0.57,0,1.141-0.162,1.629-0.488v-0.814
		c-0.406,0.488-1.059,0.732-1.629,0.732c-1.221,0-2.279-1.059-2.279-2.279c0-1.223,0.977-2.281,2.279-2.281
		c0.57,0,1.223,0.244,1.629,0.732V112.057L139.83,112.057z"/>
	<polygon style="fill-rule:evenodd;clip-rule:evenodd;" points="142.355,113.93 142.355,111.65 141.703,111.65 141.703,117.188 
		142.355,117.188 142.355,114.5 145.207,114.5 145.207,117.188 145.775,117.188 145.775,111.65 145.207,111.65 145.207,113.93 
		142.355,113.93 	"/>
	<polygon style="fill-rule:evenodd;clip-rule:evenodd;" points="147.812,117.188 148.383,117.188 148.383,112.953 152.781,117.432 
		152.781,111.65 152.129,111.65 152.129,115.967 147.812,111.406 147.812,117.188 	"/>
	<path style="fill-rule:evenodd;clip-rule:evenodd;" d="M157.342,111.568c-1.629,0-2.932,1.303-2.932,2.852
		c0,1.629,1.303,2.85,2.932,2.85c1.549,0,2.852-1.221,2.852-2.85C160.193,112.871,158.891,111.568,157.342,111.568L157.342,111.568
		L157.342,111.568z M157.342,112.139c1.223,0,2.281,1.059,2.281,2.281c0,1.221-1.059,2.279-2.281,2.279
		c-1.303,0-2.281-1.059-2.281-2.279C155.061,113.197,156.039,112.139,157.342,112.139L157.342,112.139L157.342,112.139z"/>
	<polygon style="fill-rule:evenodd;clip-rule:evenodd;" points="162.473,111.65 161.822,111.65 161.822,117.188 164.021,117.188 
		164.021,116.617 162.473,116.617 162.473,111.65 	"/>
	<path style="fill-rule:evenodd;clip-rule:evenodd;" d="M168.012,111.568c-1.547,0-2.852,1.303-2.852,2.852
		c0,1.629,1.305,2.85,2.852,2.85c1.629,0,2.932-1.221,2.932-2.85C170.943,112.871,169.641,111.568,168.012,111.568L168.012,111.568
		L168.012,111.568z M168.012,112.139c1.303,0,2.281,1.059,2.281,2.281c0,1.221-0.979,2.279-2.281,2.279
		c-1.221,0-2.281-1.059-2.281-2.279C165.73,113.197,166.709,112.139,168.012,112.139L168.012,112.139L168.012,112.139z"/>
	<path style="fill-rule:evenodd;clip-rule:evenodd;" d="M175.424,114.42v0.568h1.629c0,0.979-1.059,1.711-1.955,1.711
		c-0.652,0-1.221-0.326-1.629-0.65c-0.408-0.49-0.652-1.061-0.652-1.629c0-1.223,1.061-2.281,2.281-2.281
		c0.814,0,1.467,0.406,1.955,1.059l0.406-0.408c-0.568-0.814-1.383-1.221-2.361-1.221c-1.547,0-2.85,1.303-2.85,2.852
		c0,1.547,1.303,2.85,2.85,2.85c0.732,0,1.547-0.326,2.037-0.896c0.488-0.568,0.568-1.221,0.568-1.953H175.424L175.424,114.42z"/>
	<polygon style="fill-rule:evenodd;clip-rule:evenodd;" points="179.984,111.65 179.414,111.65 179.414,117.188 179.984,117.188 
		179.984,111.65 	"/>
	<polygon style="fill-rule:evenodd;clip-rule:evenodd;" points="181.939,117.188 184.791,117.188 184.791,116.617 182.592,116.617 
		182.592,114.42 184.791,114.42 184.791,113.85 182.592,113.85 182.592,112.221 184.791,112.221 184.791,111.65 181.939,111.65 
		181.939,117.188 	"/>
	<path style="fill-rule:evenodd;clip-rule:evenodd;" d="M189.678,112.383c-0.244-0.488-0.814-0.814-1.385-0.814
		c-0.896,0-1.629,0.57-1.629,1.385s0.57,1.141,1.221,1.467l0.326,0.08c0.57,0.244,1.059,0.488,1.059,1.141s-0.57,1.059-1.141,1.059
		s-1.059-0.488-1.141-0.977l-0.568,0.162c0.162,0.814,0.814,1.385,1.709,1.385c0.979,0,1.793-0.732,1.793-1.711
		c0-0.895-0.652-1.221-1.385-1.547l-0.326-0.162c-0.408-0.164-0.896-0.408-0.896-0.896s0.408-0.814,0.896-0.814
		s0.732,0.244,0.977,0.57L189.678,112.383L189.678,112.383z"/>
	<path style="fill-rule:evenodd;clip-rule:evenodd;" d="M121.342,114.826c0,1.547-1.221,2.77-2.688,2.77
		c-1.547,0-2.77-1.223-2.77-2.77c0-1.467,1.223-2.688,2.77-2.688C120.121,112.139,121.342,113.359,121.342,114.826L121.342,114.826z
		"/>
	<path style="fill-rule:evenodd;clip-rule:evenodd;" d="M109.451,114.826c0,1.547-1.223,2.77-2.688,2.77
		c-1.549,0-2.77-1.223-2.77-2.77c0-1.467,1.221-2.688,2.77-2.688C108.229,112.139,109.451,113.359,109.451,114.826L109.451,114.826z
		"/>
	<path style="fill-rule:evenodd;clip-rule:evenodd;" d="M97.723,114.826c0,1.547-1.222,2.77-2.77,2.77
		c-1.466,0-2.688-1.223-2.688-2.77c0-1.467,1.222-2.688,2.688-2.688C96.5,112.139,97.723,113.359,97.723,114.826L97.723,114.826z"/>
	<path style="fill-rule:evenodd;clip-rule:evenodd;" d="M85.831,114.826c0,1.547-1.222,2.77-2.688,2.77
		c-1.548,0-2.77-1.223-2.77-2.77c0-1.467,1.222-2.688,2.77-2.688C84.609,112.139,85.831,113.359,85.831,114.826L85.831,114.826z"/>
	<path style="fill-rule:evenodd;clip-rule:evenodd;" d="M73.939,114.826c0,1.547-1.222,2.77-2.688,2.77
		c-1.548,0-2.77-1.223-2.77-2.77c0-1.467,1.222-2.688,2.77-2.688C72.717,112.139,73.939,113.359,73.939,114.826L73.939,114.826z"/>
	<path style="fill-rule:evenodd;clip-rule:evenodd;" d="M62.21,114.826c0,1.547-1.222,2.77-2.688,2.77
		c-1.548,0-2.77-1.223-2.77-2.77c0-1.467,1.222-2.688,2.77-2.688C60.989,112.139,62.21,113.359,62.21,114.826L62.21,114.826z"/>
</g>
</svg>
