<?xml version="1.0" encoding="UTF-8" standalone="no"?>
<svg width="128px" height="40px" viewBox="0 0 128 40" version="1.1" xmlns="http://www.w3.org/2000/svg" xmlns:xlink="http://www.w3.org/1999/xlink" xmlns:sketch="http://www.bohemiancoding.com/sketch/ns">
    <!-- Generator: Sketch 3.2.2 (9983) - http://www.bohemiancoding.com/sketch -->
    <title>optimum</title>
    <desc>Created with Sketch.</desc>
    <defs></defs>
    <g id="Page-1" stroke="none" stroke-width="1" fill="none" fill-rule="evenodd" sketch:type="MSPage">
        <g id="Artboard" sketch:type="MSArtboardGroup" transform="translate(-111.000000, -93.000000)">
            <g id="Group" sketch:type="MSLayerGroup" transform="translate(111.000000, 93.000000)">
                <g id="optimum" sketch:type="MSShapeGroup">
                    <rect id="rectangle" opacity="0" fill="#FFFFFF" x="0" y="0" width="128" height="40"></rect>
                    <g transform="translate(13.000000, 9.000000)">
                        <ellipse id="Oval-2" fill="#F18623" cx="99.1337209" cy="16.1401869" rx="2.86627907" ry="2.98130841"></ellipse>
                        <g id="Group" fill="#282525">
                            <path d="M6.52325581,19.3271028 C10.1259505,19.3271028 13.0465116,16.4274143 13.0465116,12.8504673 C13.0465116,9.27352027 10.1259505,6.37383178 6.52325581,6.37383178 C2.92056111,6.37383178 0,9.27352027 0,12.8504673 C0,16.4274143 2.92056111,19.3271028 6.52325581,19.3271028 Z M6.52325581,15.0093458 C7.61498148,15.0093458 8.5,14.0888098 8.5,12.953271 C8.5,11.8177323 7.61498148,10.8971963 6.52325581,10.8971963 C5.43153015,10.8971963 4.54651163,11.8177323 4.54651163,12.953271 C4.54651163,14.0888098 5.43153015,15.0093458 6.52325581,15.0093458 Z" id="Oval-1"></path>
                            <path d="M18.3837209,7.8185259 C19.3012064,6.91514923 20.4706019,6.37383178 21.744186,6.37383178 C24.6918454,6.37383178 27.0813953,9.27352027 27.0813953,12.8504673 C27.0813953,16.4274143 24.6918454,19.3271028 21.744186,19.3271028 C20.4706019,19.3271028 19.3012064,18.7857854 18.3837209,17.8824087 L18.3837209,22 L13.8372093,22 L13.8372093,6.99065421 L18.3837209,6.99065421 L18.3837209,7.8185259 Z M20.3604651,15.0093458 C21.4521908,15.0093458 22.3372093,14.0888098 22.3372093,12.953271 C22.3372093,11.8177323 21.4521908,10.8971963 20.3604651,10.8971963 C19.2687394,10.8971963 18.3837209,11.8177323 18.3837209,12.953271 C18.3837209,14.0888098 19.2687394,15.0093458 20.3604651,15.0093458 Z" id="Oval-6"></path>
                            <ellipse id="Oval-2" cx="40.4244186" cy="2.98130841" rx="2.86627907" ry="2.98130841"></ellipse>
                            <path d="M68.5930233,6.99065421 L64.0465116,6.99065421 L64.0465116,13.7751203 C64.0465116,16.7285141 66.3481843,19.1214953 69.1874414,19.1214953 L70.5683726,19.1214953 C73.4085918,19.1214953 75.7093023,16.7278417 75.7093023,13.7751203 L75.7093023,6.99065421 L71.1627907,6.99065421 L71.1627907,13.4679517 C71.1627907,14.2056863 70.5860847,14.8037383 69.877907,14.8037383 C69.1682853,14.8037383 68.5930233,14.2043 68.5930233,13.4679517 L68.5930233,6.99065421 L68.5930233,6.99065421 Z" id="Rectangle-1"></path>
                            <path d="M81.4418605,7.98882474 L81.4418605,6.99065421 L76.8953488,6.99065421 L76.8953488,18.9158879 L81.4418605,18.9158879 L81.4418605,11.6256081 C81.8317727,11.2172165 82.3056746,10.8379422 82.7209509,10.8379422 C83.6205681,10.8379422 83.8300333,11.9753756 83.8300333,11.9753756 L83.8300333,18.8609018 L88.5172398,18.8609018 L88.5172398,11.6634033 C88.5172398,11.6634033 88.8402579,10.8369664 89.8043956,10.8369664 C90.7685333,10.8369665 90.8717448,11.8488631 90.8717452,13.3237711 C90.8717456,14.7986791 90.8717452,18.8609018 90.8717452,18.8609018 L95.4319842,18.8609018 C95.4319842,18.8609018 95.4319837,10.0336162 95.4319842,9.9260036 C95.3190998,9.60638401 94.7731618,6.72426371 91.427211,6.72426369 C88.9105528,6.67535288 87.8051327,8.26910323 87.6262773,8.58094708 C87.6262773,8.58094708 86.4547792,6.62644206 84.4588292,6.67535288 C83.2770448,6.70431254 82.1580882,7.41436779 81.4418605,7.98882474 L81.4418605,7.98882474 Z" id="Path"></path>
                            <path d="M48.8255814,7.98882474 L48.8255814,6.99065421 L44.2790698,6.99065421 L44.2790698,18.9158879 L48.8255814,18.9158879 L48.8255814,11.6256081 C49.2154937,11.2172165 49.6893956,10.8379422 50.1046719,10.8379422 C51.004289,10.8379422 51.2137543,11.9753756 51.2137543,11.9753756 L51.2137543,18.8609018 L55.9009607,18.8609018 L55.9009607,11.6634033 C55.9009607,11.6634033 56.2239788,10.8369664 57.1881165,10.8369664 C58.1522542,10.8369665 58.2554658,11.8488631 58.2554662,13.3237711 C58.2554666,14.7986791 58.2554662,18.8609018 58.2554662,18.8609018 L62.8157051,18.8609018 C62.8157051,18.8609018 62.8157047,10.0336162 62.8157051,9.9260036 C62.7028207,9.60638401 62.1568827,6.72426371 58.8109319,6.72426369 C56.2942737,6.67535288 55.1888537,8.26910323 55.0099983,8.58094708 C55.0099983,8.58094708 53.8385001,6.62644206 51.8425502,6.67535288 C50.6607657,6.70431254 49.5418092,7.41436779 48.8255814,7.98882474 L48.8255814,7.98882474 Z" id="Path"></path>
                            <path d="M39.7325581,6.99065421 L42.6976744,6.99065421 L42.6976744,18.9158879 L38.1511628,18.9158879 L38.1511628,11.1028037 L36.7674419,11.1028037 L36.7674419,6.99065421 L39.7325581,6.99065421 L39.7325581,6.99065421 Z" id="Rectangle-3"></path>
                            <path d="M33.4069767,14.4507974 L33.4069767,11.1028037 L35.5813953,11.1028037 L35.5813953,6.99065421 L33.4069767,6.99065421 L33.4069767,6.99065421 L33.4069767,3.08411215 L28.8604651,3.08411215 L28.8604651,6.99065421 L27.4767442,6.99065421 L27.4767442,11.1028037 L28.8604651,11.1028037 L28.8604651,15.0093458 L28.8615322,15.0093458 L28.8615322,16.3441171 C28.8615322,16.3441171 28.8615322,18.4189163 31.0216139,18.869179 C32.547297,19.3143713 35.3797478,18.899925 35.3797478,18.899925 L35.3797478,14.81384 L33.9280598,14.8317486 C33.9280598,14.8317486 33.5429464,14.9382728 33.4069767,14.4507974 L33.4069767,14.4507974 Z" id="Rectangle-8"></path>
                        </g>
                    </g>
                </g>
            </g>
        </g>
    </g>
</svg>