<svg xmlns="http://www.w3.org/2000/svg" viewBox="0 0 300 61.85">
  <title>Asset 13</title>
  <g id="Layer_2" data-name="Layer 2">
    <g id="Layer_1-2" data-name="Layer 1">
      <g id="_Group_" data-name="&lt;Group&gt;">
        <circle id="_Path_" data-name="&lt;Path&gt;" cx="291.62" cy="45.36" r="8.38" style="fill: #a63a90"/>
        <path id="_Path_2" data-name="&lt;Path&gt;" d="M226,19.08h13.51v3a12,12,0,0,1,9.39-3.64,10.56,10.56,0,0,1,8.6,5c.79-.75,1.49-1.45,2.28-2.11,5.35-4.34,13.91-3.73,18.25,1.23a10.45,10.45,0,0,1,2.54,6.89V52.2c0,.22,0,.48,0,.79H267a8.81,8.81,0,0,1,0-1.1V34.22c0-1.49-.26-2.85-1.8-3.55a3.74,3.74,0,0,0-4.34.83,2.13,2.13,0,0,0-.66,1.49c0,6.27,0,12.55,0,18.78v1.18H246.48V34c0-2.19-1.05-3.51-2.94-3.68a4.17,4.17,0,0,0-3.64,1.62,1.91,1.91,0,0,0-.22,1.14V52.91h-13.6C226,41.72,226,30.44,226,19.08Z"/>
        <path id="_Path_3" data-name="&lt;Path&gt;" d="M150.41,53V33.82c-.09-1.8-.79-2.85-2.19-3.25a4.25,4.25,0,0,0-4.39,1.49,2.41,2.41,0,0,0-.22,1.14V53.08H130.05V19.17h13.56c0,1-.09,2-.13,3.07A11.85,11.85,0,0,1,153,18.56a10.68,10.68,0,0,1,8.64,5,13.36,13.36,0,0,1,6.8-4.52c5.22-1.27,10-.48,13.73,3.64a9.69,9.69,0,0,1,2.5,6.8c0,7.63,0,15.27,0,22.86,0,.22,0,.39,0,.66H171V34.31c0-1.58-.31-3-1.93-3.64a3.88,3.88,0,0,0-4.39,1.1,2,2,0,0,0-.53,1.27c0,6.32,0,12.59,0,18.91v1.14C159.45,53,155,53,150.41,53Z"/>
        <path id="_Compound_Path_" data-name="&lt;Compound Path&gt;" d="M40.52,19.08H54V21.5c.18-.09.31-.13.35-.22C58.77,17.33,63.86,17,69.12,19S77.41,25.49,78.64,31c1.4,6.23.57,12.15-3.38,17.37a14.8,14.8,0,0,1-16.89,5,32.31,32.31,0,0,1-4.3-2.41v11H40.56C40.52,47.6,40.52,33.38,40.52,19.08Zm13.29,17a5.76,5.76,0,0,0,5.79,5.79,5.82,5.82,0,0,0,5.83-5.79,5.91,5.91,0,0,0-5.88-5.88A5.82,5.82,0,0,0,53.81,36.1Z"/>
        <path id="_Compound_Path_2" data-name="&lt;Compound Path&gt;" d="M18.93,54.18C9.33,54,3,48.3.82,41.41a18.09,18.09,0,0,1,15-23.29c5.92-.7,11.27.48,15.88,4.47a18,18,0,0,1-3.42,29.26A20,20,0,0,1,18.93,54.18ZM13.1,36a5.86,5.86,0,1,0,11.71,0A5.92,5.92,0,0,0,19,30.23,5.8,5.8,0,0,0,13.1,36Z"/>
        <path id="_Path_4" data-name="&lt;Path&gt;" d="M188.22,19.08h13.64V36.76a7.55,7.55,0,0,0,.09,1.4,3.09,3.09,0,0,0,3.16,2.9,3.25,3.25,0,0,0,3.42-2.76,8.08,8.08,0,0,0,.13-1.45V19.13h13.69v19c0,8.16-5,14-13.07,15.22-4.65.7-9.21.48-13.42-1.8a13.31,13.31,0,0,1-7.55-12.33c-.09-6.36,0-12.72,0-19.08A3.3,3.3,0,0,1,188.22,19.08Z"/>
        <path id="_Path_5" data-name="&lt;Path&gt;" d="M84.61,30.88H80.79V19.08h3.86V8.34H98.29V19h6V30.88h-6v8.6c0,1.36.53,1.93,1.84,2.06.92.09,1.84,0,2.76,0H104v10.7c0,.44,0,.79-.57.83-3.9.44-7.85,1-11.8.22-4.65-.88-7-3.68-7-8.47V31.45C84.65,31.28,84.61,31.15,84.61,30.88Z"/>
        <path id="_Path_6" data-name="&lt;Path&gt;" d="M125.67,19.13V53H112.11V30.93h-4V19.13Z"/>
        <path id="_Path_7" data-name="&lt;Path&gt;" d="M118.82,0a8.31,8.31,0,1,1-8.29,8.25A8.22,8.22,0,0,1,118.82,0Z"/>
      </g>
    </g>
  </g>
</svg>
