<?xml version="1.0" encoding="utf-8"?>
<!-- Generator: Adobe Illustrator 18.1.1, SVG Export Plug-In . SVG Version: 6.00 Build 0)  -->
<svg version="1.1" id="Layer_1" xmlns="http://www.w3.org/2000/svg" xmlns:xlink="http://www.w3.org/1999/xlink" x="0px" y="0px"
	 viewBox="0 0 200 80" viewport-fill="red" xml:space="preserve">

<g>
	<g>
		<g>
			<path fill="#99999A" d="M6.1,30.4c-1.6,7.6,2.3,15.1,9.2,18.3c-0.5-1.5-0.7-2.9-0.9-4.4c-2.6-3-3.8-7.2-2.9-11.6
				c0.7-3.4,2.7-6.2,5.2-8.1c1.1-2.7,2.7-5.1,4.7-7.1C14.2,17.9,7.7,23,6.1,30.4z"/>
		</g>
		<g>
			<path fill="#99999A" d="M38.9,37.5c-0.5,2.5-1.6,4.7-3.1,6.5c-0.9-0.1-1.8-0.3-2.6-0.6c1.2-1.6,2.1-3.4,2.6-5.5
				c0.7-3.4,0.2-6.8-1.4-9.5c-1.2-2.1-2.9-3.8-5-4.8c-0.9-0.5-1.9-0.8-2.9-1c-0.1,0-0.2,0-0.3-0.1c0.1-0.1,0.2-0.3,0.3-0.4
				c0.4-0.5,0.9-0.9,1.4-1.4c0.1-0.1,0.2-0.2,0.3-0.2c0.3-0.2,0.6-0.4,0.9-0.7c0.1-0.1,0.2-0.1,0.3-0.2c0,0,0.1-0.1,0.1-0.1
				c0.1-0.1,0.3-0.2,0.4-0.3c2,1,3.8,2.3,5.2,3.9c1.5,1.6,2.6,3.5,3.3,5.6C39.4,31.5,39.6,34.5,38.9,37.5z"/>
		</g>
	</g>
	<path fill="#77777A" d="M51.6,38.6c0-0.2-0.1-0.4-0.2-0.6c0-0.1-0.1-0.2-0.1-0.3l-0.1-0.4c-0.1-0.4-0.3-0.8-0.5-1.3
		c-2.4-6-7.5-10.1-13.2-11.4c0.7,1,1.2,2.1,1.7,3.2c3.9,1.1,7.3,3.8,8.9,7.8c0.6,1.5,0.9,3,0.9,4.5c0,0.4,0,0.8,0,1.2
		c0,0.4-0.1,0.7-0.1,1.1c0,0.3-0.1,0.6-0.2,0.9c0,0.1-0.1,0.2-0.1,0.4c-0.1,0.3-0.2,0.6-0.3,0.9c0,0.1-0.1,0.2-0.1,0.3
		c0,0.1-0.1,0.2-0.1,0.3c-0.1,0.3-0.3,0.7-0.4,1c-0.3,0.5-0.6,1.1-0.9,1.6c-0.1,0.1-0.1,0.2-0.2,0.3c-0.1,0.1-0.1,0.2-0.2,0.3
		c-0.1,0.1-0.1,0.2-0.2,0.3c-0.2,0.3-0.4,0.5-0.6,0.8c-0.3,0.3-0.6,0.7-0.9,1c-0.1,0.1-0.2,0.2-0.3,0.3c-0.1,0.1-0.2,0.2-0.3,0.3
		c-0.1,0.1-0.2,0.2-0.3,0.3c-0.2,0.2-0.4,0.3-0.7,0.5c-0.1,0.1-0.2,0.2-0.3,0.2c-1,0.7-2,1.2-3.1,1.7h0c-0.1,0-0.2,0.1-0.4,0.1
		c0,0,0,0-0.1,0L39,54C33.7,56,28,54.8,24.2,51.4c0,0-0.1-0.1-0.1-0.1c-0.4-0.4-0.8-0.8-1.2-1.2c-0.1-0.1-0.1-0.2-0.2-0.3
		c-0.1-0.2-0.3-0.4-0.4-0.5c-0.1-0.1-0.1-0.2-0.2-0.3L22,48.7c-0.2-0.3-0.3-0.5-0.5-0.8c-0.1-0.1-0.1-0.1-0.2-0.2
		c-0.7-0.7-1.3-1.4-1.8-2.2c-1.6-2.2-2.8-4.7-3.5-7.3c-0.9,3.7-0.7,7.7,0.9,11.5c3.9,9.6,14.6,14.3,24,10.6
		C47,57.8,51.1,52.2,52,45.9c0.1-0.4,0.1-0.9,0.1-1.3l0-0.3c0,0,0,0,0,0c0-0.2,0-0.3,0-0.5c0-0.4,0-0.7,0-1.1
		C52.1,41.3,52,40,51.6,38.6z M29.4,28.5c1-0.4,2.1-0.7,3.2-0.9c-0.9-1.2-2-2.2-3.3-2.9c-0.8,0.2-1.6,0.5-2.4,0.8
		c-1.1,0.4-2.2,1-3.1,1.6c-0.1,0.4-0.2,0.8-0.3,1.1c-0.1,0.8-0.2,1.6-0.2,2.3c0,0.7,0.1,1.5,0.2,2.2C24.9,31,27,29.5,29.4,28.5z"/>
	<path fill="#D9272E" d="M56.8,32.7c0-11.3-9.1-20.4-20.3-20.4c-11.2,0-20.3,9.1-20.3,20.4c0,0.4,0,0.9,0,1.3c0,0.7,0.1,1.4,0.2,2.1
		c0.5,3.2,1.9,6.2,3.7,8.8c0.6,0.8,1.3,1.6,2.1,2.4c3.7,3.6,8.7,5.8,14.2,5.8c0.8,0,1.5,0,2.3-0.1c0.1,0,0.3-0.1,0.4-0.1
		c1-0.4,2-0.9,2.9-1.6c3.1-2.1,5.2-5.4,5.7-8.9c-2.7,1.8-6,2.9-9.6,2.9c-7.1,0-13.1-4.2-15.2-10.1c-0.2-0.4-0.3-0.9-0.4-1.3
		c0,0,0,0,0,0c0-0.1-0.1-0.3-0.1-0.4c-0.2-0.9-0.3-1.9-0.3-2.9c0-0.9,0.1-1.7,0.2-2.5c0.1-0.6,0.2-1.1,0.4-1.6
		c1.9-6.1,8.1-10.6,15.4-10.6c8.9,0,16,6.6,16,14.7c0,2.5-0.7,4.8-1.8,6.8c0.1,0.3,0.2,0.6,0.3,0.9c0.5,2,0.7,4,0.6,5.9
		C55.5,41,56.8,37,56.8,32.7z"/>
</g>
<g>
	<g>
		<path fill="#2E2A25" d="M125.2,32.5l-5,12.8l-0.8,2.2l-1.9-4.9l-3.9-10.1h-3.3l6.1,14.4l0.9,2.3l0.3,0.6l0.4,0.9
			c-0.4,1.2-0.9,1.9-1,1.9c0,0-0.1,0.1-0.1,0.1c0,0,0,0,0,0c-0.5,0.6-1.1,1.1-1.6,1.2c-0.4,0.1-0.7,0.1-1.2,0
			c-0.5-0.1-1-0.4-1.5-0.8l-1.7,2.2c1.4,1.1,2.7,1.4,3.7,1.5c0.6,0,1.1-0.1,1.5-0.2c1.2-0.4,2.2-1.2,3.1-2.4
			c0.1-0.1,0.1-0.1,0.1-0.2c0.1-0.1,0.2-0.3,0.3-0.4c0.1-0.1,0.1-0.2,0.2-0.4c0.1-0.2,0.2-0.3,0.3-0.5c0-0.1,0.1-0.1,0.1-0.2
			c0-0.1,0.1-0.2,0.1-0.2l0.1-0.3l0.5-1.2l7.7-18.4H125.2z"/>
		<path fill="#2E2A25" d="M75.7,40.5h-6.8v9.8h-3.2V25.7h10c4,0,7.7,3,7.7,7.4C83.4,37.6,79.8,40.5,75.7,40.5z M75.7,28.6h-6.8v9.2
			l6.8,0c2.1,0,4.4-1.9,4.4-4.5C80.1,30.6,77.8,28.6,75.7,28.6z"/>
		<path fill="#2E2A25" d="M93.2,50.9c-5.2,0-9-4.2-9-9.4c0-5.2,3.8-9.4,9-9.4c5.3,0,9,4.2,9,9.4C102.2,46.6,98.5,50.9,93.2,50.9z
			 M93.2,34.5c-3.7,0-6,3.1-6,6.9c0,3.8,2.3,7,6,7c3.7,0,6-3.1,6-7C99.2,37.6,96.9,34.5,93.2,34.5z"/>
		<path fill="#2E2A25" d="M105.1,50.4l0-24.6h3l0,24.6H105.1z"/>
		<path fill="#2E2A25" d="M137.3,50.9c-5.2,0-9-4.2-9-9.4c0-5.2,3.8-9.4,9-9.4c2.2,0,4.4,0.4,7,3.1l-2,1.9c-1.7-1.8-3.1-2.5-5.1-2.5
			c-3.7,0-6,3.1-6,6.9c0,3.8,2.3,7,6,7c1.9,0,3.4-0.7,5.1-2.6l2,2C141.7,50.4,139.5,50.9,137.3,50.9z"/>
		<path fill="#2E2A25" d="M154.5,50.9c-5.2,0-9-4.2-9-9.4c0-5.2,3.8-9.4,9-9.4c5.3,0,9,4.2,9,9.4C163.6,46.6,159.8,50.9,154.5,50.9z
			 M154.5,34.5c-3.7,0-6,3.1-6,6.9c0,3.8,2.3,7,6,7c3.7,0,6-3.1,6-7C160.5,37.6,158.2,34.5,154.5,34.5z"/>
		<path fill="#2E2A25" d="M187.7,50.4c0,0,0-9.3,0-11.6c0-2.9-1.2-4.2-3.4-4.2c-1.9,0-3.3,1.5-4.3,2.7c0,4.4,0,13.2,0,13.2h-3
			c0,0,0-9.3,0-11.6c0-2.9-1.2-4.2-3.4-4.2c-1.9,0-3.3,1.5-4.3,2.7v13.2h-3V32.5h3v2.2c0.8-1,2.3-2.7,5.2-2.7c2.6,0,4.2,1.2,5,3.4
			c1.1-1.5,2.8-3.4,5.7-3.4c3.6,0,5.5,2.4,5.5,6.7c0,4.4,0,11.6,0,11.6H187.7z"/>
	</g>
	<path fill="#2E2A25" d="M194.2,36.4c-1.2,0-2.2-1-2.2-2.2c0-1.2,1-2.2,2.2-2.2c1.2,0,2.2,1,2.2,2.2
		C196.4,35.4,195.5,36.4,194.2,36.4z M194.2,32.3c-1.1,0-1.9,0.8-1.9,1.9c0,1,0.8,1.9,1.9,1.9c1,0,1.9-0.9,1.9-1.9
		C196.1,33.2,195.3,32.3,194.2,32.3z M194.8,35.5l-0.7-1h-0.4v1h-0.3V33h1c0.4,0,0.8,0.3,0.8,0.8c0,0.6-0.5,0.7-0.6,0.7l0.7,1H194.8
		z M194.4,33.3h-0.7v0.9h0.7c0.2,0,0.5-0.2,0.5-0.4C194.9,33.5,194.6,33.3,194.4,33.3z"/>
</g>
</svg>
