<svg xmlns="http://www.w3.org/2000/svg" viewBox="0 0 300 134.23">
  <title>Asset 15</title>
  <g id="Layer_2" data-name="Layer 2">
    <g id="Layer_1-2" data-name="Layer 1">
      <g>
        <g id="g6">
          <path id="path10" d="M24,.43C17.26,1.87,11.23,6.2,9.16,11.1c-2.26,5.52-1.76,13.56,1.44,22,2.38,6.34,2.13,6.21,8.91,3.26,12.05-5.27,22-7.47,36.34-8.1,8.54-.38,17.32.56,21.72,2.32,3.08,1.26,5.27,1.32,5.27.19,0-1.32-12.87-13.93-19-18.58S50.15,3.5,44.25,1.68C39.29.18,28.37-.51,24,.43Z" style="fill: #5c3795"/>
          <path id="path12" d="M195.31,23.71C185,25,177.55,28.67,170.4,35.89c-5.77,5.77-9.35,11.67-12.55,20.59-4.39,12.3-5.33,25.1-2.26,31.44,2.07,4.27,6.9,8.22,11.86,9.92,3.7,1.19,5.84,1.38,18.77,1.63,13.56.19,14.56.13,15.13-.94.94-1.76,5.27-16.57,5.59-19l.31-2.2-9.1.19c-10.17.25-12.18-.25-13.93-3.64-1.26-2.45-1.19-4.39.38-10,2.57-9.23,6.15-15,10.86-17.51,2.32-1.26,9.73-1.32,16.57-.13,2.51.38,4.71.63,4.9.44.5-.44,5.9-19.39,5.9-20.59,0-1.44-.94-1.76-9-2.45S201,23,195.31,23.71Z" style="fill: #5c3795"/>
          <path id="path14" d="M99.85,25.09a8.29,8.29,0,0,0-2.64,2.32C96,29.11,75.06,98.27,75.56,98.84c.31.31,26.86.19,27.18-.13.13-.06,1.44-4.52,3.08-9.85,5.15-17.32,5.59-18.45,7-18.64a4.17,4.17,0,0,1,2.76,1.07c1.44,1.19,1.51,1.51,2.07,14.37l.56,13.24,13.87.19c7.66.13,14,.13,14.18,0s-.38-6.28-1.07-13.74c-1.07-10.29-1.69-14.12-2.64-16.07a19.58,19.58,0,0,1-1.13-2.57c1.95-.5,7.22-4,9.92-6.53,5-4.64,6.9-9.23,7.34-16.82s-.13-9.85-2.82-12.87S150.25,26,145.73,25C140.9,24,101.86,24,99.85,25.09Zm30.94,16.82c2.07.94,2.45,2.07,1.51,5s-3.08,5.33-5.59,5.84c-2.82.56-9.23.44-9.6-.13s2.2-9.41,3.08-10.73C120.69,41,128.85,41,130.79,41.91Z" style="fill: #5c3795"/>
          <path id="path16" d="M231.28,24.91c-2.32.94-4,3.45-5.33,8.16-.75,2.57-5.46,18.39-10.42,35.08s-9,30.44-8.79,30.63,26.74.44,27,.13c.06-.13,2.38-7.72,5-16.88s5.15-16.88,5.46-17.2c.63-.69.82.38,2.07,10,.5,4.14,1.44,11.3,2,15.88L249.35,99l14.44-.13,14.44-.19,10.92-36.34c6-20,10.86-36.78,10.86-37.22,0-.63-2.26-.82-10.36-.82-11.42,0-13.37.44-14.94,3.64-.5.94-2.82,8.16-5.21,16.07-3.26,10.92-4.39,14-4.77,12.87-.25-.82-1.32-8.16-2.38-16.26s-2.07-15.13-2.2-15.56-3.51-.75-13.93-.69C238.68,24.34,232,24.59,231.28,24.91Z" style="fill: #5c3795"/>
          <path id="path18" d="M47.38,30.55a82.35,82.35,0,0,0-19.46,4.21C9.16,41.22,0,48.94,0,58.23a14.9,14.9,0,0,0,.63,4.58c.88,2.32,5,6.65,6.34,6.65,1.82,0,11.55-2.76,15.31-4.39.69-.31,3.83-1.44,6.9-2.57,5.08-1.82,20.65-8.28,32-13.31,5.59-2.45,22.22-10.92,23.35-11.8,2.32-1.95.06-3.77-7-5.59C71.67,30.3,55.67,29.61,47.38,30.55Z" style="fill: #4ab749"/>
        </g>
        <g>
          <path d="M76.41,133.21a3.3,3.3,0,0,1-1.33-2.76q0-3.49,5-3.76l4-.22V125.3q0-2.43-3.13-2.43a4.58,4.58,0,0,0-2.07.41,1.93,1.93,0,0,0-1.05,1.17H75.64A3.38,3.38,0,0,1,77.36,122a6.94,6.94,0,0,1,3.71-.93A6,6,0,0,1,85,122.2a3.8,3.8,0,0,1,1.37,3.11V134h-2.1v-1.87H84a4.4,4.4,0,0,1-1.77,1.56,5.57,5.57,0,0,1-2.49.54A5.33,5.33,0,0,1,76.41,133.21ZM83,131.53a2.82,2.82,0,0,0,1.12-2.27V128.1l-3.72.22q-3,.19-3,2.07a1.73,1.73,0,0,0,.79,1.51,3.47,3.47,0,0,0,2,.54A4.34,4.34,0,0,0,83,131.53Z" style="fill: #5d5d5d"/>
          <path d="M101.59,121.3V134h-2.1v-2h-.21a3.59,3.59,0,0,1-1.6,1.64,5.68,5.68,0,0,1-2.68.58A4.71,4.71,0,0,1,91.47,133a4.76,4.76,0,0,1-1.2-3.48V121.3h2.21V129a3.69,3.69,0,0,0,.74,2.53,3.08,3.08,0,0,0,2.39.82,3.86,3.86,0,0,0,2.8-.94,3.48,3.48,0,0,0,1-2.62V121.3Z" style="fill: #5d5d5d"/>
          <path d="M106.67,118h2.21v3.29H112V123h-3.08v7.19a2.29,2.29,0,0,0,.49,1.63,2.09,2.09,0,0,0,1.56.51h.51l.52,0V134l-.64.09-.65,0a4.72,4.72,0,0,1-3.06-.79,3.25,3.25,0,0,1-.93-2.6V123h-2.23v-1.7h2.23Z" style="fill: #5d5d5d"/>
          <path d="M115.42,134V116.25h2.21v7h.21a3.77,3.77,0,0,1,1.6-1.64,5.47,5.47,0,0,1,2.66-.59,4.83,4.83,0,0,1,3.48,1.23,4.57,4.57,0,0,1,1.29,3.47V134h-2.21v-7.73a3.51,3.51,0,0,0-.81-2.53,3.16,3.16,0,0,0-2.38-.84,3.86,3.86,0,0,0-2.85,1,3.5,3.5,0,0,0-1,2.6V134Z" style="fill: #5d5d5d"/>
          <path d="M131.91,132.47a7.63,7.63,0,0,1,0-9.64,7.07,7.07,0,0,1,9.33,0,7.63,7.63,0,0,1,0,9.64,7.05,7.05,0,0,1-9.33,0Zm7.69-1.31a6.3,6.3,0,0,0,0-7,4.31,4.31,0,0,0-6.05,0,6.3,6.3,0,0,0,0,7,4.29,4.29,0,0,0,6.05,0Z" style="fill: #5d5d5d"/>
          <path d="M146.41,134V121.3h2.1v1.89h.21a2.74,2.74,0,0,1,1.39-1.52,5,5,0,0,1,2.45-.59l.58,0,.52,0v2a4.52,4.52,0,0,0-.6-.08q-.47,0-.81,0a3.88,3.88,0,0,0-2.6.87,2.78,2.78,0,0,0-1,2.22V134Z" style="fill: #5d5d5d"/>
          <path d="M156.49,118.3a1.32,1.32,0,0,1,0-2,1.64,1.64,0,0,1,2.17,0,1.34,1.34,0,0,1,0,2,1.62,1.62,0,0,1-2.17,0Zm0,15.71V121.3h2.21V134Z" style="fill: #5d5d5d"/>
          <path d="M162.56,134v-1.49l8-9.34V123h-8v-1.7h10.6v1.52l-7.94,9.3v.19h8V134Z" style="fill: #5d5d5d"/>
          <path d="M186.2,130.71h2.21a4.49,4.49,0,0,1-2,2.58,7.14,7.14,0,0,1-3.8.94,6,6,0,0,1-4.55-1.77,7.65,7.65,0,0,1,0-9.58,5.94,5.94,0,0,1,4.54-1.8,5.73,5.73,0,0,1,4.4,1.72,6.57,6.57,0,0,1,1.6,4.67v.78h-9.94v.09a4.44,4.44,0,0,0,1.16,3,3.75,3.75,0,0,0,2.83,1.11,5,5,0,0,0,2.23-.44A2.9,2.9,0,0,0,186.2,130.71Zm-6.36-6.82a4,4,0,0,0-1.19,2.71h7.62a3.82,3.82,0,0,0-1.05-2.71,3.57,3.57,0,0,0-2.66-1A3.76,3.76,0,0,0,179.84,123.89Z" style="fill: #5d5d5d"/>
          <path d="M192.94,132.44a8,8,0,0,1,0-9.57,5.37,5.37,0,0,1,4.22-1.79,5.61,5.61,0,0,1,2.6.59,4.07,4.07,0,0,1,1.74,1.64h.19v-7h2.21V134h-2.1v-2h-.21a4.48,4.48,0,0,1-1.82,1.66,5.65,5.65,0,0,1-2.6.6A5.36,5.36,0,0,1,192.94,132.44Zm1.78-8.27a6.19,6.19,0,0,0,0,7,4.12,4.12,0,0,0,5.95,0,6.06,6.06,0,0,0,0-6.94,4.09,4.09,0,0,0-5.93,0Z" style="fill: #5d5d5d"/>
          <path d="M215.6,134V121.3h2.1v1.89h.21a2.74,2.74,0,0,1,1.39-1.52,5,5,0,0,1,2.45-.59l.58,0,.52,0v2a4.52,4.52,0,0,0-.6-.08q-.47,0-.81,0a3.88,3.88,0,0,0-2.6.87,2.78,2.78,0,0,0-1,2.22V134Z" style="fill: #5d5d5d"/>
          <path d="M234.77,130.71H237a4.49,4.49,0,0,1-2,2.58,7.14,7.14,0,0,1-3.8.94,6,6,0,0,1-4.55-1.77,7.65,7.65,0,0,1,0-9.58,5.94,5.94,0,0,1,4.54-1.8,5.73,5.73,0,0,1,4.4,1.72,6.57,6.57,0,0,1,1.6,4.67v.78h-9.94v.09a4.44,4.44,0,0,0,1.16,3,3.75,3.75,0,0,0,2.83,1.11,5,5,0,0,0,2.23-.44A2.9,2.9,0,0,0,234.77,130.71Zm-6.36-6.82a4,4,0,0,0-1.19,2.71h7.62a3.82,3.82,0,0,0-1.05-2.71,3.57,3.57,0,0,0-2.66-1A3.76,3.76,0,0,0,228.41,123.89Z" style="fill: #5d5d5d"/>
          <path d="M241.54,118h2.21v3.29h3.08V123h-3.08v7.19a2.29,2.29,0,0,0,.49,1.63,2.09,2.09,0,0,0,1.56.51h.51l.52,0V134l-.64.09-.65,0a4.72,4.72,0,0,1-3.06-.79,3.25,3.25,0,0,1-.93-2.6V123h-2.23v-1.7h2.23Z" style="fill: #5d5d5d"/>
          <path d="M250.67,133.21a3.3,3.3,0,0,1-1.33-2.76q0-3.49,5-3.76l4-.22V125.3q0-2.43-3.13-2.43a4.58,4.58,0,0,0-2.07.41,1.93,1.93,0,0,0-1.05,1.17h-2.23a3.38,3.38,0,0,1,1.72-2.46,6.94,6.94,0,0,1,3.71-.93,6,6,0,0,1,3.89,1.13,3.8,3.8,0,0,1,1.37,3.11V134h-2.1v-1.87h-.21a4.4,4.4,0,0,1-1.77,1.56,5.57,5.57,0,0,1-2.49.54A5.33,5.33,0,0,1,250.67,133.21Zm6.58-1.67a2.82,2.82,0,0,0,1.12-2.27V128.1l-3.72.22q-3,.19-3,2.07a1.73,1.73,0,0,0,.79,1.51,3.47,3.47,0,0,0,2,.54A4.34,4.34,0,0,0,257.25,131.53Z" style="fill: #5d5d5d"/>
          <path d="M264.73,118.3a1.32,1.32,0,0,1,0-2,1.64,1.64,0,0,1,2.17,0,1.34,1.34,0,0,1,0,2,1.62,1.62,0,0,1-2.17,0Zm0,15.71V121.3h2.21V134Z" style="fill: #5d5d5d"/>
          <path d="M271.25,134V116.25h2.21V134Z" style="fill: #5d5d5d"/>
          <path d="M286.9,130.71h2.21a4.49,4.49,0,0,1-2,2.58,7.14,7.14,0,0,1-3.8.94,6,6,0,0,1-4.55-1.77,7.65,7.65,0,0,1,0-9.58,5.94,5.94,0,0,1,4.54-1.8,5.73,5.73,0,0,1,4.4,1.72,6.57,6.57,0,0,1,1.6,4.67v.78h-9.94v.09a4.44,4.44,0,0,0,1.16,3,3.75,3.75,0,0,0,2.83,1.11,5,5,0,0,0,2.23-.44A2.9,2.9,0,0,0,286.9,130.71Zm-6.36-6.82a4,4,0,0,0-1.19,2.71H287a3.82,3.82,0,0,0-1.05-2.71,3.57,3.57,0,0,0-2.66-1A3.76,3.76,0,0,0,280.54,123.89Z" style="fill: #5d5d5d"/>
          <path d="M292.75,134V121.3h2.1v1.89h.21a2.74,2.74,0,0,1,1.39-1.52,5,5,0,0,1,2.45-.59l.58,0,.52,0v2a4.52,4.52,0,0,0-.6-.08q-.47,0-.81,0a3.88,3.88,0,0,0-2.6.87,2.78,2.78,0,0,0-1,2.22V134Z" style="fill: #5d5d5d"/>
        </g>
      </g>
    </g>
  </g>
</svg>
