<svg xmlns="http://www.w3.org/2000/svg" viewBox="0 0 300 110.25">
  <title>Asset 21</title>
  <g id="Layer_2" data-name="Layer 2">
    <g id="Layer_1-2" data-name="Layer 1">
      <g>
        <g>
          <g>
            <path d="M40.46,95.09h7.72c2.67,0,5.31,1.21,5.31,4.27a3.9,3.9,0,0,1-2.38,3.8v0c1.61.38,2.08,2.19,2.21,3.63,0,.64.11,2.86.64,3.42h-3.9a7.35,7.35,0,0,1-.45-2.42c-.11-1.53-.36-3.1-2.21-3.1h-3v5.52H40.46Zm3.95,6.58h3.31a1.62,1.62,0,0,0,1.82-1.78c0-1.12-.89-1.63-2-1.63H44.41Z" style="fill: #808285"/>
            <path d="M55.9,95.09H68v3.16H59.85v2.65h7.43V104H59.85v2.89h8.34v3.4H55.9Z" style="fill: #808285"/>
            <path d="M82.69,98.49H78.17v11.76H74.22V98.49H69.7v-3.4h13Z" style="fill: #808285"/>
            <path d="M86.6,95.09h4l5.67,15.15H92.16l-.93-2.72H85.94l-1,2.72H80.93Zm.25,9.51h3.44L88.61,99.3h0Z" style="fill: #808285"/>
            <path d="M97.79,95.09h3.95v15.15H97.79Z" style="fill: #808285"/>
            <path d="M104.38,95.09h3.95v11.76h7.07v3.4h-11Z" style="fill: #808285"/>
            <path d="M117.33,95.09h12.08v3.16h-8.13v2.65h7.43V104h-7.43v2.89h8.34v3.4H117.33Z" style="fill: #808285"/>
            <path d="M131.73,95.09h7.72c2.67,0,5.31,1.21,5.31,4.27a3.9,3.9,0,0,1-2.38,3.8v0c1.61.38,2.08,2.19,2.21,3.63,0,.64.11,2.86.64,3.42h-3.9a7.35,7.35,0,0,1-.45-2.42c-.11-1.53-.36-3.1-2.21-3.1h-3v5.52h-3.95Zm3.95,6.58H139a1.62,1.62,0,0,0,1.82-1.78c0-1.12-.89-1.63-2-1.63h-3.14Z" style="fill: #808285"/>
          </g>
          <g>
            <path d="M44.85,73.87h4L54.53,89H50.41l-.93-2.72H44.19l-1,2.72H39.18Zm.25,9.51h3.44l-1.68-5.31h0Z" style="fill: #808285"/>
            <path d="M68.61,82.76c0,4.39-2,6.58-6.6,6.58s-6.6-2.19-6.6-6.58V73.87h3.95V83c0,2,.72,2.95,2.65,2.95s2.65-1,2.65-2.95V73.87h3.95Z" style="fill: #808285"/>
            <path d="M83.32,77.27H78.8V89H74.85V77.27H70.33v-3.4h13Z" style="fill: #808285"/>
            <path d="M85,73.87H89v5.52h5.2V73.87h3.95V89H94.19V82.79H89V89H85Z" style="fill: #808285"/>
            <path d="M107.73,73.55c4.77,0,7.47,3.5,7.47,7.89s-2.7,7.89-7.47,7.89-7.47-3.5-7.47-7.89S103,73.55,107.73,73.55Zm0,12.39c2.55,0,3.52-2.25,3.52-4.5s-1-4.5-3.52-4.5-3.52,2.25-3.52,4.5S105.18,85.95,107.73,85.95Z" style="fill: #808285"/>
            <path d="M117.31,73.87H125c2.67,0,5.31,1.21,5.31,4.27a3.9,3.9,0,0,1-2.38,3.8v0c1.61.38,2.08,2.19,2.21,3.63,0,.64.11,2.86.64,3.42h-3.9a7.35,7.35,0,0,1-.45-2.42c-.11-1.53-.36-3.1-2.21-3.1h-3V89h-3.95Zm3.95,6.58h3.31a1.62,1.62,0,0,0,1.82-1.78c0-1.12-.89-1.63-2-1.63h-3.14Z" style="fill: #808285"/>
            <path d="M132.74,73.87h3.95V89h-3.95Z" style="fill: #808285"/>
            <path d="M138.81,85.8l7.77-8.53h-7.3v-3.4h12.39v3.06l-8,8.7h8.23V89H138.81Z" style="fill: #808285"/>
            <path d="M154.06,73.87h12.08V77H158v2.65h7.43v3.06H158v2.89h8.34V89H154.06Z" style="fill: #808285"/>
            <path d="M168.46,73.87H175c4.65,0,7.43,2.82,7.43,7.51,0,5-2.82,7.64-7.43,7.64h-6.52Zm3.95,11.76h1.87c3-.06,4.18-1.23,4.18-4.27,0-2.76-1.49-4.1-4.18-4.1H172.4Z" style="fill: #808285"/>
          </g>
        </g>
        <g>
          <g>
            <path d="M5.5,45.79q4.67,4,14,4,9.08,0,14-3.85,5-4.13,4.95-11.55A12.79,12.79,0,0,0,37,28a11.08,11.08,0,0,0-4.63-4.42,19.87,19.87,0,0,0-3.6-1.39c-1.69-.52-10.07-2.81-10.92-3-4.67-1.14-7.64-2.7-7.66-5.46C10.42,8.4,15.4,8,18.15,8a11.31,11.31,0,0,1,6.74,1.79A6.19,6.19,0,0,1,27.52,15h9.33A15.27,15.27,0,0,0,31.9,3.85Q27.36,0,19,0,10,0,5.36,3.71A13,13,0,0,0,.69,14.3C.7,20.07,3.44,23.47,5.91,25a32.71,32.71,0,0,0,9.35,3.16L19,29c6.45,1.57,10.15,3.56,10,6.75a5.17,5.17,0,0,1-2.2,4.4,11.88,11.88,0,0,1-6.46,1.51,13,13,0,0,1-7.56-1.92Q10.17,38.09,9.62,34H0Q.41,41.8,5.5,45.79" style="fill: #808285"/>
            <path d="M49.86,58a4.66,4.66,0,0,1-4.7,4.7h-4.7V28.27c.55-9.15,3.88-16.45,17.78-16.95,6,.08,10.38,2.47,13,5.48,2.76,3.59,3.95,8.06,3.95,13.68q0,8.71-4.15,14.1a13,13,0,0,1-10.64,5.25,17,17,0,0,1-10.51-3.21C49.86,46.93,49.86,58,49.86,58ZM65.61,30.89c0-3.59-.66-11.19-8-11.19-7,0-7.74,7.42-7.74,11.19,0,9.56,5.44,10.78,8,10.78C64.55,41.67,65.61,34.59,65.61,30.89Z" style="fill: #808285"/>
            <path d="M94.11,19.43c5.91-.08,6.83,4.95,7,7.42h-14S87,19.56,94.11,19.43Zm.41,22.14c-2.38-.12-6.92-.59-7.33-8.52H111c0-.24,0-2.86,0-2.86-.16-6-1.6-10.44-4.4-13.78q-4.54-4.95-12.79-4.95-7.83,0-12.24,5.09T77.34,30.29q0,9.21,4.4,14.16T94,49.54a17.51,17.51,0,0,0,10.73-3.16,15,15,0,0,0,5.79-8.81h-8.28C101,41,97.87,41.74,94.52,41.57Z" style="fill: #808285"/>
            <path d="M137.29,37.58h9s-2.45,12-16.11,12-17-11-17-18.15,1.28-19.5,16.48-19.93c14-.21,16.36,12,16.36,12h-9.62s-.93-4.12-6.66-4-7.22,5.51-7.22,10.62,1.27,11.51,7.63,11.51C136.23,41.75,136.76,38.48,137.29,37.58Z" style="fill: #808285"/>
            <path d="M158,22.06h5.65V12.42H158V6.23a4.41,4.41,0,0,0-4.54-4.67h-5V42c0,4.22,1.64,6.74,5.18,6.74H158Z" style="fill: #808285"/>
            <path d="M173.72,48.79V30q0-4.12,1.92-6T181.55,22h3.16V12.22a33.21,33.21,0,0,0-8.59,1,18.1,18.1,0,0,0-6.12,3A14.9,14.9,0,0,0,165.67,22a22.63,22.63,0,0,0-1.58,9V48.79Z" style="fill: #808285"/>
            <path d="M187.44,12.27h9.62V35.65S196.72,42,203.39,42a6,6,0,0,0,6.46-6.06V16.81s.33-4.54,4.5-4.54h5s0,21.5,0,21.71c-.07,1.18,1.26,15.56-15.95,15.5-17,0-15.84-14.55-16-15.4Z" style="fill: #808285"/>
            <path d="M254.09,48.91h-9.53V25.42c0-2.71-1.12-6.36-6.5-6.36s-6.35,4.15-6.35,6.36V48.91H222V27.35c0-6.26,1.86-10.09,4.91-12.57s6.88-3.27,10.85-3.45A28,28,0,0,1,244,12a13.09,13.09,0,0,1,5.53,2.76,12.23,12.23,0,0,1,4.91-2.56,23.12,23.12,0,0,1,5.87-.9c11.8-.06,16.53,5.34,16.93,7.07,0,0,0,30.51,0,30.51h-5.46a4.63,4.63,0,0,1-4.7-4.7V25.42c0-2.66-.91-6.36-6.49-6.36s-6.5,4.15-6.5,6.36Z" style="fill: #808285"/>
          </g>
          <polygon points="279.92 18.38 279.92 48.86 300 33.62 279.92 18.38" style="fill: #006da4"/>
        </g>
      </g>
    </g>
  </g>
</svg>
