<?xml version="1.0" encoding="UTF-8" standalone="no"?>
<svg width="128px" height="40px" viewBox="0 0 128 40" version="1.1" xmlns="http://www.w3.org/2000/svg" xmlns:xlink="http://www.w3.org/1999/xlink" xmlns:sketch="http://www.bohemiancoding.com/sketch/ns">
    <!-- Generator: Sketch 3.2.2 (9983) - http://www.bohemiancoding.com/sketch -->
    <title>time-warner-cable</title>
    <desc>Created with Sketch.</desc>
    <defs>
        <path id="path-1" d="M0.0212486273,0.0764044944 L79.9291908,0.0764044944 L79.9291908,33.9770787 L0.0212486273,33.9770787"></path>
    </defs>
    <g id="Page-1" stroke="none" stroke-width="1" fill="none" fill-rule="evenodd" sketch:type="MSPage">
        <g id="Artboard" sketch:type="MSArtboardGroup" transform="translate(-111.000000, -93.000000)">
            <g id="Group" sketch:type="MSLayerGroup" transform="translate(111.000000, 93.000000)">
                <g id="time-warner-cable">
                    <rect id="rectangle" opacity="0" fill="#FFFFFF" sketch:type="MSShapeGroup" x="0" y="0" width="128" height="40"></rect>
                    <g transform="translate(24.000000, 3.000000)">
                        <g id="Group-3">
                            <mask id="mask-2" sketch:name="Clip 2" fill="white">
                                <use xlink:href="#path-1"></use>
                            </mask>
                            <g id="Clip-2"></g>
                            <path d="M0,12.9497978 C0,13.3589438 0.203278535,13.7551011 0.557776468,13.9663596 C1.07624298,14.2765618 1.73211727,14.0729438 2.02180689,13.5075506 C5.3684657,7.00820225 11.2592935,2.68905618 17.9713807,2.68905618 C23.8126284,2.68905618 29.744891,6.58492135 33.5604362,12.3805843 C31.5736895,15.3817528 29.1123902,17.8075955 26.5622008,19.3945169 C27.2318867,18.2484494 27.680941,16.914809 27.680941,15.486427 C27.680941,10.1308539 23.3341801,5.7918427 17.9713807,5.7918427 C11.6169787,5.7918427 6.46737388,11.1730112 6.46737388,17.816382 C6.46737388,26.1715955 12.9917649,33.0560225 21.3987843,33.9980899 C21.4370318,33.9980899 21.4770501,34 21.5117562,34 C22.0599708,34 22.5263781,33.557236 22.5858743,32.9597528 C22.6489119,32.3198652 22.2207521,31.7464494 21.6254363,31.6799775 C14.3038676,30.8689438 8.62092226,24.9682247 8.62092226,17.816382 C8.62092226,12.461191 12.8076101,8.11683146 17.9713807,8.11683146 C22.1424863,8.11683146 25.521018,11.4186517 25.521018,15.486427 C25.521018,18.6621798 22.9258523,21.3057753 20.129533,21.3057753 C17.3491501,21.3057753 15.0957332,19.2210787 15.0957332,16.6508315 C15.0957332,14.9363146 16.3837541,13.5476629 17.9713807,13.5476629 C19.2137171,13.5476629 20.2435673,14.517618 20.452158,15.793573 C20.5530889,16.4254382 21.1136986,16.8479551 21.7001607,16.7390787 C22.2876852,16.6214157 22.6793683,16.0208764 22.5741876,15.3867191 C22.1924205,13.0208539 20.2768568,11.2215281 17.9713807,11.2215281 C15.1909978,11.2215281 12.9375809,13.6523371 12.9375809,16.6508315 C12.9375809,20.5088764 16.1585187,23.6322921 20.129533,23.6322921 C25.668696,23.6322921 32.0425759,19.1851685 36.155956,12.3805843 C32.0188483,5.25739326 24.9880316,0.360629213 17.9713807,0.360629213 C10.4546788,0.360629213 3.85379271,5.15844944 0.135991215,12.3805843 C0.0428513985,12.5658652 0,12.7587865 0,12.9497978" id="Fill-1" fill="#065399" sketch:type="MSShapeGroup" mask="url(#mask-2)"></path>
                        </g>
                        <path d="M42.7118658,1.84937079 L42.7118658,8.83923596 C42.7118658,9.55552809 42.2829977,9.89323596 41.7454074,9.89323596 L41.7206174,9.89323596 C41.1823188,9.89323596 40.756638,9.55552809 40.756638,8.83923596 L40.756638,1.84937079 L39.0004389,1.84937079 C38.5485515,1.84937079 38.3112751,1.58997753 38.3112751,1.11665169 L38.3112751,1.08876404 C38.3112751,0.615820225 38.5485515,0.360247191 39.0004389,0.360247191 L44.4652317,0.360247191 C44.9181816,0.360247191 45.155458,0.615820225 45.155458,1.08876404 L45.155458,1.11665169 C45.155458,1.58997753 44.9181816,1.84937079 44.4652317,1.84937079 L42.7118658,1.84937079" id="Fill-4" fill="#065399" sketch:type="MSShapeGroup"></path>
                        <path d="M46.9236979,2.1691236 C46.3715878,2.1691236 45.9228876,1.71222472 45.9228876,1.13307865 C45.9228876,0.549348315 46.3715878,0.0764044944 46.9236979,0.0764044944 C47.4754539,0.0764044944 47.9124674,0.549348315 47.9124674,1.13307865 C47.9124674,1.71222472 47.4754539,2.1691236 46.9236979,2.1691236 M47.8242856,8.91907865 C47.8242856,9.55285393 47.4627048,9.89285393 46.9236979,9.89285393 L46.8974913,9.89285393 C46.3602552,9.89285393 45.9944246,9.55285393 45.9944246,8.91907865 L45.9944246,3.65824719 C45.9944246,2.98435955 46.2483457,2.65811236 46.8610145,2.65811236 L46.8974913,2.65811236 C47.5129932,2.65811236 47.8242856,3.07833708 47.8242856,4.06662921 L47.8242856,8.91907865" id="Fill-5" fill="#065399" sketch:type="MSShapeGroup"></path>
                        <path d="M51.1836936,4.5254382 L51.1836936,8.92022472 C51.1836936,9.55591011 50.8214045,9.89285393 50.2827518,9.89285393 L50.2583158,9.89285393 C49.7171841,9.89285393 49.3563116,9.55591011 49.3563116,8.92022472 L49.3563116,3.65824719 C49.3563116,2.98359551 49.618378,2.6588764 50.221839,2.6588764 L50.2583158,2.6588764 C50.7077243,2.6588764 51.0101631,2.89038202 51.1238433,3.49894382 C51.7131385,3.01224719 52.5772494,2.6214382 53.4657961,2.6214382 C54.1436273,2.6214382 54.7577127,2.83460674 55.0335907,3.52301124 C55.6976103,2.96793258 56.600677,2.6214382 57.4651419,2.6214382 C58.3940611,2.6214382 59.1809686,3.07833708 59.1809686,4.6018427 L59.1809686,8.92022472 C59.1809686,9.55591011 58.8204502,9.89285393 58.280381,9.89285393 L58.2552367,9.89285393 C57.7180006,9.89285393 57.3553574,9.55591011 57.3553574,8.92022472 L57.3553574,5.1068764 C57.3553574,4.42840449 57.1418087,4.20148315 56.5886361,4.20148315 C56.0623784,4.20148315 55.5701185,4.37835955 55.1841018,4.5372809 L55.1841018,8.92022472 C55.1841018,9.55591011 54.8228751,9.89285393 54.2817434,9.89285393 L54.2576616,9.89285393 C53.7165299,9.89285393 53.3549491,9.55591011 53.3549491,8.92022472 L53.3549491,5.1068764 C53.3549491,4.42840449 53.140338,4.20148315 52.5899985,4.20148315 C52.0630326,4.20148315 51.5867092,4.37835955 51.1836936,4.5254382" id="Fill-6" fill="#065399" sketch:type="MSShapeGroup"></path>
                        <path d="M62.1664007,6.71442697 C62.2538743,8.13707865 62.8828336,8.52750562 63.8963932,8.52750562 C64.9991969,8.52750562 65.2619716,7.94606742 65.6908397,7.94606742 C66.0269222,7.94606742 66.2397626,8.19132584 66.2397626,8.62377528 L66.2397626,8.66617978 C66.2397626,9.04247191 66.0538371,9.31408989 65.6773823,9.51541573 C65.201413,9.77098876 64.5504967,9.92188764 63.6215776,9.92188764 C61.465196,9.92188764 60.2858972,8.54125843 60.2858972,6.31024719 C60.2858972,4.02231461 61.6663497,2.62258427 63.4962107,2.62258427 C65.5279336,2.62258427 66.4419787,3.96883146 66.4419787,5.82278652 C66.4419787,6.39238202 66.1537057,6.71442697 65.5651187,6.71442697 L62.1664007,6.71442697 L62.1664007,6.71442697 Z M62.1894201,5.52480899 L64.6351371,5.52480899 C64.597952,4.26719101 64.2098104,3.86186517 63.4962107,3.86186517 C62.8562729,3.86186517 62.3303693,4.20110112 62.1894201,5.52480899 L62.1894201,5.52480899 Z" id="Fill-7" fill="#065399" sketch:type="MSShapeGroup"></path>
                        <path d="M47.3171517,12.6900225 C47.4308318,12.1108764 47.7442491,11.8270337 48.1695758,11.8270337 L48.207115,11.8270337 C48.8569689,11.8270337 49.1236391,12.3519326 48.9848148,13.0181798 L47.3936467,20.2231236 C47.1917848,21.1334831 46.7668122,21.4272584 46.1024385,21.4272584 L46.0280683,21.4272584 C45.3491746,21.4272584 44.9245562,21.1151461 44.721986,20.196764 L43.6574298,15.1670562 L43.630869,15.1670562 L42.5656045,20.2231236 C42.3793248,21.1334831 41.9391241,21.4272584 41.2751045,21.4272584 L41.1986094,21.4272584 C40.5221948,21.4272584 40.0968681,21.1334831 39.8957144,20.2078427 L38.3558972,13.191236 C38.1922828,12.4184045 38.4929509,11.8270337 39.205134,11.8270337 L39.2547142,11.8270337 C39.7193508,11.8270337 40.0968681,12.1628315 40.2201101,12.7729213 L41.4029504,18.7500449 L41.4252614,18.7500449 L42.7185946,12.8653708 C42.8804383,12.138764 43.2062506,11.8270337 43.759069,11.8270337 L43.7820884,11.8270337 C44.3210952,11.8270337 44.6479699,12.138764 44.8080429,12.8791236 L46.1399777,18.7500449 L46.1651219,18.7500449 L47.3171517,12.6900225" id="Fill-8" fill="#065399" sketch:type="MSShapeGroup"></path>
                        <path d="M53.201959,20.6540449 C52.724219,21.2251685 52.0973845,21.4429213 51.295603,21.4429213 C50.0670782,21.4429213 49.1633032,20.7105843 49.1633032,19.3077978 C49.1633032,17.8171461 50.266107,17.084427 51.7843214,17.084427 C52.3243907,17.084427 52.6983665,17.1405843 53.1020905,17.2494607 L53.1020905,16.5732809 C53.1020905,15.9249888 52.7766323,15.5830787 51.8962309,15.5830787 C50.8702763,15.5830787 50.6825801,16.1408315 50.1903202,16.1408315 C49.8535295,16.1408315 49.6392725,15.8424719 49.6392725,15.4623596 L49.6392725,15.4199551 C49.6392725,14.9886517 49.8032411,14.7059551 50.280981,14.501191 C50.7704078,14.2987191 51.3961798,14.1516404 52.1855663,14.1516404 C54.0030323,14.1516404 54.9319514,14.8014607 54.9319514,16.4346067 L54.9319514,20.4267416 C54.9319514,21.1052135 54.7184027,21.4268764 54.1291075,21.4268764 L54.0908599,21.4268764 C53.6531382,21.4268764 53.3514077,21.1693933 53.201959,20.6540449 M53.1020905,19.6539101 L53.1020905,18.3038427 C52.8138174,18.2473034 52.5007543,18.2213258 52.1607763,18.2213258 C51.4202616,18.2213258 50.9450006,18.5070787 50.9450006,19.1970112 C50.9450006,19.8854157 51.3579323,20.1971461 51.9709552,20.1971461 C52.42603,20.1971461 52.7989434,19.9537978 53.1020905,19.6539101" id="Fill-9" fill="#065399" sketch:type="MSShapeGroup"></path>
                        <path d="M58.1787417,15.1250337 C58.6051308,14.6096854 59.3194388,14.1753258 59.8325932,14.1753258 C60.2338381,14.1753258 60.4852802,14.3965169 60.4852802,14.9760449 L60.4852802,15.0199775 C60.4852802,15.5979775 60.2444624,15.8573708 59.7075804,15.9074157 C59.0442691,15.9639551 58.5799866,16.0846742 58.226197,16.2317528 L58.226197,20.4542472 C58.226197,21.0895506 57.8656786,21.4272584 57.3245469,21.4272584 L57.3001109,21.4272584 C56.7600417,21.4272584 56.3952736,21.0895506 56.3952736,20.4542472 L56.3952736,15.1930337 C56.3952736,14.517236 56.6594648,14.1932809 57.2611551,14.1932809 L57.3001109,14.1932809 C57.7374785,14.1932809 58.0526665,14.500809 58.1787417,15.1250337" id="Fill-10" fill="#065399" sketch:type="MSShapeGroup"></path>
                        <path d="M63.3039106,16.0586966 L63.3039106,20.4546292 C63.3039106,21.0895506 62.9419756,21.4264944 62.4033229,21.4264944 L62.3749914,21.4264944 C61.8388177,21.4264944 61.4740496,21.0895506 61.4740496,20.4546292 L61.4740496,15.1934157 C61.4740496,14.517236 61.736116,14.1932809 62.3417019,14.1932809 L62.3749914,14.1932809 C62.8275872,14.1932809 63.1286094,14.4205843 63.2437062,15.044809 C63.8560208,14.5416854 64.7852941,14.1512584 65.6749033,14.1512584 C66.6271959,14.1512584 67.4417266,14.5416854 67.4417266,16.1412135 L67.4417266,20.4546292 C67.4417266,21.0895506 67.0794375,21.4264944 66.5390141,21.4264944 L66.5131616,21.4264944 C65.9755713,21.4264944 65.6097408,21.0895506 65.6097408,20.4546292 L65.6097408,16.642427 C65.6097408,15.9379775 65.3597153,15.7305393 64.7962725,15.7305393 C64.2321215,15.7305393 63.7179047,15.8974831 63.3039106,16.0586966" id="Fill-11" fill="#065399" sketch:type="MSShapeGroup"></path>
                        <path d="M70.4257422,18.2480674 C70.5132157,19.6665169 71.1404044,20.0584719 72.1532556,20.0584719 C73.2585384,20.0584719 73.5213131,19.481618 73.9487646,19.481618 C74.2866178,19.481618 74.4969792,19.7226742 74.4969792,20.1555056 L74.4969792,20.1979101 C74.4969792,20.5768764 74.3124703,20.8435281 73.9367237,21.0509663 C73.4579213,21.3065393 72.8052343,21.4555281 71.8802107,21.4555281 C69.7245375,21.4555281 68.5427597,20.0737528 68.5427597,17.8415955 C68.5427597,15.555573 69.9232122,14.1512584 71.7559063,14.1512584 C73.7855043,14.1512584 74.7006119,15.5070562 74.7006119,17.3548989 C74.7006119,17.9218202 74.4130471,18.2480674 73.8237519,18.2480674 L70.4257422,18.2480674 L70.4257422,18.2480674 Z M70.4508864,17.0546292 L72.8944786,17.0546292 C72.8572935,15.8008315 72.469506,15.3966517 71.7559063,15.3966517 C71.1131353,15.3966517 70.5879401,15.7305393 70.4508864,17.0546292 L70.4508864,17.0546292 Z" id="Fill-12" fill="#065399" sketch:type="MSShapeGroup"></path>
                        <path d="M77.6215899,15.1250337 C78.0469165,14.6096854 78.7612246,14.1753258 79.2733165,14.1753258 C79.6745614,14.1753258 79.9291908,14.3965169 79.9291908,14.9760449 L79.9291908,15.0199775 C79.9291908,15.5979775 79.6904979,15.8573708 79.1511369,15.9074157 C78.4853466,15.9639551 78.021064,16.0846742 77.6701076,16.2317528 L77.6701076,20.4542472 C77.6701076,21.0895506 77.3081726,21.4272584 76.7670409,21.4272584 L76.7440215,21.4272584 C76.2039523,21.4272584 75.8381217,21.0895506 75.8381217,20.4542472 L75.8381217,15.1930337 C75.8381217,14.517236 76.1033754,14.1932809 76.705774,14.1932809 L76.7440215,14.1932809 C77.1803267,14.1932809 77.4933898,14.500809 77.6215899,15.1250337" id="Fill-13" fill="#065399" sketch:type="MSShapeGroup"></path>
                        <path d="M42.4976088,32.9983371 C39.9658349,32.9983371 38.3116293,31.2173483 38.3116293,28.1825618 C38.3116293,25.1573258 40.1028885,23.3144494 42.6491824,23.3144494 C43.424049,23.3144494 44.0285724,23.426764 44.5413727,23.6685843 C45.0173419,23.9008539 45.2443481,24.2118202 45.2443481,24.6966067 L45.2443481,24.735191 C45.2443481,25.2379326 44.9684701,25.5481348 44.5920152,25.5481348 C44.0391968,25.5481348 43.7261336,24.8463596 42.60881,24.8463596 C41.1716945,24.8463596 40.3171455,25.9977753 40.3171455,28.1019551 C40.3171455,30.4044045 41.0810337,31.4870562 42.5854365,31.4870562 C43.9789923,31.4870562 44.1032968,30.549191 44.7149031,30.549191 C45.1179187,30.549191 45.369715,30.8509888 45.369715,31.2937528 L45.369715,31.3625169 C45.369715,31.8652584 45.1306679,32.2274157 44.5413727,32.555573 C44.0537167,32.8233708 43.261497,32.9983371 42.4976088,32.9983371" id="Fill-14" fill="#065399" sketch:type="MSShapeGroup"></path>
                        <path d="M50.3181661,32.1892135 C49.8446759,32.7546067 49.219258,32.9715955 48.4153516,32.9715955 C47.1871809,32.9715955 46.2830518,32.2430787 46.2830518,30.8391461 C46.2830518,29.3454382 47.3858556,28.6157753 48.90407,28.6157753 C49.443431,28.6157753 49.8181151,28.6715506 50.2214849,28.7819551 L50.2214849,28.1019551 C50.2214849,27.4582472 49.8946102,27.115191 49.0163336,27.115191 C47.9900249,27.115191 47.8009121,27.6721798 47.3111312,27.6721798 C46.9718615,27.6721798 46.7593752,27.3715281 46.7593752,26.9933258 L46.7593752,26.9551236 C46.7593752,26.5219101 46.9212189,26.2357753 47.3989589,26.0363596 C47.889448,25.8335056 48.5162825,25.6826067 49.3070856,25.6826067 C51.1213643,25.6826067 52.0520541,26.3366292 52.0520541,27.9705393 L52.0520541,31.959618 C52.0520541,32.6377079 51.8385054,32.9597528 51.2492102,32.9597528 L51.2099002,32.9597528 C50.7696995,32.9597528 50.4711563,32.7022697 50.3181661,32.1892135 M50.2214849,31.1890787 L50.2214849,29.8371011 C49.9303787,29.7824719 49.6187322,29.7572584 49.2822956,29.7572584 C48.5385936,29.7572584 48.0647492,30.0376629 48.0647492,30.7260674 C48.0647492,31.416382 48.4787433,31.7284944 49.0910579,31.7284944 C49.5422371,31.7284944 49.9190461,31.4866742 50.2214849,31.1890787" id="Fill-15" fill="#065399" sketch:type="MSShapeGroup"></path>
                        <path d="M55.3470079,24.7626966 L55.3470079,26.468809 C55.8357264,26.0241348 56.4887675,25.6822247 57.3411916,25.6822247 C58.6069015,25.6822247 59.8726114,26.5776854 59.8726114,29.2380899 C59.8726114,31.9867416 58.4797639,32.9880225 57.0649595,32.9880225 C56.2128895,32.9880225 55.6097826,32.7156404 55.1603742,32.3084045 C54.970199,32.7278652 54.6564276,32.9593708 54.3433644,32.9593708 L54.3058252,32.9593708 C53.8071907,32.9593708 53.5189177,32.6713258 53.5189177,31.959236 L53.5189177,24.3581348 C53.5189177,23.7083146 53.7654018,23.358 54.3823203,23.358 L54.4198595,23.358 C55.0597973,23.358 55.3470079,23.7766966 55.3470079,24.7626966 M55.3470079,27.5476404 L55.3470079,31.2005393 C55.6600711,31.4702472 56.0110275,31.6173258 56.5387018,31.6173258 C57.2898408,31.6173258 58.0179604,31.2696854 58.0179604,29.4149663 C58.0179604,27.5801124 57.3645651,27.1973258 56.5634919,27.1973258 C56.2012028,27.1973258 55.7227545,27.3604494 55.3470079,27.5476404" id="Fill-16" fill="#065399" sketch:type="MSShapeGroup"></path>
                        <path d="M62.9079778,24.7626966 L62.9079778,31.9867416 C62.9079778,32.6186067 62.5449805,32.9593708 62.002078,32.9593708 L61.979767,32.9593708 C61.4386353,32.9593708 61.0770545,32.6186067 61.0770545,31.9867416 L61.0770545,24.3581348 C61.0770545,23.7083146 61.32708,23.358 61.9422277,23.358 L61.979767,23.358 C62.6069556,23.358 62.9079778,23.7766966 62.9079778,24.7626966" id="Fill-17" fill="#065399" sketch:type="MSShapeGroup"></path>
                        <path d="M65.952552,29.7828539 C66.0403797,31.2016854 66.6675683,31.5936404 67.6828986,31.5936404 C68.7881813,31.5936404 69.0481229,31.0125843 69.4734496,31.0125843 C69.8141359,31.0125843 70.0259139,31.2574607 70.0259139,31.6845618 L70.0259139,31.7288764 C70.0259139,32.1070787 69.8375094,32.3767865 69.4635335,32.5823146 C68.9847311,32.8394157 68.3348773,32.9864944 67.4059581,32.9864944 C65.2513473,32.9864944 64.0713402,31.6077753 64.0713402,29.376 C64.0713402,27.0907416 65.4507302,25.6818427 67.2805912,25.6818427 C69.3140848,25.6818427 70.2274217,27.0361124 70.2274217,28.8912135 C70.2274217,29.4585169 69.9398569,29.7828539 69.3498534,29.7828539 L65.952552,29.7828539 L65.952552,29.7828539 Z M65.9769879,28.5917079 L68.4216425,28.5917079 C68.3844574,27.336 67.9963158,26.927618 67.2805912,26.927618 C66.6417158,26.927618 66.1168747,27.2657079 65.9769879,28.5917079 L65.9769879,28.5917079 Z" id="Fill-18" fill="#065399" sketch:type="MSShapeGroup"></path>
                        <path d="M72.5215651,28.5917079 C71.7615726,28.5917079 71.1421751,28.0301348 71.1421751,27.1407865 C71.1421751,26.2441798 71.7615726,25.6818427 72.5215651,25.6818427 C73.2659754,25.6818427 73.8984762,26.2441798 73.8984762,27.1407865 C73.8984762,28.0301348 73.2659754,28.5917079 72.5215651,28.5917079 L72.5215651,28.5917079 Z M72.5215651,28.3239101 C73.1448582,28.3239101 73.6109114,27.8857303 73.6109114,27.1407865 C73.6109114,26.3920225 73.1448582,25.9504045 72.5215651,25.9504045 C71.8872936,25.9504045 71.4208862,26.3920225 71.4208862,27.1407865 C71.4208862,27.8857303 71.8872936,28.3239101 72.5215651,28.3239101 L72.5215651,28.3239101 Z M73.1002361,27.625573 C73.1749604,27.7726517 73.0906742,27.9013933 72.9560996,27.9013933 L72.9507874,27.9013933 C72.8590642,27.9013933 72.7977973,27.8406517 72.7372387,27.7203146 L72.5279397,27.3096404 L72.346264,27.3096404 L72.346264,27.7142022 C72.346264,27.8532584 72.2718938,27.9013933 72.1727335,27.9013933 L72.1596302,27.9013933 C72.0615324,27.9013933 71.9814959,27.8532584 71.9814959,27.7142022 L71.9814959,26.605191 C71.9814959,26.4042472 72.0980092,26.3419775 72.2279799,26.3419775 L72.5644165,26.3419775 C72.9415797,26.3419775 73.1225472,26.5127416 73.1225472,26.8229438 C73.1225472,27.0063146 73.0308239,27.1526292 72.8796045,27.233236 L73.1002361,27.625573 L73.1002361,27.625573 Z M72.346264,27.0506292 L72.5357309,27.0506292 C72.7007619,27.0506292 72.7630912,26.9677303 72.7630912,26.8229438 C72.7630912,26.69 72.7007619,26.605191 72.5357309,26.605191 L72.346264,26.605191 L72.346264,27.0506292 L72.346264,27.0506292 Z" id="Fill-19" fill="#065399" sketch:type="MSShapeGroup"></path>
                    </g>
                </g>
            </g>
        </g>
    </g>
</svg>
