<?xml version="1.0" encoding="UTF-8" standalone="no"?>
<svg width="128px" height="40px" viewBox="0 0 128 40" version="1.1" xmlns="http://www.w3.org/2000/svg" xmlns:xlink="http://www.w3.org/1999/xlink" xmlns:sketch="http://www.bohemiancoding.com/sketch/ns">
    <!-- Generator: Sketch 3.4.4 (17249) - http://www.bohemiancoding.com/sketch -->
    <title>verizon-fios</title>
    <desc>Created with Sketch.</desc>
    <defs></defs>
    <g id="Page-1" stroke="none" stroke-width="1" fill="none" fill-rule="evenodd" sketch:type="MSPage">
        <g id="mvpd-light-bg" sketch:type="MSArtboardGroup" transform="translate(-20.000000, -18.000000)">
            <g id="Group" sketch:type="MSLayerGroup" transform="translate(20.000000, 18.000000)">
                <g id="verizon-fios" sketch:type="MSShapeGroup">
                    <rect id="rectangle" opacity="0" fill="#FFFFFF" x="0" y="0" width="128" height="40"></rect>
                    <g transform="translate(9.000000, 7.000000)" id="verizon">
                        <g>
                            <path d="M107.528176,0.151291793 L101.540532,12.9922036 L99.2775076,8.11960486 L96.8312614,8.11960486 L100.546687,16.0875836 L102.523845,16.0875836 L109.955198,0.151291793 L107.528176,0.151291793" id="Fill-1" fill="#E2261B"></path>
                            <path d="M43.8936778,2.47633739 L48.7614286,2.47633739 L48.7614286,6.78589666 L43.8936778,6.78589666 L43.8936778,2.47633739 Z M5.60331307,23.993541 L10.6880547,23.993541 L16.2067781,8.11960486 L11.3390274,8.11960486 L8.23863222,18.3200152 L8.17661094,18.3200152 L5.07621581,8.11960486 L0.0844224924,8.11960486 L5.60331307,23.993541 L5.60331307,23.993541 Z M23.4619301,11.1270517 C25.1670973,11.1270517 26.3451672,12.3980699 26.531231,14.2583739 L20.0512614,14.2583739 C20.4233891,12.3671429 21.4464894,11.1270517 23.4619301,11.1270517 L23.4619301,11.1270517 Z M23.709848,20.9555015 C21.5705319,20.9555015 20.2682523,19.5601064 20.0203343,17.4207903 L31.4608359,17.4207903 C31.4919301,14.0104559 30.5928723,11.2818541 28.7014742,9.57668693 C27.3682675,8.33659574 25.601079,7.65452888 23.3688146,7.65452888 C18.5941793,7.65452888 15.2766261,11.2818541 15.2766261,16.0255623 C15.2766261,20.8001976 18.4390426,24.4589514 23.678921,24.4589514 C25.6632675,24.4589514 27.2443921,23.9316869 28.5465046,23.0322948 C29.9417325,22.0712158 30.9337386,20.6763222 31.2129179,19.2810942 L26.5621581,19.2810942 C26.0970821,20.3351216 25.136003,20.9555015 23.709848,20.9555015 L23.709848,20.9555015 Z M32.6081459,23.993541 L37.4448024,23.993541 L37.4448024,16.7076292 C37.4448024,13.3902432 39.4289818,11.9331611 42.4673556,12.3360486 L42.5604711,12.3360486 L42.5604711,8.15053191 C42.312386,8.05758359 42.033541,8.02648936 41.5682979,8.02648936 C39.6770669,8.02648936 38.4058815,8.89462006 37.3207599,10.7547568 L37.2276444,10.7547568 L37.2276444,8.11960486 L32.6081459,8.11960486 L32.6081459,23.993541 L32.6081459,23.993541 Z M43.8936778,23.993541 L48.7614286,23.993541 L48.7614286,8.11943769 L43.8936778,8.11943769 L43.8936778,23.993541 Z M50.095304,23.993541 L63.6751216,23.993541 L63.6751216,20.180152 L55.9859878,20.180152 L55.9859878,20.0872036 L63.3342553,11.8400456 L63.3342553,8.11960486 L50.095304,8.11960486 L50.095304,11.9331611 L57.5361854,11.9331611 L57.5361854,12.0261094 L50.095304,20.3351216 L50.095304,23.993541 L50.095304,23.993541 Z M72.2633131,20.9244073 C69.9688602,20.9244073 68.7598632,19.0020821 68.7598632,16.0875836 C68.7598632,13.1421581 69.9688602,11.2509271 72.2633131,11.2509271 C74.5575988,11.2509271 75.8287842,13.1421581 75.8287842,16.0875836 C75.8287842,19.0020821 74.5575988,20.9244073 72.2633131,20.9244073 L72.2633131,20.9244073 Z M72.2942401,7.68545593 C67.2405927,7.68545593 63.8611854,11.3129483 63.8611854,16.0875836 C63.8611854,20.8311246 67.2405927,24.4898784 72.2942401,24.4898784 C77.3480547,24.4898784 80.727462,20.8311246 80.727462,16.0875836 C80.727462,11.3129483 77.3480547,7.68545593 72.2942401,7.68545593 L72.2942401,7.68545593 Z M81.7818237,23.993541 L86.6184802,23.993541 L86.6184802,15.1575988 C86.6184802,13.1421581 87.7965502,11.716003 89.5328116,11.716003 C91.2070517,11.716003 92.0751824,12.8942401 92.0751824,14.5684802 L92.0751824,23.993541 L96.9118389,23.993541 L96.9118389,13.6383283 C96.9118389,10.1347112 94.803617,7.65452888 91.3929483,7.65452888 C89.2228723,7.65452888 87.7036018,8.58468085 86.556459,10.289848 L86.4631763,10.289848 L86.4631763,8.11960486 L81.7818237,8.11960486 L81.7818237,23.993541 L81.7818237,23.993541 Z" id="Fill-2" fill="#2D2926"></path>
                        </g>
                    </g>
                </g>
            </g>
        </g>
    </g>
</svg>
