<?xml version="1.0" encoding="UTF-8" standalone="no"?>
<!-- Created with Inkscape (http://www.inkscape.org/) -->

<svg
   xmlns:dc="http://purl.org/dc/elements/1.1/"
   xmlns:cc="http://creativecommons.org/ns#"
   xmlns:rdf="http://www.w3.org/1999/02/22-rdf-syntax-ns#"
   xmlns:svg="http://www.w3.org/2000/svg"
   xmlns="http://www.w3.org/2000/svg"
   xmlns:sodipodi="http://sodipodi.sourceforge.net/DTD/sodipodi-0.dtd"
   xmlns:inkscape="http://www.inkscape.org/namespaces/inkscape"
   width="278.80276"
   height="93.99791"
   id="svg2"
   version="1.1"
   inkscape:version="0.48.2 r9819"
   sodipodi:docname="New document 1">
  <defs
     id="defs4" />
  <sodipodi:namedview
     id="base"
     pagecolor="#ffffff"
     bordercolor="#666666"
     borderopacity="1.0"
     inkscape:pageopacity="0.0"
     inkscape:pageshadow="2"
     inkscape:zoom="1.0074671"
     inkscape:cx="70.523122"
     inkscape:cy="97.988658"
     inkscape:document-units="px"
     inkscape:current-layer="layer1"
     showgrid="false"
     fit-margin-top="0"
     fit-margin-left="0"
     fit-margin-right="0"
     fit-margin-bottom="0"
     inkscape:window-width="475"
     inkscape:window-height="458"
     inkscape:window-x="22"
     inkscape:window-y="22"
     inkscape:window-maximized="0" />
  <metadata
     id="metadata7">
    <rdf:RDF>
      <cc:Work
         rdf:about="">
        <dc:format>image/svg+xml</dc:format>
        <dc:type
           rdf:resource="http://purl.org/dc/dcmitype/StillImage" />
        <dc:title></dc:title>
      </cc:Work>
    </rdf:RDF>
  </metadata>
  <g
     inkscape:label="Layer 1"
     inkscape:groupmode="layer"
     id="layer1"
     transform="translate(-402.63902,-536.35293)">
    <g
       id="g3036">
      <g
         id="g3115"
         transform="matrix(1.8202892,0,0,-1.8202892,643.27215,583.13072)">
        <path
           inkscape:connector-curvature="0"
           d="m 0,0 c -1.27,-9.9 -2.329,-18.035 -2.879,-18.035 -0.781,0 -3.603,12.481 -6.396,24.225 -3.58,15.056 -5.516,19.508 -9.856,19.508 -7.317,0 -10.237,-23.416 -10.237,-27.97 0,-2.789 1.422,-3.959 3.148,-3.959 2.798,0 3.987,2.313 4.306,4.919 1.381,11.282 3.101,16.464 3.555,16.464 0.444,0 2.011,-4.204 5.903,-19.266 3.731,-14.442 5.543,-21.143 8.579,-21.143 4.058,0 5.664,10.063 7.484,25.023 1.01,8.314 1.873,16.625 2.581,16.625 0.464,0 1.431,-7.688 2.308,-15.033 1.212,-10.142 1.815,-15.007 3.817,-15.007 2.727,0 3.433,7.306 4.567,17.81 0.963,8.933 1.507,12.688 1.777,12.688 0.319,0 0.552,-2.377 0.689,-7.323 0.03,-1.089 0.364,-1.349 0.757,-1.349 0.84,0 0.866,1.406 0.866,2.532 0,5.631 -0.973,11.343 -2.224,11.343 -1.681,0 -2.863,-5.875 -4.109,-17.506 -1.01,-9.442 -1.352,-13.054 -1.761,-13.054 -0.34,0 -0.832,4.297 -1.764,11.981 C 9.611,15.83 9.047,23.253 6.004,23.253 3.001,23.253 2.121,16.532 0,0"
           style="fill:#7fcc28;fill-opacity:1;fill-rule:nonzero;stroke:none"
           id="path3117" />
      </g>
      <g
         id="g3119"
         transform="matrix(1.8202892,0,0,-1.8202892,423.21011,629.98678)">
        <path
           inkscape:connector-curvature="0"
           d="m 0,0 -1.807,0 -2.308,7.146 c -0.12,0.361 -0.221,0.803 -0.281,1.285 l -0.08,0 C -4.536,7.949 -4.657,7.507 -4.777,7.126 L -7.005,0 -8.832,0 c -1.003,3.272 -1.846,6.865 -2.469,10.398 0.502,0.08 1.245,0.12 1.746,0.12 l 1.546,-7.125 c 0.08,-0.402 0.161,-0.944 0.201,-1.386 l 0.1,0 c 0.06,0.442 0.161,0.984 0.301,1.426 l 2.208,7.045 1.726,0 2.229,-7.066 c 0.12,-0.381 0.24,-0.903 0.321,-1.405 l 0.08,0 c 0.06,0.502 0.14,0.963 0.241,1.426 l 1.505,7.085 c 0.502,0 1.144,-0.04 1.606,-0.12 C 1.887,6.865 1.064,3.473 0,0"
           style="fill:#231f20;fill-opacity:1;fill-rule:nonzero;stroke:none"
           id="path3121" />
      </g>
      <path
         inkscape:connector-curvature="0"
         d="m 436.98242,629.98678 -3.25177,0 0,-19.07299 3.25177,0 0,19.07299 z m -3.25104,0 z m 1.60732,-22.32402 c -1.27785,0 -1.90039,-0.9502 -1.90039,-2.0096 0,-1.09582 0.62254,-2.08241 1.93679,-2.08241 1.27966,0 1.90038,0.98659 1.90038,2.08241 0,1.09581 -0.62072,2.0096 -1.93678,2.0096"
         style="fill:#231f20;fill-opacity:1;fill-rule:nonzero;stroke:none"
         id="path3123" />
      <g
         id="g3125"
         transform="matrix(1.8202892,0,0,-1.8202892,455.80057,629.98678)">
        <path
           inkscape:connector-curvature="0"
           d="m 0,0 0,7.407 c 0,1.024 -0.442,1.646 -1.746,1.646 -1.004,0 -1.807,-0.282 -2.61,-0.823 l 0,-8.23 -1.786,0 0,10.398 c 0.482,0.08 1.244,0.12 1.786,0.12 l 0,-1.024 0.101,0 c 1.044,0.904 2.007,1.184 3.091,1.184 1.586,0 2.97,-0.762 2.97,-3.191 L 1.806,0 0,0"
           style="fill:#231f20;fill-opacity:1;fill-rule:nonzero;stroke:none"
           id="path3127" />
      </g>
      <g
         id="g3129"
         transform="matrix(1.8202892,0,0,-1.8202892,476.60829,614.23946)">
        <path
           inkscape:connector-curvature="0"
           d="m 0,0 c -0.482,0.261 -1.285,0.442 -1.947,0.442 -1.767,0 -2.75,-0.903 -2.75,-3.954 0,-2.931 0.783,-3.713 2.308,-3.713 0.843,0 1.626,0.18 2.389,0.702 L 0,0 z m 2.208,-8.851 c -0.783,0 -1.586,0.2 -1.987,1.264 l -0.08,0 c -1.065,-1.003 -2.028,-1.264 -3.092,-1.264 -2.288,0 -3.673,1.626 -3.673,5.118 0,4.135 1.826,5.761 4.597,5.761 0.622,0 1.405,-0.141 2.027,-0.362 l 0,4.476 c 0.481,0.081 1.264,0.141 1.806,0.141 l 0,-12.665 c 0,-0.502 0.141,-0.683 0.603,-0.683 l 1.164,0 0,-0.542 c 0,-0.903 -0.603,-1.244 -1.365,-1.244"
           style="fill:#231f20;fill-opacity:1;fill-rule:nonzero;stroke:none"
           id="path3131" />
      </g>
      <g
         id="g3133"
         transform="matrix(1.8202892,0,0,-1.8202892,491.73489,630.35084)">
        <path
           inkscape:connector-curvature="0"
           d="m 0,0 c -1.024,0 -2.228,0.221 -3.051,0.663 0.14,0.581 0.261,1.103 0.461,1.625 0.824,-0.421 1.968,-0.642 2.951,-0.642 1.164,0 1.626,0.502 1.626,1.365 0,2.087 -4.858,1.405 -4.858,4.656 0,2.128 1.787,3.212 3.934,3.212 0.663,0 1.667,-0.08 2.45,-0.301 C 3.492,10.076 3.372,9.434 3.252,8.912 2.509,9.153 1.445,9.294 0.582,9.294 -0.462,9.294 -1.024,8.851 -1.024,7.889 -1.024,6.062 3.874,6.664 3.874,3.111 3.874,0.944 2.067,0 0,0"
           style="fill:#231f20;fill-opacity:1;fill-rule:nonzero;stroke:none"
           id="path3135" />
      </g>
      <g
         id="g3137"
         transform="matrix(1.8202892,0,0,-1.8202892,510.73325,630.35084)">
        <path
           inkscape:connector-curvature="0"
           d="m 0,0 c -2.168,0 -3.051,1.084 -3.051,3.393 l 0,5.72 -1.245,0 0,1.565 1.245,0 0,2.248 c 0.482,0.141 1.285,0.282 1.806,0.321 l 0,-2.569 2.65,0 c 0,-0.502 -0.04,-1.044 -0.12,-1.565 l -2.53,0 0,-5.861 c 0,-1.245 0.382,-1.566 1.406,-1.566 0.481,0 1.124,0.14 1.525,0.321 C 1.806,1.546 1.907,0.944 1.947,0.422 1.405,0.161 0.562,0 0,0"
           style="fill:#231f20;fill-opacity:1;fill-rule:nonzero;stroke:none"
           id="path3139" />
      </g>
      <g
         id="g3141"
         transform="matrix(1.8202892,0,0,-1.8202892,535.28167,618.76834)">
        <path
           inkscape:connector-curvature="0"
           d="m 0,0 4.376,0 c 0.02,0.161 0.02,0.502 0.02,0.642 0,1.726 -0.763,2.469 -2.108,2.469 C 0.903,3.111 0.06,2.208 0,0 z m 6.122,-1.245 -6.142,0 0,-0.16 c 0,-2.188 0.662,-3.252 2.89,-3.252 0.964,0 2.068,0.281 2.69,0.662 0.181,-0.481 0.362,-1.144 0.441,-1.686 -0.802,-0.441 -2.167,-0.682 -3.171,-0.682 -3.131,0 -4.797,1.746 -4.797,5.299 0,3.874 1.846,5.58 4.295,5.58 2.549,0 3.854,-1.566 3.854,-4.255 0,-0.442 -0.02,-1.024 -0.06,-1.506"
           style="fill:#231f20;fill-opacity:1;fill-rule:nonzero;stroke:none"
           id="path3143" />
      </g>
      <g
         id="g3145"
         transform="matrix(1.8202892,0,0,-1.8202892,563.23221,614.12842)">
        <path
           inkscape:connector-curvature="0"
           d="m 0,0 c -0.542,0.261 -1.225,0.361 -1.786,0.361 -1.787,0 -2.75,-0.903 -2.75,-3.933 0,-2.951 0.782,-3.714 2.308,-3.714 0.863,0 1.565,0.241 2.228,0.682 L 0,0 z m 1.806,-6.443 c 0,-0.502 0.121,-0.683 0.602,-0.683 l 1.165,0 0,-0.542 c 0,-0.903 -0.603,-1.244 -1.385,-1.244 -0.803,0 -1.546,0.221 -1.987,1.244 l -0.06,0 c -0.924,-0.863 -1.808,-1.244 -2.851,-1.244 -2.328,0 -3.753,1.546 -3.753,5.118 0,3.935 1.806,5.761 4.597,5.761 0.622,0 1.203,-0.101 1.866,-0.301 0.281,0.16 0.722,0.241 1.144,0.241 0.241,0 0.462,-0.02 0.662,-0.06 l 0,-8.29"
           style="fill:#231f20;fill-opacity:1;fill-rule:nonzero;stroke:none"
           id="path3147" />
      </g>
      <g
         id="g3149"
         transform="matrix(1.8202892,0,0,-1.8202892,595.31117,629.98678)">
        <path
           inkscape:connector-curvature="0"
           d="m 0,0 0,7.407 c 0,0.984 -0.442,1.646 -1.666,1.646 -0.944,0 -1.586,-0.301 -2.289,-0.864 l 0,-8.189 -1.806,0 0,7.407 c 0,1.003 -0.462,1.646 -1.646,1.646 -0.823,0 -1.565,-0.301 -2.288,-0.823 l 0,-8.23 -1.787,0 0,10.398 c 0.482,0.08 1.245,0.12 1.787,0.12 l 0,-1.024 0.1,0 c 0.964,0.863 1.706,1.184 2.77,1.184 1.064,0 1.967,-0.381 2.429,-1.405 1.104,1.044 2.047,1.405 3.212,1.405 1.645,0 2.991,-0.803 2.991,-3.171 L 1.807,0 0,0"
           style="fill:#231f20;fill-opacity:1;fill-rule:nonzero;stroke:none"
           id="path3151" />
      </g>
      <g
         id="g3153"
         transform="matrix(1.8202892,0,0,-1.8202892,528.49017,614.16483)">
        <path
           inkscape:connector-curvature="0"
           d="m 0,0 c -0.221,0.06 -0.562,0.12 -0.903,0.12 -0.722,0 -1.425,-0.14 -2.328,-1.023 l 0,-7.788 -1.787,0 0,10.397 c 0.482,0.08 1.245,0.12 1.787,0.12 l 0,-1.324 0.1,0 c 1.144,1.365 1.867,1.485 2.509,1.485 0.221,0 0.562,-0.02 0.803,-0.101 C 0.181,1.284 0.101,0.602 0,0"
           style="fill:#231f20;fill-opacity:1;fill-rule:nonzero;stroke:none"
           id="path3155" />
      </g>
      <g
         id="g3157"
         transform="matrix(1.8202892,0,0,-1.8202892,604.88043,626.78853)">
        <path
           inkscape:connector-curvature="0"
           d="m 0,0 c -0.066,0 -0.144,-0.004 -0.206,-0.009 l 0,-0.52 0.177,0 c 0.178,0 0.294,0.082 0.294,0.277 C 0.265,-0.079 0.161,0 0,0 z M 0.649,-1.343 C 0.562,-1.364 0.455,-1.364 0.368,-1.368 l -0.12,0.244 C 0.166,-0.951 0.071,-0.814 0,-0.744 l -0.206,0 0,-0.616 -0.265,0 0,1.55 c 0.186,0.021 0.351,0.029 0.492,0.029 0.281,0 0.512,-0.124 0.512,-0.455 0,-0.211 -0.132,-0.364 -0.301,-0.417 0.086,-0.078 0.177,-0.199 0.252,-0.352 L 0.649,-1.343 z M 0.033,0.578 c -0.657,0 -1.054,-0.467 -1.054,-1.149 0,-0.661 0.422,-1.144 1.054,-1.144 0.633,0 1.054,0.45 1.054,1.144 0,0.691 -0.446,1.149 -1.054,1.149 z m 0,-2.442 c -0.707,0 -1.219,0.508 -1.219,1.306 0,0.769 0.509,1.293 1.219,1.293 0.686,0 1.224,-0.495 1.224,-1.293 0,-0.789 -0.513,-1.306 -1.224,-1.306"
           style="fill:#231f20;fill-opacity:1;fill-rule:nonzero;stroke:none"
           id="path3159" />
      </g>
    </g>
  </g>
</svg>
