<svg xmlns="http://www.w3.org/2000/svg" xmlns:xlink="http://www.w3.org/1999/xlink" viewBox="0 0 300 63.07">
  <defs>
    <linearGradient id="2f3ee994-5bd0-4329-a077-6146cae4eead" x1="-59.53" y1="-434.84" x2="-59.53" y2="-459.79" gradientTransform="translate(237.3 1163.78) scale(2.53)" gradientUnits="userSpaceOnUse">
      <stop offset="0" stop-color="#8a181a"/>
      <stop offset="0.07" stop-color="#ac1f23"/>
      <stop offset="0.1" stop-color="#b92025"/>
      <stop offset="0.15" stop-color="#c62127"/>
      <stop offset="0.23" stop-color="#e31e26"/>
      <stop offset="0.25" stop-color="#ec2027"/>
      <stop offset="0.75" stop-color="#b92025"/>
      <stop offset="0.9" stop-color="#9c1c20"/>
      <stop offset="1" stop-color="#8a181a"/>
    </linearGradient>
    <linearGradient id="57a20ca5-efa1-41e6-9cf2-508ea3e820a4" x1="-6.82" y1="-434.84" x2="-6.82" y2="-459.79" gradientTransform="translate(237.3 1163.78) scale(2.53)" gradientUnits="userSpaceOnUse">
      <stop offset="0" stop-color="#383839"/>
      <stop offset="0.41" stop-color="#5c5e60"/>
      <stop offset="1" stop-color="#282829"/>
    </linearGradient>
  </defs>
  <title>Asset 34</title>
  <g id="40252567-0628-4fc5-b98d-da8dc7013f0d" data-name="Layer 2">
    <g id="1643cc02-1c52-4de4-ab01-fde26d20edb4" data-name="Layer 1">
      <g>
        <g>
          <path d="M172.53,28.84a2.43,2.43,0,0,1,0,3.48l-28.2,29a6.74,6.74,0,0,1-4.22,1.72H2.5A2.51,2.51,0,0,1,0,60.57V2.5A2.51,2.51,0,0,1,2.5,0H140.26a6.74,6.74,0,0,1,4.22,1.72l28.05,27.12" style="fill: url(#2f3ee994-5bd0-4329-a077-6146cae4eead)"/>
          <path d="M137.66,43.11h0a3,3,0,0,1,3-3,3,3,0,0,1,3,3h0a3,3,0,0,1-3,3A2.94,2.94,0,0,1,137.66,43.11Zm5.69,0h0a2.71,2.71,0,0,0-2.75-2.75,2.77,2.77,0,0,0-2.75,2.75h0a2.71,2.71,0,0,0,2.75,2.75A2.68,2.68,0,0,0,143.35,43.11Zm-3.83-1.62h1.37a1.37,1.37,0,0,1,1,.39.93.93,0,0,1,.25.64h0a.92.92,0,0,1-.74,1l.88,1.23h-.74l-.74-1.13h-.64v1.13h-.64ZM140.9,43c.39,0,.64-.25.64-.49h0c0-.39-.25-.49-.64-.49h-.74v1Zm-42.22.25V19.42H93.23V44.63h5.44Zm-37.86,0V19.42H55.37V44.63h5.44ZM78.47,18.93a8.15,8.15,0,0,0-6.33,2.75V19.42H66.7V44.63h5.44V30c0-4.12,1.72-6.33,5-6.33,3.48,0,5,2,5,6.82V44.73h5.44V30.21C87.49,22.76,84.4,18.93,78.47,18.93Zm28.15,4.81V37.91c0,4.61,2.5,7.31,6.72,7.31a13.16,13.16,0,0,0,3.83-.49l.64-4.36a8.52,8.52,0,0,1-2.5.39c-2.26,0-3.24-.88-3.24-3.24V23.74h6.33l-1.62-4.36h-4.71V10.3L106.62,13v6.33h-4v4.36h4Zm-66-4.32H38l-3,4.36h5.59v21h5.44v-21h5.59V19.42H46.05v-2.5c0-1.86.74-2.6,2.6-2.6a15.32,15.32,0,0,1,3,.39V10.35a14.14,14.14,0,0,0-4.36-.64c-4.22,0-6.72,2.75-6.72,7.31v2.4Zm104.85,0h-5.84l-8.83,16-5.93-16h-5.69l8.44,22L121,53.55h5.69ZM26.68,31.58l8.58-12.16H28.93l-5.35,7.8-5.35-7.8H12.06L20.6,31.58l-9.17,13h6.33l5.93-8.68L36,53.46h6.08Z" style="fill: #fff"/>
        </g>
        <g>
          <path d="M297.63,0H140.26a6.74,6.74,0,0,1,4.22,1.72l28.05,27.07a2.43,2.43,0,0,1,0,3.48l-28.2,29a6.74,6.74,0,0,1-4.22,1.72H297.49a2.51,2.51,0,0,0,2.5-2.5V2.5A2.29,2.29,0,0,0,297.63,0Z" style="fill: url(#57a20ca5-efa1-41e6-9cf2-508ea3e820a4)"/>
          <path d="M187.19,17.9h2.26l4.86,11.43h-2.6l-1-2.5H186l-1,2.5h-2.5Zm2.6,6.57-1.47-3.73-1.47,3.73Zm4.46-.1V17.9h2.5v6.33c0,1.86.88,2.75,2.5,2.75s2.5-.88,2.5-2.75V17.75h2.5v6.33c0,3.48-1.86,5.1-5,5.1C196.12,29.47,194.25,27.71,194.25,24.37Zm14-4.12H204.8V18h9.32v2.26h-3.48v9.07h-2.5V20.25Zm7-2.35h2.5v4.46h4.61V17.9h2.5V29.18h-2.5V24.57h-4.61v4.61h-2.5Zm10.64,5.74h0a5.93,5.93,0,0,1,11.87,0h0a5.78,5.78,0,0,1-5.93,5.84A5.87,5.87,0,0,1,225.89,23.64Zm9.47,0h0a3.43,3.43,0,0,0-3.48-3.58,3.37,3.37,0,0,0-3.33,3.48h0A3.43,3.43,0,0,0,232,27.12,3.26,3.26,0,0,0,235.35,23.64Zm3.83-5.74h5.2A4.57,4.57,0,0,1,247.71,19a3.47,3.47,0,0,1,1,2.6h0a3.39,3.39,0,0,1-2.5,3.48l2.75,4h-2.84l-2.35-3.58h-2v3.58h-2.45V17.9Zm5.1,5.59c1.23,0,1.86-.64,1.86-1.62h0c0-1.13-.74-1.62-2-1.62h-2.5v3.24ZM250,17.9h2.5V29.18H250V17.9Zm4.12,9.47,6.23-7.21h-5.93V17.9h9.17v2l-6.23,7.21h6.23v2.26h-9.42l0-2Zm10.79-9.47h8.58v2.26h-6.08v2.26h5.35v2.26h-5.35V27h6.08v2.26h-8.58Zm9.81,0H279A5.59,5.59,0,0,1,285,23.49h0A5.59,5.59,0,0,1,279,29.08h-4.36Zm2.5,2.35v6.82H279a3.19,3.19,0,0,0,3.33-3.33h0A3.19,3.19,0,0,0,279,20.4h-1.86Zm-94.6,15.06h5.2a4.57,4.57,0,0,1,3.33,1.13,3.47,3.47,0,0,1,1,2.6h0a3.39,3.39,0,0,1-2.5,3.48l2.75,4H189.5l-2.35-3.58h-2v3.58h-2.5V35.31Zm5,5.59c1.23,0,1.86-.64,1.86-1.62h0c0-1.13-.74-1.62-2-1.62h-2.5V40.9h2.6Zm5.74-5.59h8.58v2.26h-6.08v2.26h5.3v2.26h-5.35v2.35h6.08v2.26h-8.58V35.31Zm12.65,2.35h-3.48V35.41h9.32v2.26h-3.48v9.07h-2.5V37.66ZM215,35.31h2.26l4.86,11.43h-2.6l-1-2.5h-4.71l-1,2.5h-2.5Zm2.6,6.57-1.47-3.73-1.47,3.73ZM223,35.31h2.5V46.64H223Zm4.36,0h2.5v9.07h5.59v2.26h-8.09Zm8.93,0h8.58v2.26h-6.08v2.26h5.35v2.26h-5.35v2.35h6.08v2.26h-8.58Zm10,0h5.2a4.57,4.57,0,0,1,3.33,1.13,3.47,3.47,0,0,1,1,2.6h0a3.44,3.44,0,0,1-2.35,3.48l2.75,4h-2.84l-2.5-3.58h-2v3.58h-2.5V35.31Zm5,5.59c1.23,0,1.86-.64,1.86-1.62h0c0-1.13-.74-1.62-2-1.62h-2.5V40.9h2.6Z" style="fill: #fff"/>
        </g>
      </g>
    </g>
  </g>
</svg>
